  0
SECTION
  2
HEADER
  9
$ACADVER
  1
AC1024
  9
$ACADMAINTVER
 70
     6
  9
$DWGCODEPAGE
  3
UNDEFINED
  9
$INSBASE
 10
0.0
 20
0.0
 30
0.0
  9
$EXTMIN
 10
1.000000000000000E+20
 20
1.000000000000000E+20
 30
1.000000000000000E+20
  9
$EXTMAX
 10
-1.000000000000000E+20
 20
-1.000000000000000E+20
 30
-1.000000000000000E+20
  9
$LIMMIN
 10
0.0
 20
0.0
  9
$LIMMAX
 10
12.0
 20
9.0
  9
$ORTHOMODE
 70
     0
  9
$REGENMODE
 70
     1
  9
$FILLMODE
 70
     1
  9
$QTEXTMODE
 70
     0
  9
$MIRRTEXT
 70
     1
  9
$LTSCALE
 40
1.0
  9
$ATTMODE
 70
     1
  9
$TEXTSIZE
 40
0.2
  9
$TRACEWID
 40
0.05
  9
$TEXTSTYLE
  7
Standard
  9
$CLAYER
  8
0
  9
$CELTYPE
  6
ByLayer
  9
$CECOLOR
 62
   256
  9
$CELTSCALE
 40
1.0
  9
$DISPSILH
 70
     0
  9
$DIMSCALE
 40
1.0
  9
$DIMASZ
 40
0.18
  9
$DIMEXO
 40
0.0625
  9
$DIMDLI
 40
0.38
  9
$DIMRND
 40
0.0
  9
$DIMDLE
 40
0.0
  9
$DIMEXE
 40
0.18
  9
$DIMTP
 40
0.0
  9
$DIMTM
 40
0.0
  9
$DIMTXT
 40
0.18
  9
$DIMCEN
 40
0.09
  9
$DIMTSZ
 40
0.0
  9
$DIMTOL
 70
     0
  9
$DIMLIM
 70
     0
  9
$DIMTIH
 70
     1
  9
$DIMTOH
 70
     1
  9
$DIMSE1
 70
     0
  9
$DIMSE2
 70
     0
  9
$DIMTAD
 70
     0
  9
$DIMZIN
 70
     0
  9
$DIMBLK
  1

  9
$DIMASO
 70
     1
  9
$DIMSHO
 70
     1
  9
$DIMPOST
  1

  9
$DIMAPOST
  1

  9
$DIMALT
 70
     0
  9
$DIMALTD
 70
     2
  9
$DIMALTF
 40
25.4
  9
$DIMLFAC
 40
1.0
  9
$DIMTOFL
 70
     0
  9
$DIMTVP
 40
0.0
  9
$DIMTIX
 70
     0
  9
$DIMSOXD
 70
     0
  9
$DIMSAH
 70
     0
  9
$DIMBLK1
  1

  9
$DIMBLK2
  1

  9
$DIMSTYLE
  2
Standard
  9
$DIMCLRD
 70
     0
  9
$DIMCLRE
 70
     0
  9
$DIMCLRT
 70
     0
  9
$DIMTFAC
 40
1.0
  9
$DIMGAP
 40
0.09
  9
$DIMJUST
 70
     0
  9
$DIMSD1
 70
     0
  9
$DIMSD2
 70
     0
  9
$DIMTOLJ
 70
     1
  9
$DIMTZIN
 70
     0
  9
$DIMALTZ
 70
     0
  9
$DIMALTTZ
 70
     0
  9
$DIMUPT
 70
     0
  9
$DIMDEC
 70
     4
  9
$DIMTDEC
 70
     4
  9
$DIMALTU
 70
     2
  9
$DIMALTTD
 70
     2
  9
$DIMTXSTY
  7
Standard
  9
$DIMAUNIT
 70
     0
  9
$DIMADEC
 70
     0
  9
$DIMALTRND
 40
0.0
  9
$DIMAZIN
 70
     0
  9
$DIMDSEP
 70
    46
  9
$DIMATFIT
 70
     3
  9
$DIMFRAC
 70
     0
  9
$DIMLDRBLK
  1

  9
$DIMLUNIT
 70
     2
  9
$DIMLWD
 70
    -2
  9
$DIMLWE
 70
    -2
  9
$DIMTMOVE
 70
     0
  9
$DIMFXL
 40
1.0
  9
$DIMFXLON
 70
     0
  9
$DIMJOGANG
 40
0.7853981633974483
  9
$DIMTFILL
 70
     0
  9
$DIMTFILLCLR
 70
     0
  9
$DIMARCSYM
 70
     0
  9
$DIMLTYPE
  6

  9
$DIMLTEX1
  6

  9
$DIMLTEX2
  6

  9
$DIMTXTDIRECTION
 70
     0
  9
$LUNITS
 70
     2
  9
$LUPREC
 70
     4
  9
$SKETCHINC
 40
0.1
  9
$FILLETRAD
 40
0.5
  9
$AUNITS
 70
     0
  9
$AUPREC
 70
     0
  9
$MENU
  1
.
  9
$ELEVATION
 40
0.0
  9
$PELEVATION
 40
0.0
  9
$THICKNESS
 40
0.0
  9
$LIMCHECK
 70
     0
  9
$CHAMFERA
 40
0.5
  9
$CHAMFERB
 40
0.5
  9
$CHAMFERC
 40
1.0
  9
$CHAMFERD
 40
0.0
  9
$SKPOLY
 70
     0
  9
$TDCREATE
 40
2457840.512835637
  9
$TDUCREATE
 40
2457840.721168981
  9
$TDUPDATE
 40
2457840.512835637
  9
$TDUUPDATE
 40
2457840.721168981
  9
$TDINDWG
 40
0.0000000116
  9
$TDUSRTIMER
 40
0.0000000116
  9
$USRTIMER
 70
     1
  9
$ANGBASE
 50
0.0
  9
$ANGDIR
 70
     0
  9
$PDMODE
 70
     0
  9
$PDSIZE
 40
0.0
  9
$PLINEWID
 40
0.0
  9
$SPLFRAME
 70
     0
  9
$SPLINETYPE
 70
     6
  9
$SPLINESEGS
 70
     8
  9
$HANDSEED
  5
3EF
  9
$SURFTAB1
 70
     6
  9
$SURFTAB2
 70
     6
  9
$SURFTYPE
 70
     6
  9
$SURFU
 70
     6
  9
$SURFV
 70
     6
  9
$UCSBASE
  2

  9
$UCSNAME
  2

  9
$UCSORG
 10
0.0
 20
0.0
 30
0.0
  9
$UCSXDIR
 10
1.0
 20
0.0
 30
0.0
  9
$UCSYDIR
 10
0.0
 20
1.0
 30
0.0
  9
$UCSORTHOREF
  2

  9
$UCSORTHOVIEW
 70
     0
  9
$UCSORGTOP
 10
0.0
 20
0.0
 30
0.0
  9
$UCSORGBOTTOM
 10
0.0
 20
0.0
 30
0.0
  9
$UCSORGLEFT
 10
0.0
 20
0.0
 30
0.0
  9
$UCSORGRIGHT
 10
0.0
 20
0.0
 30
0.0
  9
$UCSORGFRONT
 10
0.0
 20
0.0
 30
0.0
  9
$UCSORGBACK
 10
0.0
 20
0.0
 30
0.0
  9
$PUCSBASE
  2

  9
$PUCSNAME
  2

  9
$PUCSORG
 10
0.0
 20
0.0
 30
0.0
  9
$PUCSXDIR
 10
1.0
 20
0.0
 30
0.0
  9
$PUCSYDIR
 10
0.0
 20
1.0
 30
0.0
  9
$PUCSORTHOREF
  2

  9
$PUCSORTHOVIEW
 70
     0
  9
$PUCSORGTOP
 10
0.0
 20
0.0
 30
0.0
  9
$PUCSORGBOTTOM
 10
0.0
 20
0.0
 30
0.0
  9
$PUCSORGLEFT
 10
0.0
 20
0.0
 30
0.0
  9
$PUCSORGRIGHT
 10
0.0
 20
0.0
 30
0.0
  9
$PUCSORGFRONT
 10
0.0
 20
0.0
 30
0.0
  9
$PUCSORGBACK
 10
0.0
 20
0.0
 30
0.0
  9
$USERI1
 70
     0
  9
$USERI2
 70
     0
  9
$USERI3
 70
     0
  9
$USERI4
 70
     0
  9
$USERI5
 70
     0
  9
$USERR1
 40
0.0
  9
$USERR2
 40
0.0
  9
$USERR3
 40
0.0
  9
$USERR4
 40
0.0
  9
$USERR5
 40
0.0
  9
$WORLDVIEW
 70
     1
  9
$SHADEDGE
 70
     3
  9
$SHADEDIF
 70
    70
  9
$TILEMODE
 70
     1
  9
$MAXACTVP
 70
    64
  9
$PINSBASE
 10
0.0
 20
0.0
 30
0.0
  9
$PLIMCHECK
 70
     0
  9
$PEXTMIN
 10
1.000000000000000E+20
 20
1.000000000000000E+20
 30
1.000000000000000E+20
  9
$PEXTMAX
 10
-1.000000000000000E+20
 20
-1.000000000000000E+20
 30
-1.000000000000000E+20
  9
$PLIMMIN
 10
0.0
 20
0.0
  9
$PLIMMAX
 10
12.0
 20
9.0
  9
$UNITMODE
 70
     0
  9
$VISRETAIN
 70
     1
  9
$PLINEGEN
 70
     0
  9
$PSLTSCALE
 70
     1
  9
$TREEDEPTH
 70
  3020
  9
$CMLSTYLE
  2
Standard
  9
$CMLJUST
 70
     0
  9
$CMLSCALE
 40
1.0
  9
$PROXYGRAPHICS
 70
     1
  9
$MEASUREMENT
 70
     0
  9
$CELWEIGHT
370
    -1
  9
$ENDCAPS
280
     0
  9
$JOINSTYLE
280
     0
  9
$LWDISPLAY
290
     1
  9
$INSUNITS
 70
     1
  9
$HYPERLINKBASE
  1

  9
$STYLESHEET
  1

  9
$XEDIT
290
     1
  9
$CEPSNTYPE
380
     0
  9
$PSTYLEMODE
290
     1
  9
$FINGERPRINTGUID
  2
{B12EB24F-FFC3-50E8-126F-105059369FA1}
  9
$VERSIONGUID
  2
{FAEB1C32-E019-11D5-929B-00C0DF256EC4}
  9
$EXTNAMES
290
     1
  9
$PSVPSCALE
 40
0.0
  9
$OLESTARTUP
290
     0
  9
$SORTENTS
280
   127
  9
$INDEXCTL
280
     0
  9
$HIDETEXT
280
     1
  9
$XCLIPFRAME
280
     2
  9
$HALOGAP
280
     0
  9
$OBSCOLOR
 70
   257
  9
$OBSLTYPE
280
     0
  9
$INTERSECTIONDISPLAY
280
     0
  9
$INTERSECTIONCOLOR
 70
   257
  9
$DIMASSOC
280
     2
  9
$PROJECTNAME
  1

  9
$CAMERADISPLAY
290
     0
  9
$LENSLENGTH
 40
50.0
  9
$CAMERAHEIGHT
 40
0.0
  9
$STEPSPERSEC
 40
2.0
  9
$STEPSIZE
 40
6.0
  9
$3DDWFPREC
 40
2.0
  9
$PSOLWIDTH
 40
0.25
  9
$PSOLHEIGHT
 40
4.0
  9
$LOFTANG1
 40
1.570796326794897
  9
$LOFTANG2
 40
1.570796326794897
  9
$LOFTMAG1
 40
0.0
  9
$LOFTMAG2
 40
0.0
  9
$LOFTPARAM
 70
     7
  9
$LOFTNORMALS
280
     1
  9
$LATITUDE
 40
37.795
  9
$LONGITUDE
 40
-122.394
  9
$NORTHDIRECTION
 40
0.0
  9
$TIMEZONE
 70
 -8000
  9
$LIGHTGLYPHDISPLAY
280
     1
  9
$TILEMODELIGHTSYNCH
280
     1
  9
$CMATERIAL
347
3C
  9
$SOLIDHIST
280
     1
  9
$SHOWHIST
280
     1
  9
$DWFFRAME
280
     2
  9
$DGNFRAME
280
     2
  9
$REALWORLDSCALE
290
     1
  9
$INTERFERECOLOR
 62
   256
  9
$CSHADOW
280
     0
  9
$SHADOWPLANELOCATION
 40
0.0
  0
ENDSEC
  0
SECTION
  2
CLASSES
  0
CLASS
  1
ACDBDICTIONARYWDFLT
  2
AcDbDictionaryWithDefault
  3
ObjectDBX Classes
 90
        0
 91
        4
280
     0
281
     0
  0
CLASS
  1
VISUALSTYLE
  2
AcDbVisualStyle
  3
ObjectDBX Classes
 90
     4095
 91
        4
280
     0
281
     0
  0
CLASS
  1
MATERIAL
  2
AcDbMaterial
  3
ObjectDBX Classes
 90
     1153
 91
        4
280
     0
281
     0
  0
CLASS
  1
SUN
  2
AcDbSun
  3
SCENEOE
 90
     1024
 91
        4
280
     0
281
     0
  0
ENDSEC
  0
SECTION
  2
TABLES
  0
TABLE
  2
VPORT
  5
8
330
0
100
AcDbSymbolTable
 70
     1
  0
VPORT
  5
29
330
8
100
AcDbSymbolTableRecord
100
AcDbViewportTableRecord
  2
*Active
 70
     0
 10
0.0
 20
0.0
 11
1.0
 21
1.0
 12
0.0
 22
0.0
 13
0.0
 23
0.0
 14
0.5
 24
0.5
 15
0.5
 25
0.5
 16
0.0
 26
0.0
 36
1.0
 17
306.0
 27
396.0
 37
0.0
 40
792.0
 41
0.7727272727272727
 42
50.0
 43
0.0
 44
0.0
 50
0.0
 51
0.0
 71
     0
 72
   100
 73
     1
 74
     3
 75
     0
 76
     0
 77
     0
 78
     0
281
     0
 65
     1
110
0.0
120
0.0
130
0.0
111
1.0
121
0.0
131
0.0
112
0.0
122
1.0
132
0.0
 79
     0
146
0.0
 60
     3
 61
     5
292
     1
282
     1
141
0.0
142
0.0
 63
   250
361
3F
  0
ENDTAB
  0
TABLE
  2
LTYPE
  5
5
330
0
100
AcDbSymbolTable
 70
     1
  0
LTYPE
  5
14
330
5
100
AcDbSymbolTableRecord
100
AcDbLinetypeTableRecord
  2
ByBlock
 70
     0
  3

 72
    65
 73
     0
 40
0.0
  0
LTYPE
  5
15
330
5
100
AcDbSymbolTableRecord
100
AcDbLinetypeTableRecord
  2
ByLayer
 70
     0
  3

 72
    65
 73
     0
 40
0.0
  0
LTYPE
  5
16
330
5
100
AcDbSymbolTableRecord
100
AcDbLinetypeTableRecord
  2
Continuous
 70
     0
  3
Solid line
 72
    65
 73
     0
 40
0.0
  0
ENDTAB
  0
TABLE
  2
LAYER
  5
2
330
0
100
AcDbSymbolTable
 70
     2
  0
LAYER
  5
10
330
2
100
AcDbSymbolTableRecord
100
AcDbLayerTableRecord
  2
0
 70
     0
 62
     7
  6
Continuous
370
    -3
390
F
347
3E
  0
LAYER
  5
40
330
2
100
AcDbSymbolTableRecord
100
AcDbLayerTableRecord
  2
Default
 70
     0
 62
     7
  6
Continuous
370
    -3
390
F
347
3E
  0
ENDTAB
  0
TABLE
  2
STYLE
  5
3
330
0
100
AcDbSymbolTable
 70
     1
  0
STYLE
  5
11
330
3
100
AcDbSymbolTableRecord
100
AcDbTextStyleTableRecord
  2
Standard
 70
     0
 40
0.0
 41
1.0
 50
0.0
 71
     0
 42
0.2
  3
txt
  4

  0
ENDTAB
  0
TABLE
  2
VIEW
  5
6
330
0
100
AcDbSymbolTable
 70
     0
  0
ENDTAB
  0
TABLE
  2
UCS
  5
7
330
0
100
AcDbSymbolTable
 70
     0
  0
ENDTAB
  0
TABLE
  2
APPID
  5
9
330
0
100
AcDbSymbolTable
 70
     1
  0
APPID
  5
12
330
9
100
AcDbSymbolTableRecord
100
AcDbRegAppTableRecord
  2
ACAD
 70
     0
  0
ENDTAB
  0
TABLE
  2
DIMSTYLE
  5
A
330
0
100
AcDbSymbolTable
 70
     1
100
AcDbDimStyleTable
  0
DIMSTYLE
105
27
330
A
100
AcDbSymbolTableRecord
100
AcDbDimStyleTableRecord
  2
Standard
 70
     0
178
     0
340
11
  0
ENDTAB
  0
TABLE
  2
BLOCK_RECORD
  5
1
330
0
100
AcDbSymbolTable
 70
   141
  0
BLOCK_RECORD
  5
1F
330
1
100
AcDbSymbolTableRecord
100
AcDbBlockTableRecord
  2
*Model_Space
340
22
 70
     0
280
     1
281
     0
  0
BLOCK_RECORD
  5
1B
330
1
100
AcDbSymbolTableRecord
100
AcDbBlockTableRecord
  2
*Paper_Space
340
1E
 70
     0
280
     1
281
     0
  0
BLOCK_RECORD
  5
23
330
1
100
AcDbSymbolTableRecord
100
AcDbBlockTableRecord
  2
*Paper_Space0
340
26
 70
     0
280
     1
281
     0
  0
BLOCK_RECORD
  5
41
330
1
100
AcDbSymbolTableRecord
100
AcDbBlockTableRecord
  2
block 2
340
0
102
{BLKREFS
331
42
102
}
 70
     0
280
     1
281
     0
  0
BLOCK_RECORD
  5
46
330
1
100
AcDbSymbolTableRecord
100
AcDbBlockTableRecord
  2
block 3
340
0
102
{BLKREFS
331
47
102
}
 70
     0
280
     1
281
     0
  0
BLOCK_RECORD
  5
4E
330
1
100
AcDbSymbolTableRecord
100
AcDbBlockTableRecord
  2
block 4
340
0
102
{BLKREFS
331
4F
102
}
 70
     0
280
     1
281
     0
  0
BLOCK_RECORD
  5
53
330
1
100
AcDbSymbolTableRecord
100
AcDbBlockTableRecord
  2
block 5
340
0
102
{BLKREFS
331
54
102
}
 70
     0
280
     1
281
     0
  0
BLOCK_RECORD
  5
5B
330
1
100
AcDbSymbolTableRecord
100
AcDbBlockTableRecord
  2
block 6
340
0
102
{BLKREFS
331
5C
102
}
 70
     0
280
     1
281
     0
  0
BLOCK_RECORD
  5
60
330
1
100
AcDbSymbolTableRecord
100
AcDbBlockTableRecord
  2
block 7
340
0
102
{BLKREFS
331
61
102
}
 70
     0
280
     1
281
     0
  0
BLOCK_RECORD
  5
68
330
1
100
AcDbSymbolTableRecord
100
AcDbBlockTableRecord
  2
block 8
340
0
102
{BLKREFS
331
69
102
}
 70
     0
280
     1
281
     0
  0
BLOCK_RECORD
  5
6D
330
1
100
AcDbSymbolTableRecord
100
AcDbBlockTableRecord
  2
block 9
340
0
102
{BLKREFS
331
6E
102
}
 70
     0
280
     1
281
     0
  0
BLOCK_RECORD
  5
75
330
1
100
AcDbSymbolTableRecord
100
AcDbBlockTableRecord
  2
block 10
340
0
102
{BLKREFS
331
76
102
}
 70
     0
280
     1
281
     0
  0
BLOCK_RECORD
  5
7D
330
1
100
AcDbSymbolTableRecord
100
AcDbBlockTableRecord
  2
block 11
340
0
102
{BLKREFS
331
7E
102
}
 70
     0
280
     1
281
     0
  0
BLOCK_RECORD
  5
85
330
1
100
AcDbSymbolTableRecord
100
AcDbBlockTableRecord
  2
block 12
340
0
102
{BLKREFS
331
86
102
}
 70
     0
280
     1
281
     0
  0
BLOCK_RECORD
  5
8A
330
1
100
AcDbSymbolTableRecord
100
AcDbBlockTableRecord
  2
block 13
340
0
102
{BLKREFS
331
8B
102
}
 70
     0
280
     1
281
     0
  0
BLOCK_RECORD
  5
92
330
1
100
AcDbSymbolTableRecord
100
AcDbBlockTableRecord
  2
block 14
340
0
102
{BLKREFS
331
93
102
}
 70
     0
280
     1
281
     0
  0
BLOCK_RECORD
  5
97
330
1
100
AcDbSymbolTableRecord
100
AcDbBlockTableRecord
  2
block 15
340
0
102
{BLKREFS
331
98
102
}
 70
     0
280
     1
281
     0
  0
BLOCK_RECORD
  5
9F
330
1
100
AcDbSymbolTableRecord
100
AcDbBlockTableRecord
  2
block 16
340
0
102
{BLKREFS
331
A0
102
}
 70
     0
280
     1
281
     0
  0
BLOCK_RECORD
  5
A4
330
1
100
AcDbSymbolTableRecord
100
AcDbBlockTableRecord
  2
block 17
340
0
102
{BLKREFS
331
A5
102
}
 70
     0
280
     1
281
     0
  0
BLOCK_RECORD
  5
AC
330
1
100
AcDbSymbolTableRecord
100
AcDbBlockTableRecord
  2
block 18
340
0
102
{BLKREFS
331
AD
102
}
 70
     0
280
     1
281
     0
  0
BLOCK_RECORD
  5
B1
330
1
100
AcDbSymbolTableRecord
100
AcDbBlockTableRecord
  2
block 19
340
0
102
{BLKREFS
331
B2
102
}
 70
     0
280
     1
281
     0
  0
BLOCK_RECORD
  5
B9
330
1
100
AcDbSymbolTableRecord
100
AcDbBlockTableRecord
  2
block 20
340
0
102
{BLKREFS
331
BA
102
}
 70
     0
280
     1
281
     0
  0
BLOCK_RECORD
  5
BE
330
1
100
AcDbSymbolTableRecord
100
AcDbBlockTableRecord
  2
block 21
340
0
102
{BLKREFS
331
BF
102
}
 70
     0
280
     1
281
     0
  0
BLOCK_RECORD
  5
C6
330
1
100
AcDbSymbolTableRecord
100
AcDbBlockTableRecord
  2
block 22
340
0
102
{BLKREFS
331
C7
102
}
 70
     0
280
     1
281
     0
  0
BLOCK_RECORD
  5
CB
330
1
100
AcDbSymbolTableRecord
100
AcDbBlockTableRecord
  2
block 23
340
0
102
{BLKREFS
331
CC
102
}
 70
     0
280
     1
281
     0
  0
BLOCK_RECORD
  5
D3
330
1
100
AcDbSymbolTableRecord
100
AcDbBlockTableRecord
  2
block 24
340
0
102
{BLKREFS
331
D4
102
}
 70
     0
280
     1
281
     0
  0
BLOCK_RECORD
  5
DB
330
1
100
AcDbSymbolTableRecord
100
AcDbBlockTableRecord
  2
block 25
340
0
102
{BLKREFS
331
DC
102
}
 70
     0
280
     1
281
     0
  0
BLOCK_RECORD
  5
E3
330
1
100
AcDbSymbolTableRecord
100
AcDbBlockTableRecord
  2
block 26
340
0
102
{BLKREFS
331
E4
102
}
 70
     0
280
     1
281
     0
  0
BLOCK_RECORD
  5
E8
330
1
100
AcDbSymbolTableRecord
100
AcDbBlockTableRecord
  2
block 27
340
0
102
{BLKREFS
331
E9
102
}
 70
     0
280
     1
281
     0
  0
BLOCK_RECORD
  5
F0
330
1
100
AcDbSymbolTableRecord
100
AcDbBlockTableRecord
  2
block 28
340
0
102
{BLKREFS
331
F1
102
}
 70
     0
280
     1
281
     0
  0
BLOCK_RECORD
  5
F5
330
1
100
AcDbSymbolTableRecord
100
AcDbBlockTableRecord
  2
block 29
340
0
102
{BLKREFS
331
F6
102
}
 70
     0
280
     1
281
     0
  0
BLOCK_RECORD
  5
FD
330
1
100
AcDbSymbolTableRecord
100
AcDbBlockTableRecord
  2
block 30
340
0
102
{BLKREFS
331
FE
102
}
 70
     0
280
     1
281
     0
  0
BLOCK_RECORD
  5
102
330
1
100
AcDbSymbolTableRecord
100
AcDbBlockTableRecord
  2
block 31
340
0
102
{BLKREFS
331
103
102
}
 70
     0
280
     1
281
     0
  0
BLOCK_RECORD
  5
10A
330
1
100
AcDbSymbolTableRecord
100
AcDbBlockTableRecord
  2
block 32
340
0
102
{BLKREFS
331
10B
102
}
 70
     0
280
     1
281
     0
  0
BLOCK_RECORD
  5
10F
330
1
100
AcDbSymbolTableRecord
100
AcDbBlockTableRecord
  2
block 33
340
0
102
{BLKREFS
331
110
102
}
 70
     0
280
     1
281
     0
  0
BLOCK_RECORD
  5
117
330
1
100
AcDbSymbolTableRecord
100
AcDbBlockTableRecord
  2
block 34
340
0
102
{BLKREFS
331
118
102
}
 70
     0
280
     1
281
     0
  0
BLOCK_RECORD
  5
11C
330
1
100
AcDbSymbolTableRecord
100
AcDbBlockTableRecord
  2
block 35
340
0
102
{BLKREFS
331
11D
102
}
 70
     0
280
     1
281
     0
  0
BLOCK_RECORD
  5
124
330
1
100
AcDbSymbolTableRecord
100
AcDbBlockTableRecord
  2
block 36
340
0
102
{BLKREFS
331
125
102
}
 70
     0
280
     1
281
     0
  0
BLOCK_RECORD
  5
129
330
1
100
AcDbSymbolTableRecord
100
AcDbBlockTableRecord
  2
block 37
340
0
102
{BLKREFS
331
12A
102
}
 70
     0
280
     1
281
     0
  0
BLOCK_RECORD
  5
131
330
1
100
AcDbSymbolTableRecord
100
AcDbBlockTableRecord
  2
block 38
340
0
102
{BLKREFS
331
132
102
}
 70
     0
280
     1
281
     0
  0
BLOCK_RECORD
  5
139
330
1
100
AcDbSymbolTableRecord
100
AcDbBlockTableRecord
  2
block 39
340
0
102
{BLKREFS
331
13A
102
}
 70
     0
280
     1
281
     0
  0
BLOCK_RECORD
  5
141
330
1
100
AcDbSymbolTableRecord
100
AcDbBlockTableRecord
  2
block 40
340
0
102
{BLKREFS
331
142
102
}
 70
     0
280
     1
281
     0
  0
BLOCK_RECORD
  5
146
330
1
100
AcDbSymbolTableRecord
100
AcDbBlockTableRecord
  2
block 41
340
0
102
{BLKREFS
331
147
102
}
 70
     0
280
     1
281
     0
  0
BLOCK_RECORD
  5
14E
330
1
100
AcDbSymbolTableRecord
100
AcDbBlockTableRecord
  2
block 42
340
0
102
{BLKREFS
331
14F
102
}
 70
     0
280
     1
281
     0
  0
BLOCK_RECORD
  5
153
330
1
100
AcDbSymbolTableRecord
100
AcDbBlockTableRecord
  2
block 43
340
0
102
{BLKREFS
331
154
102
}
 70
     0
280
     1
281
     0
  0
BLOCK_RECORD
  5
15B
330
1
100
AcDbSymbolTableRecord
100
AcDbBlockTableRecord
  2
block 44
340
0
102
{BLKREFS
331
15C
102
}
 70
     0
280
     1
281
     0
  0
BLOCK_RECORD
  5
160
330
1
100
AcDbSymbolTableRecord
100
AcDbBlockTableRecord
  2
block 45
340
0
102
{BLKREFS
331
161
102
}
 70
     0
280
     1
281
     0
  0
BLOCK_RECORD
  5
168
330
1
100
AcDbSymbolTableRecord
100
AcDbBlockTableRecord
  2
block 46
340
0
102
{BLKREFS
331
169
102
}
 70
     0
280
     1
281
     0
  0
BLOCK_RECORD
  5
16D
330
1
100
AcDbSymbolTableRecord
100
AcDbBlockTableRecord
  2
block 47
340
0
102
{BLKREFS
331
16E
102
}
 70
     0
280
     1
281
     0
  0
BLOCK_RECORD
  5
175
330
1
100
AcDbSymbolTableRecord
100
AcDbBlockTableRecord
  2
block 48
340
0
102
{BLKREFS
331
176
102
}
 70
     0
280
     1
281
     0
  0
BLOCK_RECORD
  5
17A
330
1
100
AcDbSymbolTableRecord
100
AcDbBlockTableRecord
  2
block 49
340
0
102
{BLKREFS
331
17B
102
}
 70
     0
280
     1
281
     0
  0
BLOCK_RECORD
  5
182
330
1
100
AcDbSymbolTableRecord
100
AcDbBlockTableRecord
  2
block 50
340
0
102
{BLKREFS
331
183
102
}
 70
     0
280
     1
281
     0
  0
BLOCK_RECORD
  5
187
330
1
100
AcDbSymbolTableRecord
100
AcDbBlockTableRecord
  2
block 51
340
0
102
{BLKREFS
331
188
102
}
 70
     0
280
     1
281
     0
  0
BLOCK_RECORD
  5
18F
330
1
100
AcDbSymbolTableRecord
100
AcDbBlockTableRecord
  2
block 52
340
0
102
{BLKREFS
331
190
102
}
 70
     0
280
     1
281
     0
  0
BLOCK_RECORD
  5
197
330
1
100
AcDbSymbolTableRecord
100
AcDbBlockTableRecord
  2
block 53
340
0
102
{BLKREFS
331
198
102
}
 70
     0
280
     1
281
     0
  0
BLOCK_RECORD
  5
19F
330
1
100
AcDbSymbolTableRecord
100
AcDbBlockTableRecord
  2
block 54
340
0
102
{BLKREFS
331
1A0
102
}
 70
     0
280
     1
281
     0
  0
BLOCK_RECORD
  5
1A4
330
1
100
AcDbSymbolTableRecord
100
AcDbBlockTableRecord
  2
block 55
340
0
102
{BLKREFS
331
1A5
102
}
 70
     0
280
     1
281
     0
  0
BLOCK_RECORD
  5
1AC
330
1
100
AcDbSymbolTableRecord
100
AcDbBlockTableRecord
  2
block 56
340
0
102
{BLKREFS
331
1AD
102
}
 70
     0
280
     1
281
     0
  0
BLOCK_RECORD
  5
1B1
330
1
100
AcDbSymbolTableRecord
100
AcDbBlockTableRecord
  2
block 57
340
0
102
{BLKREFS
331
1B2
102
}
 70
     0
280
     1
281
     0
  0
BLOCK_RECORD
  5
1B9
330
1
100
AcDbSymbolTableRecord
100
AcDbBlockTableRecord
  2
block 58
340
0
102
{BLKREFS
331
1BA
102
}
 70
     0
280
     1
281
     0
  0
BLOCK_RECORD
  5
1BE
330
1
100
AcDbSymbolTableRecord
100
AcDbBlockTableRecord
  2
block 59
340
0
102
{BLKREFS
331
1BF
102
}
 70
     0
280
     1
281
     0
  0
BLOCK_RECORD
  5
1C6
330
1
100
AcDbSymbolTableRecord
100
AcDbBlockTableRecord
  2
block 60
340
0
102
{BLKREFS
331
1C7
102
}
 70
     0
280
     1
281
     0
  0
BLOCK_RECORD
  5
1CB
330
1
100
AcDbSymbolTableRecord
100
AcDbBlockTableRecord
  2
block 61
340
0
102
{BLKREFS
331
1CC
102
}
 70
     0
280
     1
281
     0
  0
BLOCK_RECORD
  5
1D3
330
1
100
AcDbSymbolTableRecord
100
AcDbBlockTableRecord
  2
block 62
340
0
102
{BLKREFS
331
1D4
102
}
 70
     0
280
     1
281
     0
  0
BLOCK_RECORD
  5
1D8
330
1
100
AcDbSymbolTableRecord
100
AcDbBlockTableRecord
  2
block 63
340
0
102
{BLKREFS
331
1D9
102
}
 70
     0
280
     1
281
     0
  0
BLOCK_RECORD
  5
1E0
330
1
100
AcDbSymbolTableRecord
100
AcDbBlockTableRecord
  2
block 64
340
0
102
{BLKREFS
331
1E1
102
}
 70
     0
280
     1
281
     0
  0
BLOCK_RECORD
  5
1E8
330
1
100
AcDbSymbolTableRecord
100
AcDbBlockTableRecord
  2
block 65
340
0
102
{BLKREFS
331
1E9
102
}
 70
     0
280
     1
281
     0
  0
BLOCK_RECORD
  5
1F0
330
1
100
AcDbSymbolTableRecord
100
AcDbBlockTableRecord
  2
block 66
340
0
102
{BLKREFS
331
1F1
102
}
 70
     0
280
     1
281
     0
  0
BLOCK_RECORD
  5
1F5
330
1
100
AcDbSymbolTableRecord
100
AcDbBlockTableRecord
  2
block 67
340
0
102
{BLKREFS
331
1F6
102
}
 70
     0
280
     1
281
     0
  0
BLOCK_RECORD
  5
1FD
330
1
100
AcDbSymbolTableRecord
100
AcDbBlockTableRecord
  2
block 68
340
0
102
{BLKREFS
331
1FE
102
}
 70
     0
280
     1
281
     0
  0
BLOCK_RECORD
  5
202
330
1
100
AcDbSymbolTableRecord
100
AcDbBlockTableRecord
  2
block 69
340
0
102
{BLKREFS
331
203
102
}
 70
     0
280
     1
281
     0
  0
BLOCK_RECORD
  5
20A
330
1
100
AcDbSymbolTableRecord
100
AcDbBlockTableRecord
  2
block 70
340
0
102
{BLKREFS
331
20B
102
}
 70
     0
280
     1
281
     0
  0
BLOCK_RECORD
  5
20F
330
1
100
AcDbSymbolTableRecord
100
AcDbBlockTableRecord
  2
block 71
340
0
102
{BLKREFS
331
210
102
}
 70
     0
280
     1
281
     0
  0
BLOCK_RECORD
  5
217
330
1
100
AcDbSymbolTableRecord
100
AcDbBlockTableRecord
  2
block 72
340
0
102
{BLKREFS
331
218
102
}
 70
     0
280
     1
281
     0
  0
BLOCK_RECORD
  5
21C
330
1
100
AcDbSymbolTableRecord
100
AcDbBlockTableRecord
  2
block 73
340
0
102
{BLKREFS
331
21D
102
}
 70
     0
280
     1
281
     0
  0
BLOCK_RECORD
  5
224
330
1
100
AcDbSymbolTableRecord
100
AcDbBlockTableRecord
  2
block 74
340
0
102
{BLKREFS
331
225
102
}
 70
     0
280
     1
281
     0
  0
BLOCK_RECORD
  5
229
330
1
100
AcDbSymbolTableRecord
100
AcDbBlockTableRecord
  2
block 75
340
0
102
{BLKREFS
331
22A
102
}
 70
     0
280
     1
281
     0
  0
BLOCK_RECORD
  5
231
330
1
100
AcDbSymbolTableRecord
100
AcDbBlockTableRecord
  2
block 76
340
0
102
{BLKREFS
331
232
102
}
 70
     0
280
     1
281
     0
  0
BLOCK_RECORD
  5
236
330
1
100
AcDbSymbolTableRecord
100
AcDbBlockTableRecord
  2
block 77
340
0
102
{BLKREFS
331
237
102
}
 70
     0
280
     1
281
     0
  0
BLOCK_RECORD
  5
23E
330
1
100
AcDbSymbolTableRecord
100
AcDbBlockTableRecord
  2
block 78
340
0
102
{BLKREFS
331
23F
102
}
 70
     0
280
     1
281
     0
  0
BLOCK_RECORD
  5
246
330
1
100
AcDbSymbolTableRecord
100
AcDbBlockTableRecord
  2
block 79
340
0
102
{BLKREFS
331
247
102
}
 70
     0
280
     1
281
     0
  0
BLOCK_RECORD
  5
24E
330
1
100
AcDbSymbolTableRecord
100
AcDbBlockTableRecord
  2
block 80
340
0
102
{BLKREFS
331
24F
102
}
 70
     0
280
     1
281
     0
  0
BLOCK_RECORD
  5
253
330
1
100
AcDbSymbolTableRecord
100
AcDbBlockTableRecord
  2
block 81
340
0
102
{BLKREFS
331
254
102
}
 70
     0
280
     1
281
     0
  0
BLOCK_RECORD
  5
25B
330
1
100
AcDbSymbolTableRecord
100
AcDbBlockTableRecord
  2
block 82
340
0
102
{BLKREFS
331
25C
102
}
 70
     0
280
     1
281
     0
  0
BLOCK_RECORD
  5
260
330
1
100
AcDbSymbolTableRecord
100
AcDbBlockTableRecord
  2
block 83
340
0
102
{BLKREFS
331
261
102
}
 70
     0
280
     1
281
     0
  0
BLOCK_RECORD
  5
268
330
1
100
AcDbSymbolTableRecord
100
AcDbBlockTableRecord
  2
block 84
340
0
102
{BLKREFS
331
269
102
}
 70
     0
280
     1
281
     0
  0
BLOCK_RECORD
  5
26D
330
1
100
AcDbSymbolTableRecord
100
AcDbBlockTableRecord
  2
block 85
340
0
102
{BLKREFS
331
26E
102
}
 70
     0
280
     1
281
     0
  0
BLOCK_RECORD
  5
275
330
1
100
AcDbSymbolTableRecord
100
AcDbBlockTableRecord
  2
block 86
340
0
102
{BLKREFS
331
276
102
}
 70
     0
280
     1
281
     0
  0
BLOCK_RECORD
  5
27A
330
1
100
AcDbSymbolTableRecord
100
AcDbBlockTableRecord
  2
block 87
340
0
102
{BLKREFS
331
27B
102
}
 70
     0
280
     1
281
     0
  0
BLOCK_RECORD
  5
282
330
1
100
AcDbSymbolTableRecord
100
AcDbBlockTableRecord
  2
block 88
340
0
102
{BLKREFS
331
283
102
}
 70
     0
280
     1
281
     0
  0
BLOCK_RECORD
  5
287
330
1
100
AcDbSymbolTableRecord
100
AcDbBlockTableRecord
  2
block 89
340
0
102
{BLKREFS
331
288
102
}
 70
     0
280
     1
281
     0
  0
BLOCK_RECORD
  5
28F
330
1
100
AcDbSymbolTableRecord
100
AcDbBlockTableRecord
  2
block 90
340
0
102
{BLKREFS
331
290
102
}
 70
     0
280
     1
281
     0
  0
BLOCK_RECORD
  5
294
330
1
100
AcDbSymbolTableRecord
100
AcDbBlockTableRecord
  2
block 91
340
0
102
{BLKREFS
331
295
102
}
 70
     0
280
     1
281
     0
  0
BLOCK_RECORD
  5
29C
330
1
100
AcDbSymbolTableRecord
100
AcDbBlockTableRecord
  2
block 92
340
0
102
{BLKREFS
331
29D
102
}
 70
     0
280
     1
281
     0
  0
BLOCK_RECORD
  5
2A1
330
1
100
AcDbSymbolTableRecord
100
AcDbBlockTableRecord
  2
block 93
340
0
102
{BLKREFS
331
2A2
102
}
 70
     0
280
     1
281
     0
  0
BLOCK_RECORD
  5
2A9
330
1
100
AcDbSymbolTableRecord
100
AcDbBlockTableRecord
  2
block 94
340
0
102
{BLKREFS
331
2AA
102
}
 70
     0
280
     1
281
     0
  0
BLOCK_RECORD
  5
2B1
330
1
100
AcDbSymbolTableRecord
100
AcDbBlockTableRecord
  2
block 95
340
0
102
{BLKREFS
331
2B2
102
}
 70
     0
280
     1
281
     0
  0
BLOCK_RECORD
  5
2B9
330
1
100
AcDbSymbolTableRecord
100
AcDbBlockTableRecord
  2
block 96
340
0
102
{BLKREFS
331
2BA
102
}
 70
     0
280
     1
281
     0
  0
BLOCK_RECORD
  5
2BE
330
1
100
AcDbSymbolTableRecord
100
AcDbBlockTableRecord
  2
block 97
340
0
102
{BLKREFS
331
2BF
102
}
 70
     0
280
     1
281
     0
  0
BLOCK_RECORD
  5
2C6
330
1
100
AcDbSymbolTableRecord
100
AcDbBlockTableRecord
  2
block 98
340
0
102
{BLKREFS
331
2C7
102
}
 70
     0
280
     1
281
     0
  0
BLOCK_RECORD
  5
2CB
330
1
100
AcDbSymbolTableRecord
100
AcDbBlockTableRecord
  2
block 99
340
0
102
{BLKREFS
331
2CC
102
}
 70
     0
280
     1
281
     0
  0
BLOCK_RECORD
  5
2D3
330
1
100
AcDbSymbolTableRecord
100
AcDbBlockTableRecord
  2
block 100
340
0
102
{BLKREFS
331
2D4
102
}
 70
     0
280
     1
281
     0
  0
BLOCK_RECORD
  5
2D8
330
1
100
AcDbSymbolTableRecord
100
AcDbBlockTableRecord
  2
block 101
340
0
102
{BLKREFS
331
2D9
102
}
 70
     0
280
     1
281
     0
  0
BLOCK_RECORD
  5
2E0
330
1
100
AcDbSymbolTableRecord
100
AcDbBlockTableRecord
  2
block 102
340
0
102
{BLKREFS
331
2E1
102
}
 70
     0
280
     1
281
     0
  0
BLOCK_RECORD
  5
2E5
330
1
100
AcDbSymbolTableRecord
100
AcDbBlockTableRecord
  2
block 103
340
0
102
{BLKREFS
331
2E6
102
}
 70
     0
280
     1
281
     0
  0
BLOCK_RECORD
  5
2ED
330
1
100
AcDbSymbolTableRecord
100
AcDbBlockTableRecord
  2
block 104
340
0
102
{BLKREFS
331
2EE
102
}
 70
     0
280
     1
281
     0
  0
BLOCK_RECORD
  5
2F2
330
1
100
AcDbSymbolTableRecord
100
AcDbBlockTableRecord
  2
block 105
340
0
102
{BLKREFS
331
2F3
102
}
 70
     0
280
     1
281
     0
  0
BLOCK_RECORD
  5
2FA
330
1
100
AcDbSymbolTableRecord
100
AcDbBlockTableRecord
  2
block 106
340
0
102
{BLKREFS
331
2FB
102
}
 70
     0
280
     1
281
     0
  0
BLOCK_RECORD
  5
2FF
330
1
100
AcDbSymbolTableRecord
100
AcDbBlockTableRecord
  2
block 107
340
0
102
{BLKREFS
331
300
102
}
 70
     0
280
     1
281
     0
  0
BLOCK_RECORD
  5
307
330
1
100
AcDbSymbolTableRecord
100
AcDbBlockTableRecord
  2
block 108
340
0
102
{BLKREFS
331
308
102
}
 70
     0
280
     1
281
     0
  0
BLOCK_RECORD
  5
30F
330
1
100
AcDbSymbolTableRecord
100
AcDbBlockTableRecord
  2
block 109
340
0
102
{BLKREFS
331
310
102
}
 70
     0
280
     1
281
     0
  0
BLOCK_RECORD
  5
317
330
1
100
AcDbSymbolTableRecord
100
AcDbBlockTableRecord
  2
block 110
340
0
102
{BLKREFS
331
318
102
}
 70
     0
280
     1
281
     0
  0
BLOCK_RECORD
  5
31C
330
1
100
AcDbSymbolTableRecord
100
AcDbBlockTableRecord
  2
block 111
340
0
102
{BLKREFS
331
31D
102
}
 70
     0
280
     1
281
     0
  0
BLOCK_RECORD
  5
324
330
1
100
AcDbSymbolTableRecord
100
AcDbBlockTableRecord
  2
block 112
340
0
102
{BLKREFS
331
325
102
}
 70
     0
280
     1
281
     0
  0
BLOCK_RECORD
  5
329
330
1
100
AcDbSymbolTableRecord
100
AcDbBlockTableRecord
  2
block 113
340
0
102
{BLKREFS
331
32A
102
}
 70
     0
280
     1
281
     0
  0
BLOCK_RECORD
  5
331
330
1
100
AcDbSymbolTableRecord
100
AcDbBlockTableRecord
  2
block 114
340
0
102
{BLKREFS
331
332
102
}
 70
     0
280
     1
281
     0
  0
BLOCK_RECORD
  5
336
330
1
100
AcDbSymbolTableRecord
100
AcDbBlockTableRecord
  2
block 115
340
0
102
{BLKREFS
331
337
102
}
 70
     0
280
     1
281
     0
  0
BLOCK_RECORD
  5
33E
330
1
100
AcDbSymbolTableRecord
100
AcDbBlockTableRecord
  2
block 116
340
0
102
{BLKREFS
331
33F
102
}
 70
     0
280
     1
281
     0
  0
BLOCK_RECORD
  5
343
330
1
100
AcDbSymbolTableRecord
100
AcDbBlockTableRecord
  2
block 117
340
0
102
{BLKREFS
331
344
102
}
 70
     0
280
     1
281
     0
  0
BLOCK_RECORD
  5
34B
330
1
100
AcDbSymbolTableRecord
100
AcDbBlockTableRecord
  2
block 118
340
0
102
{BLKREFS
331
34C
102
}
 70
     0
280
     1
281
     0
  0
BLOCK_RECORD
  5
350
330
1
100
AcDbSymbolTableRecord
100
AcDbBlockTableRecord
  2
block 119
340
0
102
{BLKREFS
331
351
102
}
 70
     0
280
     1
281
     0
  0
BLOCK_RECORD
  5
358
330
1
100
AcDbSymbolTableRecord
100
AcDbBlockTableRecord
  2
block 120
340
0
102
{BLKREFS
331
359
102
}
 70
     0
280
     1
281
     0
  0
BLOCK_RECORD
  5
35D
330
1
100
AcDbSymbolTableRecord
100
AcDbBlockTableRecord
  2
block 121
340
0
102
{BLKREFS
331
35E
102
}
 70
     0
280
     1
281
     0
  0
BLOCK_RECORD
  5
365
330
1
100
AcDbSymbolTableRecord
100
AcDbBlockTableRecord
  2
block 122
340
0
102
{BLKREFS
331
366
102
}
 70
     0
280
     1
281
     0
  0
BLOCK_RECORD
  5
36D
330
1
100
AcDbSymbolTableRecord
100
AcDbBlockTableRecord
  2
block 123
340
0
102
{BLKREFS
331
36E
102
}
 70
     0
280
     1
281
     0
  0
BLOCK_RECORD
  5
375
330
1
100
AcDbSymbolTableRecord
100
AcDbBlockTableRecord
  2
block 124
340
0
102
{BLKREFS
331
376
102
}
 70
     0
280
     1
281
     0
  0
BLOCK_RECORD
  5
37A
330
1
100
AcDbSymbolTableRecord
100
AcDbBlockTableRecord
  2
block 125
340
0
102
{BLKREFS
331
37B
102
}
 70
     0
280
     1
281
     0
  0
BLOCK_RECORD
  5
382
330
1
100
AcDbSymbolTableRecord
100
AcDbBlockTableRecord
  2
block 126
340
0
102
{BLKREFS
331
383
102
}
 70
     0
280
     1
281
     0
  0
BLOCK_RECORD
  5
387
330
1
100
AcDbSymbolTableRecord
100
AcDbBlockTableRecord
  2
block 127
340
0
102
{BLKREFS
331
388
102
}
 70
     0
280
     1
281
     0
  0
BLOCK_RECORD
  5
38F
330
1
100
AcDbSymbolTableRecord
100
AcDbBlockTableRecord
  2
block 128
340
0
102
{BLKREFS
331
390
102
}
 70
     0
280
     1
281
     0
  0
BLOCK_RECORD
  5
394
330
1
100
AcDbSymbolTableRecord
100
AcDbBlockTableRecord
  2
block 129
340
0
102
{BLKREFS
331
395
102
}
 70
     0
280
     1
281
     0
  0
BLOCK_RECORD
  5
39C
330
1
100
AcDbSymbolTableRecord
100
AcDbBlockTableRecord
  2
block 130
340
0
102
{BLKREFS
331
39D
102
}
 70
     0
280
     1
281
     0
  0
BLOCK_RECORD
  5
3A1
330
1
100
AcDbSymbolTableRecord
100
AcDbBlockTableRecord
  2
block 131
340
0
102
{BLKREFS
331
3A2
102
}
 70
     0
280
     1
281
     0
  0
BLOCK_RECORD
  5
3A9
330
1
100
AcDbSymbolTableRecord
100
AcDbBlockTableRecord
  2
block 132
340
0
102
{BLKREFS
331
3AA
102
}
 70
     0
280
     1
281
     0
  0
BLOCK_RECORD
  5
3AE
330
1
100
AcDbSymbolTableRecord
100
AcDbBlockTableRecord
  2
block 133
340
0
102
{BLKREFS
331
3AF
102
}
 70
     0
280
     1
281
     0
  0
BLOCK_RECORD
  5
3B6
330
1
100
AcDbSymbolTableRecord
100
AcDbBlockTableRecord
  2
block 134
340
0
102
{BLKREFS
331
3B7
102
}
 70
     0
280
     1
281
     0
  0
BLOCK_RECORD
  5
3BB
330
1
100
AcDbSymbolTableRecord
100
AcDbBlockTableRecord
  2
block 135
340
0
102
{BLKREFS
331
3BC
102
}
 70
     0
280
     1
281
     0
  0
BLOCK_RECORD
  5
3C3
330
1
100
AcDbSymbolTableRecord
100
AcDbBlockTableRecord
  2
block 136
340
0
102
{BLKREFS
331
3C4
102
}
 70
     0
280
     1
281
     0
  0
BLOCK_RECORD
  5
3CB
330
1
100
AcDbSymbolTableRecord
100
AcDbBlockTableRecord
  2
block 137
340
0
102
{BLKREFS
331
3CC
102
}
 70
     0
280
     1
281
     0
  0
BLOCK_RECORD
  5
3D3
330
1
100
AcDbSymbolTableRecord
100
AcDbBlockTableRecord
  2
block 138
340
0
102
{BLKREFS
331
3D4
102
}
 70
     0
280
     1
281
     0
  0
BLOCK_RECORD
  5
3D8
330
1
100
AcDbSymbolTableRecord
100
AcDbBlockTableRecord
  2
block 139
340
0
102
{BLKREFS
331
3D9
102
}
 70
     0
280
     1
281
     0
  0
BLOCK_RECORD
  5
3E0
330
1
100
AcDbSymbolTableRecord
100
AcDbBlockTableRecord
  2
block 140
340
0
102
{BLKREFS
331
3E1
102
}
 70
     0
280
     1
281
     0
  0
BLOCK_RECORD
  5
3E5
330
1
100
AcDbSymbolTableRecord
100
AcDbBlockTableRecord
  2
block 141
340
0
102
{BLKREFS
331
3E6
102
}
 70
     0
280
     1
281
     0
  0
ENDTAB
  0
ENDSEC
  0
SECTION
  2
BLOCKS
  0
BLOCK
  5
20
330
1F
100
AcDbEntity
  8
0
100
AcDbBlockBegin
  2
*Model_Space
 70
     0
 10
0.0
 20
0.0
 30
0.0
  3
*Model_Space
  1

  0
ENDBLK
  5
21
330
1F
100
AcDbEntity
  8
0
100
AcDbBlockEnd
  0
BLOCK
  5
1C
330
1B
100
AcDbEntity
 67
     1
  8
0
100
AcDbBlockBegin
  2
*Paper_Space
 70
     0
 10
0.0
 20
0.0
 30
0.0
  3
*Paper_Space
  1

  0
ENDBLK
  5
1D
330
1B
100
AcDbEntity
 67
     1
  8
0
100
AcDbBlockEnd
  0
BLOCK
  5
24
330
23
100
AcDbEntity
  8
0
100
AcDbBlockBegin
  2
*Paper_Space0
 70
     0
 10
0.0
 20
0.0
 30
0.0
  3
*Paper_Space0
  1

  0
ENDBLK
  5
25
330
23
100
AcDbEntity
  8
0
100
AcDbBlockEnd
  0
BLOCK
  5
43
330
41
100
AcDbEntity
  8
0
100
AcDbBlockBegin
  2
block 2
 70
     0
 10
0.0
 20
0.0
 30
0.0
  3
block 2
  1

  0
SPLINE
  5
45
330
41
100
AcDbEntity
  8
Default
 62
     7
420
 16777215
370
    25
100
AcDbSpline
210
0.0
220
0.0
230
1.0
 70
     8
 71
     3
 72
     8
 73
     4
 74
     0
 42
0.0000000001
 43
0.0000000001
 12
1.0
 22
0.0
 32
0.0
 13
1.0
 23
0.0
 33
0.0
 40
0.0
 40
0.0
 40
0.0
 40
0.0
 40
1.0
 40
1.0
 40
1.0
 40
1.0
 10
270.5000004425419
 20
310.5
 30
0.0
 10
269.9477156927114
 20
310.5
 30
0.0
 10
269.5000004425419
 20
310.0522847498305
 30
0.0
 10
269.5000004425419
 20
309.5
 30
0.0
  0
ENDBLK
  5
44
330
41
100
AcDbEntity
  8
0
100
AcDbBlockEnd
  0
BLOCK
  5
48
330
46
100
AcDbEntity
  8
0
100
AcDbBlockBegin
  2
block 3
 70
     0
 10
0.0
 20
0.0
 30
0.0
  3
block 3
  1

  0
POLYLINE
  5
4A
330
46
100
AcDbEntity
  8
Default
 62
     7
420
 16777215
370
    25
100
AcDb2dPolyline
 66
     1
 10
0.0
 20
0.0
 30
0.0
  0
VERTEX
  5
4B
330
4A
100
AcDbEntity
  8
Default
 62
     7
420
 16777215
370
    25
100
AcDbVertex
100
AcDb2dVertex
 10
270.5000004425419
 20
310.5
 30
0.0
  0
VERTEX
  5
4C
330
4A
100
AcDbEntity
  8
Default
 62
     7
420
 16777215
370
    25
100
AcDbVertex
100
AcDb2dVertex
 10
290.5000004425419
 20
310.5
 30
0.0
  0
SEQEND
  5
4D
330
4A
100
AcDbEntity
  8
Default
 62
     7
420
 16777215
370
    25
  0
ENDBLK
  5
49
330
46
100
AcDbEntity
  8
0
100
AcDbBlockEnd
  0
BLOCK
  5
50
330
4E
100
AcDbEntity
  8
0
100
AcDbBlockBegin
  2
block 4
 70
     0
 10
0.0
 20
0.0
 30
0.0
  3
block 4
  1

  0
SPLINE
  5
52
330
4E
100
AcDbEntity
  8
Default
 62
     7
420
 16777215
370
    25
100
AcDbSpline
210
0.0
220
0.0
230
1.0
 70
     8
 71
     3
 72
     8
 73
     4
 74
     0
 42
0.0000000001
 43
0.0000000001
 12
1.0
 22
0.0
 32
0.0
 13
1.0
 23
0.0
 33
0.0
 40
0.0
 40
0.0
 40
0.0
 40
0.0
 40
1.0
 40
1.0
 40
1.0
 40
1.0
 10
291.5000004425419
 20
309.5
 30
0.0
 10
291.5000004425419
 20
310.0522847498305
 30
0.0
 10
291.0522851923724
 20
310.5
 30
0.0
 10
290.5000004425419
 20
310.5
 30
0.0
  0
ENDBLK
  5
51
330
4E
100
AcDbEntity
  8
0
100
AcDbBlockEnd
  0
BLOCK
  5
55
330
53
100
AcDbEntity
  8
0
100
AcDbBlockBegin
  2
block 5
 70
     0
 10
0.0
 20
0.0
 30
0.0
  3
block 5
  1

  0
POLYLINE
  5
57
330
53
100
AcDbEntity
  8
Default
 62
     7
420
 16777215
370
    25
100
AcDb2dPolyline
 66
     1
 10
0.0
 20
0.0
 30
0.0
  0
VERTEX
  5
58
330
57
100
AcDbEntity
  8
Default
 62
     7
420
 16777215
370
    25
100
AcDbVertex
100
AcDb2dVertex
 10
291.5000004425419
 20
309.5
 30
0.0
  0
VERTEX
  5
59
330
57
100
AcDbEntity
  8
Default
 62
     7
420
 16777215
370
    25
100
AcDbVertex
100
AcDb2dVertex
 10
291.5000004425419
 20
300.5
 30
0.0
  0
SEQEND
  5
5A
330
57
100
AcDbEntity
  8
Default
 62
     7
420
 16777215
370
    25
  0
ENDBLK
  5
56
330
53
100
AcDbEntity
  8
0
100
AcDbBlockEnd
  0
BLOCK
  5
5D
330
5B
100
AcDbEntity
  8
0
100
AcDbBlockBegin
  2
block 6
 70
     0
 10
0.0
 20
0.0
 30
0.0
  3
block 6
  1

  0
SPLINE
  5
5F
330
5B
100
AcDbEntity
  8
Default
 62
     7
420
 16777215
370
    25
100
AcDbSpline
210
0.0
220
0.0
230
1.0
 70
     8
 71
     3
 72
     8
 73
     4
 74
     0
 42
0.0000000001
 43
0.0000000001
 12
1.0
 22
0.0
 32
0.0
 13
1.0
 23
0.0
 33
0.0
 40
0.0
 40
0.0
 40
0.0
 40
0.0
 40
1.0
 40
1.0
 40
1.0
 40
1.0
 10
291.5000004425419
 20
300.5
 30
0.0
 10
291.5000004425419
 20
295.5294372515236
 30
0.0
 10
295.5294376940647
 20
291.5
 30
0.0
 10
300.5000004425419
 20
291.5
 30
0.0
  0
ENDBLK
  5
5E
330
5B
100
AcDbEntity
  8
0
100
AcDbBlockEnd
  0
BLOCK
  5
62
330
60
100
AcDbEntity
  8
0
100
AcDbBlockBegin
  2
block 7
 70
     0
 10
0.0
 20
0.0
 30
0.0
  3
block 7
  1

  0
POLYLINE
  5
64
330
60
100
AcDbEntity
  8
Default
 62
     7
420
 16777215
370
    25
100
AcDb2dPolyline
 66
     1
 10
0.0
 20
0.0
 30
0.0
  0
VERTEX
  5
65
330
64
100
AcDbEntity
  8
Default
 62
     7
420
 16777215
370
    25
100
AcDbVertex
100
AcDb2dVertex
 10
300.5000004425419
 20
291.5
 30
0.0
  0
VERTEX
  5
66
330
64
100
AcDbEntity
  8
Default
 62
     7
420
 16777215
370
    25
100
AcDbVertex
100
AcDb2dVertex
 10
319.5000004425419
 20
291.5
 30
0.0
  0
SEQEND
  5
67
330
64
100
AcDbEntity
  8
Default
 62
     7
420
 16777215
370
    25
  0
ENDBLK
  5
63
330
60
100
AcDbEntity
  8
0
100
AcDbBlockEnd
  0
BLOCK
  5
6A
330
68
100
AcDbEntity
  8
0
100
AcDbBlockBegin
  2
block 8
 70
     0
 10
0.0
 20
0.0
 30
0.0
  3
block 8
  1

  0
SPLINE
  5
6C
330
68
100
AcDbEntity
  8
Default
 62
     7
420
 16777215
370
    25
100
AcDbSpline
210
0.0
220
0.0
230
1.0
 70
     8
 71
     3
 72
     8
 73
     4
 74
     0
 42
0.0000000001
 43
0.0000000001
 12
1.0
 22
0.0
 32
0.0
 13
1.0
 23
0.0
 33
0.0
 40
0.0
 40
0.0
 40
0.0
 40
0.0
 40
1.0
 40
1.0
 40
1.0
 40
1.0
 10
319.5000004425419
 20
291.5
 30
0.0
 10
324.4705631910183
 20
291.5
 30
0.0
 10
328.5000004425419
 20
295.5294372515236
 30
0.0
 10
328.5000004425419
 20
300.5
 30
0.0
  0
ENDBLK
  5
6B
330
68
100
AcDbEntity
  8
0
100
AcDbBlockEnd
  0
BLOCK
  5
6F
330
6D
100
AcDbEntity
  8
0
100
AcDbBlockBegin
  2
block 9
 70
     0
 10
0.0
 20
0.0
 30
0.0
  3
block 9
  1

  0
POLYLINE
  5
71
330
6D
100
AcDbEntity
  8
Default
 62
     7
420
 16777215
370
    25
100
AcDb2dPolyline
 66
     1
 10
0.0
 20
0.0
 30
0.0
  0
VERTEX
  5
72
330
71
100
AcDbEntity
  8
Default
 62
     7
420
 16777215
370
    25
100
AcDbVertex
100
AcDb2dVertex
 10
328.5000004425419
 20
300.5
 30
0.0
  0
VERTEX
  5
73
330
71
100
AcDbEntity
  8
Default
 62
     7
420
 16777215
370
    25
100
AcDbVertex
100
AcDb2dVertex
 10
328.5000004425419
 20
410.5
 30
0.0
  0
SEQEND
  5
74
330
71
100
AcDbEntity
  8
Default
 62
     7
420
 16777215
370
    25
  0
ENDBLK
  5
70
330
6D
100
AcDbEntity
  8
0
100
AcDbBlockEnd
  0
BLOCK
  5
77
330
75
100
AcDbEntity
  8
0
100
AcDbBlockBegin
  2
block 10
 70
     0
 10
0.0
 20
0.0
 30
0.0
  3
block 10
  1

  0
POLYLINE
  5
79
330
75
100
AcDbEntity
  8
Default
 62
     7
420
 16777215
370
    25
100
AcDb2dPolyline
 66
     1
 10
0.0
 20
0.0
 30
0.0
  0
VERTEX
  5
7A
330
79
100
AcDbEntity
  8
Default
 62
     7
420
 16777215
370
    25
100
AcDbVertex
100
AcDb2dVertex
 10
328.5000004425419
 20
410.5
 30
0.0
  0
VERTEX
  5
7B
330
79
100
AcDbEntity
  8
Default
 62
     7
420
 16777215
370
    25
100
AcDbVertex
100
AcDb2dVertex
 10
332.5000004425419
 20
410.5
 30
0.0
  0
SEQEND
  5
7C
330
79
100
AcDbEntity
  8
Default
 62
     7
420
 16777215
370
    25
  0
ENDBLK
  5
78
330
75
100
AcDbEntity
  8
0
100
AcDbBlockEnd
  0
BLOCK
  5
7F
330
7D
100
AcDbEntity
  8
0
100
AcDbBlockBegin
  2
block 11
 70
     0
 10
0.0
 20
0.0
 30
0.0
  3
block 11
  1

  0
POLYLINE
  5
81
330
7D
100
AcDbEntity
  8
Default
 62
     7
420
 16777215
370
    25
100
AcDb2dPolyline
 66
     1
 10
0.0
 20
0.0
 30
0.0
  0
VERTEX
  5
82
330
81
100
AcDbEntity
  8
Default
 62
     7
420
 16777215
370
    25
100
AcDbVertex
100
AcDb2dVertex
 10
332.5000004425419
 20
410.5
 30
0.0
  0
VERTEX
  5
83
330
81
100
AcDbEntity
  8
Default
 62
     7
420
 16777215
370
    25
100
AcDbVertex
100
AcDb2dVertex
 10
332.5000004425419
 20
300.5
 30
0.0
  0
SEQEND
  5
84
330
81
100
AcDbEntity
  8
Default
 62
     7
420
 16777215
370
    25
  0
ENDBLK
  5
80
330
7D
100
AcDbEntity
  8
0
100
AcDbBlockEnd
  0
BLOCK
  5
87
330
85
100
AcDbEntity
  8
0
100
AcDbBlockBegin
  2
block 12
 70
     0
 10
0.0
 20
0.0
 30
0.0
  3
block 12
  1

  0
SPLINE
  5
89
330
85
100
AcDbEntity
  8
Default
 62
     7
420
 16777215
370
    25
100
AcDbSpline
210
0.0
220
0.0
230
1.0
 70
     8
 71
     3
 72
     8
 73
     4
 74
     0
 42
0.0000000001
 43
0.0000000001
 12
1.0
 22
0.0
 32
0.0
 13
1.0
 23
0.0
 33
0.0
 40
0.0
 40
0.0
 40
0.0
 40
0.0
 40
1.0
 40
1.0
 40
1.0
 40
1.0
 10
319.5000004425419
 20
287.5
 30
0.0
 10
326.6797021903421
 20
287.5
 30
0.0
 10
332.5000004425419
 20
293.3202982521998
 30
0.0
 10
332.5000004425419
 20
300.5
 30
0.0
  0
ENDBLK
  5
88
330
85
100
AcDbEntity
  8
0
100
AcDbBlockEnd
  0
BLOCK
  5
8C
330
8A
100
AcDbEntity
  8
0
100
AcDbBlockBegin
  2
block 13
 70
     0
 10
0.0
 20
0.0
 30
0.0
  3
block 13
  1

  0
POLYLINE
  5
8E
330
8A
100
AcDbEntity
  8
Default
 62
     7
420
 16777215
370
    25
100
AcDb2dPolyline
 66
     1
 10
0.0
 20
0.0
 30
0.0
  0
VERTEX
  5
8F
330
8E
100
AcDbEntity
  8
Default
 62
     7
420
 16777215
370
    25
100
AcDbVertex
100
AcDb2dVertex
 10
319.5000004425419
 20
287.5
 30
0.0
  0
VERTEX
  5
90
330
8E
100
AcDbEntity
  8
Default
 62
     7
420
 16777215
370
    25
100
AcDbVertex
100
AcDb2dVertex
 10
300.5000004425419
 20
287.5
 30
0.0
  0
SEQEND
  5
91
330
8E
100
AcDbEntity
  8
Default
 62
     7
420
 16777215
370
    25
  0
ENDBLK
  5
8D
330
8A
100
AcDbEntity
  8
0
100
AcDbBlockEnd
  0
BLOCK
  5
94
330
92
100
AcDbEntity
  8
0
100
AcDbBlockBegin
  2
block 14
 70
     0
 10
0.0
 20
0.0
 30
0.0
  3
block 14
  1

  0
SPLINE
  5
96
330
92
100
AcDbEntity
  8
Default
 62
     7
420
 16777215
370
    25
100
AcDbSpline
210
0.0
220
0.0
230
1.0
 70
     8
 71
     3
 72
     8
 73
     4
 74
     0
 42
0.0000000001
 43
0.0000000001
 12
1.0
 22
0.0
 32
0.0
 13
1.0
 23
0.0
 33
0.0
 40
0.0
 40
0.0
 40
0.0
 40
0.0
 40
1.0
 40
1.0
 40
1.0
 40
1.0
 10
287.5000004425419
 20
300.5
 30
0.0
 10
287.5000004425419
 20
293.3202982521998
 30
0.0
 10
293.3202986947417
 20
287.5
 30
0.0
 10
300.5000004425419
 20
287.5
 30
0.0
  0
ENDBLK
  5
95
330
92
100
AcDbEntity
  8
0
100
AcDbBlockEnd
  0
BLOCK
  5
99
330
97
100
AcDbEntity
  8
0
100
AcDbBlockBegin
  2
block 15
 70
     0
 10
0.0
 20
0.0
 30
0.0
  3
block 15
  1

  0
POLYLINE
  5
9B
330
97
100
AcDbEntity
  8
Default
 62
     7
420
 16777215
370
    25
100
AcDb2dPolyline
 66
     1
 10
0.0
 20
0.0
 30
0.0
  0
VERTEX
  5
9C
330
9B
100
AcDbEntity
  8
Default
 62
     7
420
 16777215
370
    25
100
AcDbVertex
100
AcDb2dVertex
 10
287.5000004425419
 20
300.5
 30
0.0
  0
VERTEX
  5
9D
330
9B
100
AcDbEntity
  8
Default
 62
     7
420
 16777215
370
    25
100
AcDbVertex
100
AcDb2dVertex
 10
287.5000004425419
 20
305.5
 30
0.0
  0
SEQEND
  5
9E
330
9B
100
AcDbEntity
  8
Default
 62
     7
420
 16777215
370
    25
  0
ENDBLK
  5
9A
330
97
100
AcDbEntity
  8
0
100
AcDbBlockEnd
  0
BLOCK
  5
A1
330
9F
100
AcDbEntity
  8
0
100
AcDbBlockBegin
  2
block 16
 70
     0
 10
0.0
 20
0.0
 30
0.0
  3
block 16
  1

  0
SPLINE
  5
A3
330
9F
100
AcDbEntity
  8
Default
 62
     7
420
 16777215
370
    25
100
AcDbSpline
210
0.0
220
0.0
230
1.0
 70
     8
 71
     3
 72
     8
 73
     4
 74
     0
 42
0.0000000001
 43
0.0000000001
 12
1.0
 22
0.0
 32
0.0
 13
1.0
 23
0.0
 33
0.0
 40
0.0
 40
0.0
 40
0.0
 40
0.0
 40
1.0
 40
1.0
 40
1.0
 40
1.0
 10
287.5000004425419
 20
305.5
 30
0.0
 10
287.5000004425419
 20
306.0522847498305
 30
0.0
 10
287.0522851923724
 20
306.5
 30
0.0
 10
286.5000004425419
 20
306.5
 30
0.0
  0
ENDBLK
  5
A2
330
9F
100
AcDbEntity
  8
0
100
AcDbBlockEnd
  0
BLOCK
  5
A6
330
A4
100
AcDbEntity
  8
0
100
AcDbBlockBegin
  2
block 17
 70
     0
 10
0.0
 20
0.0
 30
0.0
  3
block 17
  1

  0
POLYLINE
  5
A8
330
A4
100
AcDbEntity
  8
Default
 62
     7
420
 16777215
370
    25
100
AcDb2dPolyline
 66
     1
 10
0.0
 20
0.0
 30
0.0
  0
VERTEX
  5
A9
330
A8
100
AcDbEntity
  8
Default
 62
     7
420
 16777215
370
    25
100
AcDbVertex
100
AcDb2dVertex
 10
286.5000004425419
 20
306.5
 30
0.0
  0
VERTEX
  5
AA
330
A8
100
AcDbEntity
  8
Default
 62
     7
420
 16777215
370
    25
100
AcDbVertex
100
AcDb2dVertex
 10
274.5000004425419
 20
306.5
 30
0.0
  0
SEQEND
  5
AB
330
A8
100
AcDbEntity
  8
Default
 62
     7
420
 16777215
370
    25
  0
ENDBLK
  5
A7
330
A4
100
AcDbEntity
  8
0
100
AcDbBlockEnd
  0
BLOCK
  5
AE
330
AC
100
AcDbEntity
  8
0
100
AcDbBlockBegin
  2
block 18
 70
     0
 10
0.0
 20
0.0
 30
0.0
  3
block 18
  1

  0
SPLINE
  5
B0
330
AC
100
AcDbEntity
  8
Default
 62
     7
420
 16777215
370
    25
100
AcDbSpline
210
0.0
220
0.0
230
1.0
 70
     8
 71
     3
 72
     8
 73
     4
 74
     0
 42
0.0000000001
 43
0.0000000001
 12
1.0
 22
0.0
 32
0.0
 13
1.0
 23
0.0
 33
0.0
 40
0.0
 40
0.0
 40
0.0
 40
0.0
 40
1.0
 40
1.0
 40
1.0
 40
1.0
 10
274.5000004425419
 20
306.5
 30
0.0
 10
273.9477156927114
 20
306.5
 30
0.0
 10
273.5000004425419
 20
306.0522847498305
 30
0.0
 10
273.5000004425419
 20
305.5
 30
0.0
  0
ENDBLK
  5
AF
330
AC
100
AcDbEntity
  8
0
100
AcDbBlockEnd
  0
BLOCK
  5
B3
330
B1
100
AcDbEntity
  8
0
100
AcDbBlockBegin
  2
block 19
 70
     0
 10
0.0
 20
0.0
 30
0.0
  3
block 19
  1

  0
POLYLINE
  5
B5
330
B1
100
AcDbEntity
  8
Default
 62
     7
420
 16777215
370
    25
100
AcDb2dPolyline
 66
     1
 10
0.0
 20
0.0
 30
0.0
  0
VERTEX
  5
B6
330
B5
100
AcDbEntity
  8
Default
 62
     7
420
 16777215
370
    25
100
AcDbVertex
100
AcDb2dVertex
 10
273.5000004425419
 20
305.5
 30
0.0
  0
VERTEX
  5
B7
330
B5
100
AcDbEntity
  8
Default
 62
     7
420
 16777215
370
    25
100
AcDbVertex
100
AcDb2dVertex
 10
273.5000004425419
 20
300.5
 30
0.0
  0
SEQEND
  5
B8
330
B5
100
AcDbEntity
  8
Default
 62
     7
420
 16777215
370
    25
  0
ENDBLK
  5
B4
330
B1
100
AcDbEntity
  8
0
100
AcDbBlockEnd
  0
BLOCK
  5
BB
330
B9
100
AcDbEntity
  8
0
100
AcDbBlockBegin
  2
block 20
 70
     0
 10
0.0
 20
0.0
 30
0.0
  3
block 20
  1

  0
SPLINE
  5
BD
330
B9
100
AcDbEntity
  8
Default
 62
     7
420
 16777215
370
    25
100
AcDbSpline
210
0.0
220
0.0
230
1.0
 70
     8
 71
     3
 72
     8
 73
     4
 74
     0
 42
0.0000000001
 43
0.0000000001
 12
1.0
 22
0.0
 32
0.0
 13
1.0
 23
0.0
 33
0.0
 40
0.0
 40
0.0
 40
0.0
 40
0.0
 40
1.0
 40
1.0
 40
1.0
 40
1.0
 10
273.5000004425419
 20
300.5
 30
0.0
 10
273.5000004425419
 20
285.5883117545691
 30
0.0
 10
285.5883121971101
 20
273.5
 30
0.0
 10
300.5000004425419
 20
273.5
 30
0.0
  0
ENDBLK
  5
BC
330
B9
100
AcDbEntity
  8
0
100
AcDbBlockEnd
  0
BLOCK
  5
C0
330
BE
100
AcDbEntity
  8
0
100
AcDbBlockBegin
  2
block 21
 70
     0
 10
0.0
 20
0.0
 30
0.0
  3
block 21
  1

  0
POLYLINE
  5
C2
330
BE
100
AcDbEntity
  8
Default
 62
     7
420
 16777215
370
    25
100
AcDb2dPolyline
 66
     1
 10
0.0
 20
0.0
 30
0.0
  0
VERTEX
  5
C3
330
C2
100
AcDbEntity
  8
Default
 62
     7
420
 16777215
370
    25
100
AcDbVertex
100
AcDb2dVertex
 10
300.5000004425419
 20
273.5
 30
0.0
  0
VERTEX
  5
C4
330
C2
100
AcDbEntity
  8
Default
 62
     7
420
 16777215
370
    25
100
AcDbVertex
100
AcDb2dVertex
 10
319.5000004425419
 20
273.5
 30
0.0
  0
SEQEND
  5
C5
330
C2
100
AcDbEntity
  8
Default
 62
     7
420
 16777215
370
    25
  0
ENDBLK
  5
C1
330
BE
100
AcDbEntity
  8
0
100
AcDbBlockEnd
  0
BLOCK
  5
C8
330
C6
100
AcDbEntity
  8
0
100
AcDbBlockBegin
  2
block 22
 70
     0
 10
0.0
 20
0.0
 30
0.0
  3
block 22
  1

  0
SPLINE
  5
CA
330
C6
100
AcDbEntity
  8
Default
 62
     7
420
 16777215
370
    25
100
AcDbSpline
210
0.0
220
0.0
230
1.0
 70
     8
 71
     3
 72
     8
 73
     4
 74
     0
 42
0.0000000001
 43
0.0000000001
 12
1.0
 22
0.0
 32
0.0
 13
1.0
 23
0.0
 33
0.0
 40
0.0
 40
0.0
 40
0.0
 40
0.0
 40
1.0
 40
1.0
 40
1.0
 40
1.0
 10
319.5000004425419
 20
273.5
 30
0.0
 10
334.4116886879729
 20
273.5
 30
0.0
 10
346.5000004425419
 20
285.5883117545691
 30
0.0
 10
346.5000004425419
 20
300.5
 30
0.0
  0
ENDBLK
  5
C9
330
C6
100
AcDbEntity
  8
0
100
AcDbBlockEnd
  0
BLOCK
  5
CD
330
CB
100
AcDbEntity
  8
0
100
AcDbBlockBegin
  2
block 23
 70
     0
 10
0.0
 20
0.0
 30
0.0
  3
block 23
  1

  0
POLYLINE
  5
CF
330
CB
100
AcDbEntity
  8
Default
 62
     7
420
 16777215
370
    25
100
AcDb2dPolyline
 66
     1
 10
0.0
 20
0.0
 30
0.0
  0
VERTEX
  5
D0
330
CF
100
AcDbEntity
  8
Default
 62
     7
420
 16777215
370
    25
100
AcDbVertex
100
AcDb2dVertex
 10
346.5000004425419
 20
300.5
 30
0.0
  0
VERTEX
  5
D1
330
CF
100
AcDbEntity
  8
Default
 62
     7
420
 16777215
370
    25
100
AcDbVertex
100
AcDb2dVertex
 10
346.5000004425419
 20
410.5
 30
0.0
  0
SEQEND
  5
D2
330
CF
100
AcDbEntity
  8
Default
 62
     7
420
 16777215
370
    25
  0
ENDBLK
  5
CE
330
CB
100
AcDbEntity
  8
0
100
AcDbBlockEnd
  0
BLOCK
  5
D5
330
D3
100
AcDbEntity
  8
0
100
AcDbBlockBegin
  2
block 24
 70
     0
 10
0.0
 20
0.0
 30
0.0
  3
block 24
  1

  0
POLYLINE
  5
D7
330
D3
100
AcDbEntity
  8
Default
 62
     7
420
 16777215
370
    25
100
AcDb2dPolyline
 66
     1
 10
0.0
 20
0.0
 30
0.0
  0
VERTEX
  5
D8
330
D7
100
AcDbEntity
  8
Default
 62
     7
420
 16777215
370
    25
100
AcDbVertex
100
AcDb2dVertex
 10
346.5000004425419
 20
410.5
 30
0.0
  0
VERTEX
  5
D9
330
D7
100
AcDbEntity
  8
Default
 62
     7
420
 16777215
370
    25
100
AcDbVertex
100
AcDb2dVertex
 10
350.5000004425419
 20
410.5
 30
0.0
  0
SEQEND
  5
DA
330
D7
100
AcDbEntity
  8
Default
 62
     7
420
 16777215
370
    25
  0
ENDBLK
  5
D6
330
D3
100
AcDbEntity
  8
0
100
AcDbBlockEnd
  0
BLOCK
  5
DD
330
DB
100
AcDbEntity
  8
0
100
AcDbBlockBegin
  2
block 25
 70
     0
 10
0.0
 20
0.0
 30
0.0
  3
block 25
  1

  0
POLYLINE
  5
DF
330
DB
100
AcDbEntity
  8
Default
 62
     7
420
 16777215
370
    25
100
AcDb2dPolyline
 66
     1
 10
0.0
 20
0.0
 30
0.0
  0
VERTEX
  5
E0
330
DF
100
AcDbEntity
  8
Default
 62
     7
420
 16777215
370
    25
100
AcDbVertex
100
AcDb2dVertex
 10
350.5000004425419
 20
410.5
 30
0.0
  0
VERTEX
  5
E1
330
DF
100
AcDbEntity
  8
Default
 62
     7
420
 16777215
370
    25
100
AcDbVertex
100
AcDb2dVertex
 10
350.5000004425419
 20
300.5
 30
0.0
  0
SEQEND
  5
E2
330
DF
100
AcDbEntity
  8
Default
 62
     7
420
 16777215
370
    25
  0
ENDBLK
  5
DE
330
DB
100
AcDbEntity
  8
0
100
AcDbBlockEnd
  0
BLOCK
  5
E5
330
E3
100
AcDbEntity
  8
0
100
AcDbBlockBegin
  2
block 26
 70
     0
 10
0.0
 20
0.0
 30
0.0
  3
block 26
  1

  0
SPLINE
  5
E7
330
E3
100
AcDbEntity
  8
Default
 62
     7
420
 16777215
370
    25
100
AcDbSpline
210
0.0
220
0.0
230
1.0
 70
     8
 71
     3
 72
     8
 73
     4
 74
     0
 42
0.0000000001
 43
0.0000000001
 12
1.0
 22
0.0
 32
0.0
 13
1.0
 23
0.0
 33
0.0
 40
0.0
 40
0.0
 40
0.0
 40
0.0
 40
1.0
 40
1.0
 40
1.0
 40
1.0
 10
319.5000004425419
 20
269.5
 30
0.0
 10
336.6208276872967
 20
269.5
 30
0.0
 10
350.5000004425419
 20
283.3791727552452
 30
0.0
 10
350.5000004425419
 20
300.5
 30
0.0
  0
ENDBLK
  5
E6
330
E3
100
AcDbEntity
  8
0
100
AcDbBlockEnd
  0
BLOCK
  5
EA
330
E8
100
AcDbEntity
  8
0
100
AcDbBlockBegin
  2
block 27
 70
     0
 10
0.0
 20
0.0
 30
0.0
  3
block 27
  1

  0
POLYLINE
  5
EC
330
E8
100
AcDbEntity
  8
Default
 62
     7
420
 16777215
370
    25
100
AcDb2dPolyline
 66
     1
 10
0.0
 20
0.0
 30
0.0
  0
VERTEX
  5
ED
330
EC
100
AcDbEntity
  8
Default
 62
     7
420
 16777215
370
    25
100
AcDbVertex
100
AcDb2dVertex
 10
319.5000004425419
 20
269.5
 30
0.0
  0
VERTEX
  5
EE
330
EC
100
AcDbEntity
  8
Default
 62
     7
420
 16777215
370
    25
100
AcDbVertex
100
AcDb2dVertex
 10
300.5000004425419
 20
269.5
 30
0.0
  0
SEQEND
  5
EF
330
EC
100
AcDbEntity
  8
Default
 62
     7
420
 16777215
370
    25
  0
ENDBLK
  5
EB
330
E8
100
AcDbEntity
  8
0
100
AcDbBlockEnd
  0
BLOCK
  5
F2
330
F0
100
AcDbEntity
  8
0
100
AcDbBlockBegin
  2
block 28
 70
     0
 10
0.0
 20
0.0
 30
0.0
  3
block 28
  1

  0
SPLINE
  5
F4
330
F0
100
AcDbEntity
  8
Default
 62
     7
420
 16777215
370
    25
100
AcDbSpline
210
0.0
220
0.0
230
1.0
 70
     8
 71
     3
 72
     8
 73
     4
 74
     0
 42
0.0000000001
 43
0.0000000001
 12
1.0
 22
0.0
 32
0.0
 13
1.0
 23
0.0
 33
0.0
 40
0.0
 40
0.0
 40
0.0
 40
0.0
 40
1.0
 40
1.0
 40
1.0
 40
1.0
 10
269.5000004425419
 20
300.5
 30
0.0
 10
269.5000004425419
 20
283.3791727552452
 30
0.0
 10
283.3791731977872
 20
269.5
 30
0.0
 10
300.5000004425419
 20
269.5
 30
0.0
  0
ENDBLK
  5
F3
330
F0
100
AcDbEntity
  8
0
100
AcDbBlockEnd
  0
BLOCK
  5
F7
330
F5
100
AcDbEntity
  8
0
100
AcDbBlockBegin
  2
block 29
 70
     0
 10
0.0
 20
0.0
 30
0.0
  3
block 29
  1

  0
POLYLINE
  5
F9
330
F5
100
AcDbEntity
  8
Default
 62
     7
420
 16777215
370
    25
100
AcDb2dPolyline
 66
     1
 10
0.0
 20
0.0
 30
0.0
  0
VERTEX
  5
FA
330
F9
100
AcDbEntity
  8
Default
 62
     7
420
 16777215
370
    25
100
AcDbVertex
100
AcDb2dVertex
 10
269.5000004425419
 20
300.5
 30
0.0
  0
VERTEX
  5
FB
330
F9
100
AcDbEntity
  8
Default
 62
     7
420
 16777215
370
    25
100
AcDbVertex
100
AcDb2dVertex
 10
269.5000004425419
 20
309.5
 30
0.0
  0
SEQEND
  5
FC
330
F9
100
AcDbEntity
  8
Default
 62
     7
420
 16777215
370
    25
  0
ENDBLK
  5
F8
330
F5
100
AcDbEntity
  8
0
100
AcDbBlockEnd
  0
BLOCK
  5
FF
330
FD
100
AcDbEntity
  8
0
100
AcDbBlockBegin
  2
block 30
 70
     0
 10
0.0
 20
0.0
 30
0.0
  3
block 30
  1

  0
SPLINE
  5
101
330
FD
100
AcDbEntity
  8
Default
 62
     7
420
 16777215
370
    25
100
AcDbSpline
210
0.0
220
0.0
230
1.0
 70
     8
 71
     3
 72
     8
 73
     4
 74
     0
 42
0.0000000001
 43
0.0000000001
 12
1.0
 22
0.0
 32
0.0
 13
1.0
 23
0.0
 33
0.0
 40
0.0
 40
0.0
 40
0.0
 40
0.0
 40
1.0
 40
1.0
 40
1.0
 40
1.0
 10
342.5000004425419
 20
482.5
 30
0.0
 10
343.0522851923724
 20
482.5
 30
0.0
 10
343.5000004425419
 20
482.9477152501695
 30
0.0
 10
343.5000004425419
 20
483.5
 30
0.0
  0
ENDBLK
  5
100
330
FD
100
AcDbEntity
  8
0
100
AcDbBlockEnd
  0
BLOCK
  5
104
330
102
100
AcDbEntity
  8
0
100
AcDbBlockBegin
  2
block 31
 70
     0
 10
0.0
 20
0.0
 30
0.0
  3
block 31
  1

  0
POLYLINE
  5
106
330
102
100
AcDbEntity
  8
Default
 62
     7
420
 16777215
370
    25
100
AcDb2dPolyline
 66
     1
 10
0.0
 20
0.0
 30
0.0
  0
VERTEX
  5
107
330
106
100
AcDbEntity
  8
Default
 62
     7
420
 16777215
370
    25
100
AcDbVertex
100
AcDb2dVertex
 10
342.5000004425419
 20
482.5
 30
0.0
  0
VERTEX
  5
108
330
106
100
AcDbEntity
  8
Default
 62
     7
420
 16777215
370
    25
100
AcDbVertex
100
AcDb2dVertex
 10
322.5000004425419
 20
482.5
 30
0.0
  0
SEQEND
  5
109
330
106
100
AcDbEntity
  8
Default
 62
     7
420
 16777215
370
    25
  0
ENDBLK
  5
105
330
102
100
AcDbEntity
  8
0
100
AcDbBlockEnd
  0
BLOCK
  5
10C
330
10A
100
AcDbEntity
  8
0
100
AcDbBlockBegin
  2
block 32
 70
     0
 10
0.0
 20
0.0
 30
0.0
  3
block 32
  1

  0
SPLINE
  5
10E
330
10A
100
AcDbEntity
  8
Default
 62
     7
420
 16777215
370
    25
100
AcDbSpline
210
0.0
220
0.0
230
1.0
 70
     8
 71
     3
 72
     8
 73
     4
 74
     0
 42
0.0000000001
 43
0.0000000001
 12
1.0
 22
0.0
 32
0.0
 13
1.0
 23
0.0
 33
0.0
 40
0.0
 40
0.0
 40
0.0
 40
0.0
 40
1.0
 40
1.0
 40
1.0
 40
1.0
 10
321.5000004425419
 20
483.5
 30
0.0
 10
321.5000004425419
 20
482.9477152501695
 30
0.0
 10
321.9477156927114
 20
482.5
 30
0.0
 10
322.5000004425419
 20
482.5
 30
0.0
  0
ENDBLK
  5
10D
330
10A
100
AcDbEntity
  8
0
100
AcDbBlockEnd
  0
BLOCK
  5
111
330
10F
100
AcDbEntity
  8
0
100
AcDbBlockBegin
  2
block 33
 70
     0
 10
0.0
 20
0.0
 30
0.0
  3
block 33
  1

  0
POLYLINE
  5
113
330
10F
100
AcDbEntity
  8
Default
 62
     7
420
 16777215
370
    25
100
AcDb2dPolyline
 66
     1
 10
0.0
 20
0.0
 30
0.0
  0
VERTEX
  5
114
330
113
100
AcDbEntity
  8
Default
 62
     7
420
 16777215
370
    25
100
AcDbVertex
100
AcDb2dVertex
 10
321.5000004425419
 20
483.5
 30
0.0
  0
VERTEX
  5
115
330
113
100
AcDbEntity
  8
Default
 62
     7
420
 16777215
370
    25
100
AcDbVertex
100
AcDb2dVertex
 10
321.5000004425419
 20
492.5
 30
0.0
  0
SEQEND
  5
116
330
113
100
AcDbEntity
  8
Default
 62
     7
420
 16777215
370
    25
  0
ENDBLK
  5
112
330
10F
100
AcDbEntity
  8
0
100
AcDbBlockEnd
  0
BLOCK
  5
119
330
117
100
AcDbEntity
  8
0
100
AcDbBlockBegin
  2
block 34
 70
     0
 10
0.0
 20
0.0
 30
0.0
  3
block 34
  1

  0
SPLINE
  5
11B
330
117
100
AcDbEntity
  8
Default
 62
     7
420
 16777215
370
    25
100
AcDbSpline
210
0.0
220
0.0
230
1.0
 70
     8
 71
     3
 72
     8
 73
     4
 74
     0
 42
0.0000000001
 43
0.0000000001
 12
1.0
 22
0.0
 32
0.0
 13
1.0
 23
0.0
 33
0.0
 40
0.0
 40
0.0
 40
0.0
 40
0.0
 40
1.0
 40
1.0
 40
1.0
 40
1.0
 10
321.5000004425419
 20
492.5
 30
0.0
 10
321.5000004425419
 20
497.4705627484773
 30
0.0
 10
317.4705631910183
 20
501.5
 30
0.0
 10
312.5000004425419
 20
501.5
 30
0.0
  0
ENDBLK
  5
11A
330
117
100
AcDbEntity
  8
0
100
AcDbBlockEnd
  0
BLOCK
  5
11E
330
11C
100
AcDbEntity
  8
0
100
AcDbBlockBegin
  2
block 35
 70
     0
 10
0.0
 20
0.0
 30
0.0
  3
block 35
  1

  0
POLYLINE
  5
120
330
11C
100
AcDbEntity
  8
Default
 62
     7
420
 16777215
370
    25
100
AcDb2dPolyline
 66
     1
 10
0.0
 20
0.0
 30
0.0
  0
VERTEX
  5
121
330
120
100
AcDbEntity
  8
Default
 62
     7
420
 16777215
370
    25
100
AcDbVertex
100
AcDb2dVertex
 10
312.5000004425419
 20
501.5
 30
0.0
  0
VERTEX
  5
122
330
120
100
AcDbEntity
  8
Default
 62
     7
420
 16777215
370
    25
100
AcDbVertex
100
AcDb2dVertex
 10
293.5000004425419
 20
501.5
 30
0.0
  0
SEQEND
  5
123
330
120
100
AcDbEntity
  8
Default
 62
     7
420
 16777215
370
    25
  0
ENDBLK
  5
11F
330
11C
100
AcDbEntity
  8
0
100
AcDbBlockEnd
  0
BLOCK
  5
126
330
124
100
AcDbEntity
  8
0
100
AcDbBlockBegin
  2
block 36
 70
     0
 10
0.0
 20
0.0
 30
0.0
  3
block 36
  1

  0
SPLINE
  5
128
330
124
100
AcDbEntity
  8
Default
 62
     7
420
 16777215
370
    25
100
AcDbSpline
210
0.0
220
0.0
230
1.0
 70
     8
 71
     3
 72
     8
 73
     4
 74
     0
 42
0.0000000001
 43
0.0000000001
 12
1.0
 22
0.0
 32
0.0
 13
1.0
 23
0.0
 33
0.0
 40
0.0
 40
0.0
 40
0.0
 40
0.0
 40
1.0
 40
1.0
 40
1.0
 40
1.0
 10
293.5000004425419
 20
501.5
 30
0.0
 10
288.5294376940647
 20
501.5
 30
0.0
 10
284.5000004425419
 20
497.4705627484773
 30
0.0
 10
284.5000004425419
 20
492.5
 30
0.0
  0
ENDBLK
  5
127
330
124
100
AcDbEntity
  8
0
100
AcDbBlockEnd
  0
BLOCK
  5
12B
330
129
100
AcDbEntity
  8
0
100
AcDbBlockBegin
  2
block 37
 70
     0
 10
0.0
 20
0.0
 30
0.0
  3
block 37
  1

  0
POLYLINE
  5
12D
330
129
100
AcDbEntity
  8
Default
 62
     7
420
 16777215
370
    25
100
AcDb2dPolyline
 66
     1
 10
0.0
 20
0.0
 30
0.0
  0
VERTEX
  5
12E
330
12D
100
AcDbEntity
  8
Default
 62
     7
420
 16777215
370
    25
100
AcDbVertex
100
AcDb2dVertex
 10
284.5000004425419
 20
492.5
 30
0.0
  0
VERTEX
  5
12F
330
12D
100
AcDbEntity
  8
Default
 62
     7
420
 16777215
370
    25
100
AcDbVertex
100
AcDb2dVertex
 10
284.5000004425419
 20
382.5
 30
0.0
  0
SEQEND
  5
130
330
12D
100
AcDbEntity
  8
Default
 62
     7
420
 16777215
370
    25
  0
ENDBLK
  5
12C
330
129
100
AcDbEntity
  8
0
100
AcDbBlockEnd
  0
BLOCK
  5
133
330
131
100
AcDbEntity
  8
0
100
AcDbBlockBegin
  2
block 38
 70
     0
 10
0.0
 20
0.0
 30
0.0
  3
block 38
  1

  0
POLYLINE
  5
135
330
131
100
AcDbEntity
  8
Default
 62
     7
420
 16777215
370
    25
100
AcDb2dPolyline
 66
     1
 10
0.0
 20
0.0
 30
0.0
  0
VERTEX
  5
136
330
135
100
AcDbEntity
  8
Default
 62
     7
420
 16777215
370
    25
100
AcDbVertex
100
AcDb2dVertex
 10
284.5000004425419
 20
382.5
 30
0.0
  0
VERTEX
  5
137
330
135
100
AcDbEntity
  8
Default
 62
     7
420
 16777215
370
    25
100
AcDbVertex
100
AcDb2dVertex
 10
280.5000004425419
 20
382.5
 30
0.0
  0
SEQEND
  5
138
330
135
100
AcDbEntity
  8
Default
 62
     7
420
 16777215
370
    25
  0
ENDBLK
  5
134
330
131
100
AcDbEntity
  8
0
100
AcDbBlockEnd
  0
BLOCK
  5
13B
330
139
100
AcDbEntity
  8
0
100
AcDbBlockBegin
  2
block 39
 70
     0
 10
0.0
 20
0.0
 30
0.0
  3
block 39
  1

  0
POLYLINE
  5
13D
330
139
100
AcDbEntity
  8
Default
 62
     7
420
 16777215
370
    25
100
AcDb2dPolyline
 66
     1
 10
0.0
 20
0.0
 30
0.0
  0
VERTEX
  5
13E
330
13D
100
AcDbEntity
  8
Default
 62
     7
420
 16777215
370
    25
100
AcDbVertex
100
AcDb2dVertex
 10
280.5000004425419
 20
382.5
 30
0.0
  0
VERTEX
  5
13F
330
13D
100
AcDbEntity
  8
Default
 62
     7
420
 16777215
370
    25
100
AcDbVertex
100
AcDb2dVertex
 10
280.5000004425419
 20
492.5
 30
0.0
  0
SEQEND
  5
140
330
13D
100
AcDbEntity
  8
Default
 62
     7
420
 16777215
370
    25
  0
ENDBLK
  5
13C
330
139
100
AcDbEntity
  8
0
100
AcDbBlockEnd
  0
BLOCK
  5
143
330
141
100
AcDbEntity
  8
0
100
AcDbBlockBegin
  2
block 40
 70
     0
 10
0.0
 20
0.0
 30
0.0
  3
block 40
  1

  0
SPLINE
  5
145
330
141
100
AcDbEntity
  8
Default
 62
     7
420
 16777215
370
    25
100
AcDbSpline
210
0.0
220
0.0
230
1.0
 70
     8
 71
     3
 72
     8
 73
     4
 74
     0
 42
0.0000000001
 43
0.0000000001
 12
1.0
 22
0.0
 32
0.0
 13
1.0
 23
0.0
 33
0.0
 40
0.0
 40
0.0
 40
0.0
 40
0.0
 40
1.0
 40
1.0
 40
1.0
 40
1.0
 10
293.5000004425419
 20
505.5
 30
0.0
 10
286.3202986947417
 20
505.5
 30
0.0
 10
280.5000004425419
 20
499.6797017478002
 30
0.0
 10
280.5000004425419
 20
492.5
 30
0.0
  0
ENDBLK
  5
144
330
141
100
AcDbEntity
  8
0
100
AcDbBlockEnd
  0
BLOCK
  5
148
330
146
100
AcDbEntity
  8
0
100
AcDbBlockBegin
  2
block 41
 70
     0
 10
0.0
 20
0.0
 30
0.0
  3
block 41
  1

  0
POLYLINE
  5
14A
330
146
100
AcDbEntity
  8
Default
 62
     7
420
 16777215
370
    25
100
AcDb2dPolyline
 66
     1
 10
0.0
 20
0.0
 30
0.0
  0
VERTEX
  5
14B
330
14A
100
AcDbEntity
  8
Default
 62
     7
420
 16777215
370
    25
100
AcDbVertex
100
AcDb2dVertex
 10
293.5000004425419
 20
505.5
 30
0.0
  0
VERTEX
  5
14C
330
14A
100
AcDbEntity
  8
Default
 62
     7
420
 16777215
370
    25
100
AcDbVertex
100
AcDb2dVertex
 10
312.5000004425419
 20
505.5
 30
0.0
  0
SEQEND
  5
14D
330
14A
100
AcDbEntity
  8
Default
 62
     7
420
 16777215
370
    25
  0
ENDBLK
  5
149
330
146
100
AcDbEntity
  8
0
100
AcDbBlockEnd
  0
BLOCK
  5
150
330
14E
100
AcDbEntity
  8
0
100
AcDbBlockBegin
  2
block 42
 70
     0
 10
0.0
 20
0.0
 30
0.0
  3
block 42
  1

  0
SPLINE
  5
152
330
14E
100
AcDbEntity
  8
Default
 62
     7
420
 16777215
370
    25
100
AcDbSpline
210
0.0
220
0.0
230
1.0
 70
     8
 71
     3
 72
     8
 73
     4
 74
     0
 42
0.0000000001
 43
0.0000000001
 12
1.0
 22
0.0
 32
0.0
 13
1.0
 23
0.0
 33
0.0
 40
0.0
 40
0.0
 40
0.0
 40
0.0
 40
1.0
 40
1.0
 40
1.0
 40
1.0
 10
325.5000004425419
 20
492.5
 30
0.0
 10
325.5000004425419
 20
499.6797017478002
 30
0.0
 10
319.6797021903421
 20
505.5
 30
0.0
 10
312.5000004425419
 20
505.5
 30
0.0
  0
ENDBLK
  5
151
330
14E
100
AcDbEntity
  8
0
100
AcDbBlockEnd
  0
BLOCK
  5
155
330
153
100
AcDbEntity
  8
0
100
AcDbBlockBegin
  2
block 43
 70
     0
 10
0.0
 20
0.0
 30
0.0
  3
block 43
  1

  0
POLYLINE
  5
157
330
153
100
AcDbEntity
  8
Default
 62
     7
420
 16777215
370
    25
100
AcDb2dPolyline
 66
     1
 10
0.0
 20
0.0
 30
0.0
  0
VERTEX
  5
158
330
157
100
AcDbEntity
  8
Default
 62
     7
420
 16777215
370
    25
100
AcDbVertex
100
AcDb2dVertex
 10
325.5000004425419
 20
492.5
 30
0.0
  0
VERTEX
  5
159
330
157
100
AcDbEntity
  8
Default
 62
     7
420
 16777215
370
    25
100
AcDbVertex
100
AcDb2dVertex
 10
325.5000004425419
 20
487.5
 30
0.0
  0
SEQEND
  5
15A
330
157
100
AcDbEntity
  8
Default
 62
     7
420
 16777215
370
    25
  0
ENDBLK
  5
156
330
153
100
AcDbEntity
  8
0
100
AcDbBlockEnd
  0
BLOCK
  5
15D
330
15B
100
AcDbEntity
  8
0
100
AcDbBlockBegin
  2
block 44
 70
     0
 10
0.0
 20
0.0
 30
0.0
  3
block 44
  1

  0
SPLINE
  5
15F
330
15B
100
AcDbEntity
  8
Default
 62
     7
420
 16777215
370
    25
100
AcDbSpline
210
0.0
220
0.0
230
1.0
 70
     8
 71
     3
 72
     8
 73
     4
 74
     0
 42
0.0000000001
 43
0.0000000001
 12
1.0
 22
0.0
 32
0.0
 13
1.0
 23
0.0
 33
0.0
 40
0.0
 40
0.0
 40
0.0
 40
0.0
 40
1.0
 40
1.0
 40
1.0
 40
1.0
 10
325.5000004425419
 20
487.5
 30
0.0
 10
325.5000004425419
 20
486.9477152501695
 30
0.0
 10
325.9477156927114
 20
486.5
 30
0.0
 10
326.5000004425419
 20
486.5
 30
0.0
  0
ENDBLK
  5
15E
330
15B
100
AcDbEntity
  8
0
100
AcDbBlockEnd
  0
BLOCK
  5
162
330
160
100
AcDbEntity
  8
0
100
AcDbBlockBegin
  2
block 45
 70
     0
 10
0.0
 20
0.0
 30
0.0
  3
block 45
  1

  0
POLYLINE
  5
164
330
160
100
AcDbEntity
  8
Default
 62
     7
420
 16777215
370
    25
100
AcDb2dPolyline
 66
     1
 10
0.0
 20
0.0
 30
0.0
  0
VERTEX
  5
165
330
164
100
AcDbEntity
  8
Default
 62
     7
420
 16777215
370
    25
100
AcDbVertex
100
AcDb2dVertex
 10
326.5000004425419
 20
486.5
 30
0.0
  0
VERTEX
  5
166
330
164
100
AcDbEntity
  8
Default
 62
     7
420
 16777215
370
    25
100
AcDbVertex
100
AcDb2dVertex
 10
338.5000004425419
 20
486.5
 30
0.0
  0
SEQEND
  5
167
330
164
100
AcDbEntity
  8
Default
 62
     7
420
 16777215
370
    25
  0
ENDBLK
  5
163
330
160
100
AcDbEntity
  8
0
100
AcDbBlockEnd
  0
BLOCK
  5
16A
330
168
100
AcDbEntity
  8
0
100
AcDbBlockBegin
  2
block 46
 70
     0
 10
0.0
 20
0.0
 30
0.0
  3
block 46
  1

  0
SPLINE
  5
16C
330
168
100
AcDbEntity
  8
Default
 62
     7
420
 16777215
370
    25
100
AcDbSpline
210
0.0
220
0.0
230
1.0
 70
     8
 71
     3
 72
     8
 73
     4
 74
     0
 42
0.0000000001
 43
0.0000000001
 12
1.0
 22
0.0
 32
0.0
 13
1.0
 23
0.0
 33
0.0
 40
0.0
 40
0.0
 40
0.0
 40
0.0
 40
1.0
 40
1.0
 40
1.0
 40
1.0
 10
338.5000004425419
 20
486.5
 30
0.0
 10
339.0522851923724
 20
486.5
 30
0.0
 10
339.5000004425419
 20
486.9477152501695
 30
0.0
 10
339.5000004425419
 20
487.5
 30
0.0
  0
ENDBLK
  5
16B
330
168
100
AcDbEntity
  8
0
100
AcDbBlockEnd
  0
BLOCK
  5
16F
330
16D
100
AcDbEntity
  8
0
100
AcDbBlockBegin
  2
block 47
 70
     0
 10
0.0
 20
0.0
 30
0.0
  3
block 47
  1

  0
POLYLINE
  5
171
330
16D
100
AcDbEntity
  8
Default
 62
     7
420
 16777215
370
    25
100
AcDb2dPolyline
 66
     1
 10
0.0
 20
0.0
 30
0.0
  0
VERTEX
  5
172
330
171
100
AcDbEntity
  8
Default
 62
     7
420
 16777215
370
    25
100
AcDbVertex
100
AcDb2dVertex
 10
339.5000004425419
 20
487.5
 30
0.0
  0
VERTEX
  5
173
330
171
100
AcDbEntity
  8
Default
 62
     7
420
 16777215
370
    25
100
AcDbVertex
100
AcDb2dVertex
 10
339.5000004425419
 20
492.5
 30
0.0
  0
SEQEND
  5
174
330
171
100
AcDbEntity
  8
Default
 62
     7
420
 16777215
370
    25
  0
ENDBLK
  5
170
330
16D
100
AcDbEntity
  8
0
100
AcDbBlockEnd
  0
BLOCK
  5
177
330
175
100
AcDbEntity
  8
0
100
AcDbBlockBegin
  2
block 48
 70
     0
 10
0.0
 20
0.0
 30
0.0
  3
block 48
  1

  0
SPLINE
  5
179
330
175
100
AcDbEntity
  8
Default
 62
     7
420
 16777215
370
    25
100
AcDbSpline
210
0.0
220
0.0
230
1.0
 70
     8
 71
     3
 72
     8
 73
     4
 74
     0
 42
0.0000000001
 43
0.0000000001
 12
1.0
 22
0.0
 32
0.0
 13
1.0
 23
0.0
 33
0.0
 40
0.0
 40
0.0
 40
0.0
 40
0.0
 40
1.0
 40
1.0
 40
1.0
 40
1.0
 10
339.5000004425419
 20
492.5
 30
0.0
 10
339.5000004425419
 20
507.4116882454318
 30
0.0
 10
327.4116886879729
 20
519.5
 30
0.0
 10
312.5000004425419
 20
519.5
 30
0.0
  0
ENDBLK
  5
178
330
175
100
AcDbEntity
  8
0
100
AcDbBlockEnd
  0
BLOCK
  5
17C
330
17A
100
AcDbEntity
  8
0
100
AcDbBlockBegin
  2
block 49
 70
     0
 10
0.0
 20
0.0
 30
0.0
  3
block 49
  1

  0
POLYLINE
  5
17E
330
17A
100
AcDbEntity
  8
Default
 62
     7
420
 16777215
370
    25
100
AcDb2dPolyline
 66
     1
 10
0.0
 20
0.0
 30
0.0
  0
VERTEX
  5
17F
330
17E
100
AcDbEntity
  8
Default
 62
     7
420
 16777215
370
    25
100
AcDbVertex
100
AcDb2dVertex
 10
312.5000004425419
 20
519.5
 30
0.0
  0
VERTEX
  5
180
330
17E
100
AcDbEntity
  8
Default
 62
     7
420
 16777215
370
    25
100
AcDbVertex
100
AcDb2dVertex
 10
293.5000004425419
 20
519.5
 30
0.0
  0
SEQEND
  5
181
330
17E
100
AcDbEntity
  8
Default
 62
     7
420
 16777215
370
    25
  0
ENDBLK
  5
17D
330
17A
100
AcDbEntity
  8
0
100
AcDbBlockEnd
  0
BLOCK
  5
184
330
182
100
AcDbEntity
  8
0
100
AcDbBlockBegin
  2
block 50
 70
     0
 10
0.0
 20
0.0
 30
0.0
  3
block 50
  1

  0
SPLINE
  5
186
330
182
100
AcDbEntity
  8
Default
 62
     7
420
 16777215
370
    25
100
AcDbSpline
210
0.0
220
0.0
230
1.0
 70
     8
 71
     3
 72
     8
 73
     4
 74
     0
 42
0.0000000001
 43
0.0000000001
 12
1.0
 22
0.0
 32
0.0
 13
1.0
 23
0.0
 33
0.0
 40
0.0
 40
0.0
 40
0.0
 40
0.0
 40
1.0
 40
1.0
 40
1.0
 40
1.0
 10
293.5000004425419
 20
519.5
 30
0.0
 10
278.5883121971101
 20
519.5
 30
0.0
 10
266.5000004425419
 20
507.4116882454318
 30
0.0
 10
266.5000004425419
 20
492.5
 30
0.0
  0
ENDBLK
  5
185
330
182
100
AcDbEntity
  8
0
100
AcDbBlockEnd
  0
BLOCK
  5
189
330
187
100
AcDbEntity
  8
0
100
AcDbBlockBegin
  2
block 51
 70
     0
 10
0.0
 20
0.0
 30
0.0
  3
block 51
  1

  0
POLYLINE
  5
18B
330
187
100
AcDbEntity
  8
Default
 62
     7
420
 16777215
370
    25
100
AcDb2dPolyline
 66
     1
 10
0.0
 20
0.0
 30
0.0
  0
VERTEX
  5
18C
330
18B
100
AcDbEntity
  8
Default
 62
     7
420
 16777215
370
    25
100
AcDbVertex
100
AcDb2dVertex
 10
266.5000004425419
 20
492.5
 30
0.0
  0
VERTEX
  5
18D
330
18B
100
AcDbEntity
  8
Default
 62
     7
420
 16777215
370
    25
100
AcDbVertex
100
AcDb2dVertex
 10
266.5000004425419
 20
382.5
 30
0.0
  0
SEQEND
  5
18E
330
18B
100
AcDbEntity
  8
Default
 62
     7
420
 16777215
370
    25
  0
ENDBLK
  5
18A
330
187
100
AcDbEntity
  8
0
100
AcDbBlockEnd
  0
BLOCK
  5
191
330
18F
100
AcDbEntity
  8
0
100
AcDbBlockBegin
  2
block 52
 70
     0
 10
0.0
 20
0.0
 30
0.0
  3
block 52
  1

  0
POLYLINE
  5
193
330
18F
100
AcDbEntity
  8
Default
 62
     7
420
 16777215
370
    25
100
AcDb2dPolyline
 66
     1
 10
0.0
 20
0.0
 30
0.0
  0
VERTEX
  5
194
330
193
100
AcDbEntity
  8
Default
 62
     7
420
 16777215
370
    25
100
AcDbVertex
100
AcDb2dVertex
 10
266.5000004425419
 20
382.5
 30
0.0
  0
VERTEX
  5
195
330
193
100
AcDbEntity
  8
Default
 62
     7
420
 16777215
370
    25
100
AcDbVertex
100
AcDb2dVertex
 10
262.5000004425419
 20
382.5
 30
0.0
  0
SEQEND
  5
196
330
193
100
AcDbEntity
  8
Default
 62
     7
420
 16777215
370
    25
  0
ENDBLK
  5
192
330
18F
100
AcDbEntity
  8
0
100
AcDbBlockEnd
  0
BLOCK
  5
199
330
197
100
AcDbEntity
  8
0
100
AcDbBlockBegin
  2
block 53
 70
     0
 10
0.0
 20
0.0
 30
0.0
  3
block 53
  1

  0
POLYLINE
  5
19B
330
197
100
AcDbEntity
  8
Default
 62
     7
420
 16777215
370
    25
100
AcDb2dPolyline
 66
     1
 10
0.0
 20
0.0
 30
0.0
  0
VERTEX
  5
19C
330
19B
100
AcDbEntity
  8
Default
 62
     7
420
 16777215
370
    25
100
AcDbVertex
100
AcDb2dVertex
 10
262.5000004425419
 20
382.5
 30
0.0
  0
VERTEX
  5
19D
330
19B
100
AcDbEntity
  8
Default
 62
     7
420
 16777215
370
    25
100
AcDbVertex
100
AcDb2dVertex
 10
262.5000004425419
 20
492.5
 30
0.0
  0
SEQEND
  5
19E
330
19B
100
AcDbEntity
  8
Default
 62
     7
420
 16777215
370
    25
  0
ENDBLK
  5
19A
330
197
100
AcDbEntity
  8
0
100
AcDbBlockEnd
  0
BLOCK
  5
1A1
330
19F
100
AcDbEntity
  8
0
100
AcDbBlockBegin
  2
block 54
 70
     0
 10
0.0
 20
0.0
 30
0.0
  3
block 54
  1

  0
SPLINE
  5
1A3
330
19F
100
AcDbEntity
  8
Default
 62
     7
420
 16777215
370
    25
100
AcDbSpline
210
0.0
220
0.0
230
1.0
 70
     8
 71
     3
 72
     8
 73
     4
 74
     0
 42
0.0000000001
 43
0.0000000001
 12
1.0
 22
0.0
 32
0.0
 13
1.0
 23
0.0
 33
0.0
 40
0.0
 40
0.0
 40
0.0
 40
0.0
 40
1.0
 40
1.0
 40
1.0
 40
1.0
 10
293.5000004425419
 20
523.5
 30
0.0
 10
276.3791731977872
 20
523.5
 30
0.0
 10
262.5000004425419
 20
509.6208272447548
 30
0.0
 10
262.5000004425419
 20
492.5
 30
0.0
  0
ENDBLK
  5
1A2
330
19F
100
AcDbEntity
  8
0
100
AcDbBlockEnd
  0
BLOCK
  5
1A6
330
1A4
100
AcDbEntity
  8
0
100
AcDbBlockBegin
  2
block 55
 70
     0
 10
0.0
 20
0.0
 30
0.0
  3
block 55
  1

  0
POLYLINE
  5
1A8
330
1A4
100
AcDbEntity
  8
Default
 62
     7
420
 16777215
370
    25
100
AcDb2dPolyline
 66
     1
 10
0.0
 20
0.0
 30
0.0
  0
VERTEX
  5
1A9
330
1A8
100
AcDbEntity
  8
Default
 62
     7
420
 16777215
370
    25
100
AcDbVertex
100
AcDb2dVertex
 10
293.5000004425419
 20
523.5
 30
0.0
  0
VERTEX
  5
1AA
330
1A8
100
AcDbEntity
  8
Default
 62
     7
420
 16777215
370
    25
100
AcDbVertex
100
AcDb2dVertex
 10
312.5000004425419
 20
523.5
 30
0.0
  0
SEQEND
  5
1AB
330
1A8
100
AcDbEntity
  8
Default
 62
     7
420
 16777215
370
    25
  0
ENDBLK
  5
1A7
330
1A4
100
AcDbEntity
  8
0
100
AcDbBlockEnd
  0
BLOCK
  5
1AE
330
1AC
100
AcDbEntity
  8
0
100
AcDbBlockBegin
  2
block 56
 70
     0
 10
0.0
 20
0.0
 30
0.0
  3
block 56
  1

  0
SPLINE
  5
1B0
330
1AC
100
AcDbEntity
  8
Default
 62
     7
420
 16777215
370
    25
100
AcDbSpline
210
0.0
220
0.0
230
1.0
 70
     8
 71
     3
 72
     8
 73
     4
 74
     0
 42
0.0000000001
 43
0.0000000001
 12
1.0
 22
0.0
 32
0.0
 13
1.0
 23
0.0
 33
0.0
 40
0.0
 40
0.0
 40
0.0
 40
0.0
 40
1.0
 40
1.0
 40
1.0
 40
1.0
 10
343.5000004425419
 20
492.5
 30
0.0
 10
343.5000004425419
 20
509.6208272447548
 30
0.0
 10
329.6208276872967
 20
523.5
 30
0.0
 10
312.5000004425419
 20
523.5
 30
0.0
  0
ENDBLK
  5
1AF
330
1AC
100
AcDbEntity
  8
0
100
AcDbBlockEnd
  0
BLOCK
  5
1B3
330
1B1
100
AcDbEntity
  8
0
100
AcDbBlockBegin
  2
block 57
 70
     0
 10
0.0
 20
0.0
 30
0.0
  3
block 57
  1

  0
POLYLINE
  5
1B5
330
1B1
100
AcDbEntity
  8
Default
 62
     7
420
 16777215
370
    25
100
AcDb2dPolyline
 66
     1
 10
0.0
 20
0.0
 30
0.0
  0
VERTEX
  5
1B6
330
1B5
100
AcDbEntity
  8
Default
 62
     7
420
 16777215
370
    25
100
AcDbVertex
100
AcDb2dVertex
 10
343.5000004425419
 20
492.5
 30
0.0
  0
VERTEX
  5
1B7
330
1B5
100
AcDbEntity
  8
Default
 62
     7
420
 16777215
370
    25
100
AcDbVertex
100
AcDb2dVertex
 10
343.5000004425419
 20
483.5
 30
0.0
  0
SEQEND
  5
1B8
330
1B5
100
AcDbEntity
  8
Default
 62
     7
420
 16777215
370
    25
  0
ENDBLK
  5
1B4
330
1B1
100
AcDbEntity
  8
0
100
AcDbBlockEnd
  0
BLOCK
  5
1BB
330
1B9
100
AcDbEntity
  8
0
100
AcDbBlockBegin
  2
block 58
 70
     0
 10
0.0
 20
0.0
 30
0.0
  3
block 58
  1

  0
SPLINE
  5
1BD
330
1B9
100
AcDbEntity
  8
Default
 62
     7
420
 16777215
370
    25
100
AcDbSpline
210
0.0
220
0.0
230
1.0
 70
     8
 71
     3
 72
     8
 73
     4
 74
     0
 42
0.0000000001
 43
0.0000000001
 12
1.0
 22
0.0
 32
0.0
 13
1.0
 23
0.0
 33
0.0
 40
0.0
 40
0.0
 40
0.0
 40
0.0
 40
1.0
 40
1.0
 40
1.0
 40
1.0
 10
364.5000004425419
 20
441.5
 30
0.0
 10
365.0522851923724
 20
441.5
 30
0.0
 10
365.5000004425419
 20
441.9477152501695
 30
0.0
 10
365.5000004425419
 20
442.5
 30
0.0
  0
ENDBLK
  5
1BC
330
1B9
100
AcDbEntity
  8
0
100
AcDbBlockEnd
  0
BLOCK
  5
1C0
330
1BE
100
AcDbEntity
  8
0
100
AcDbBlockBegin
  2
block 59
 70
     0
 10
0.0
 20
0.0
 30
0.0
  3
block 59
  1

  0
POLYLINE
  5
1C2
330
1BE
100
AcDbEntity
  8
Default
 62
     7
420
 16777215
370
    25
100
AcDb2dPolyline
 66
     1
 10
0.0
 20
0.0
 30
0.0
  0
VERTEX
  5
1C3
330
1C2
100
AcDbEntity
  8
Default
 62
     7
420
 16777215
370
    25
100
AcDbVertex
100
AcDb2dVertex
 10
365.5000004425419
 20
442.5
 30
0.0
  0
VERTEX
  5
1C4
330
1C2
100
AcDbEntity
  8
Default
 62
     7
420
 16777215
370
    25
100
AcDbVertex
100
AcDb2dVertex
 10
365.5000004425419
 20
451.5
 30
0.0
  0
SEQEND
  5
1C5
330
1C2
100
AcDbEntity
  8
Default
 62
     7
420
 16777215
370
    25
  0
ENDBLK
  5
1C1
330
1BE
100
AcDbEntity
  8
0
100
AcDbBlockEnd
  0
BLOCK
  5
1C8
330
1C6
100
AcDbEntity
  8
0
100
AcDbBlockBegin
  2
block 60
 70
     0
 10
0.0
 20
0.0
 30
0.0
  3
block 60
  1

  0
SPLINE
  5
1CA
330
1C6
100
AcDbEntity
  8
Default
 62
     7
420
 16777215
370
    25
100
AcDbSpline
210
0.0
220
0.0
230
1.0
 70
     8
 71
     3
 72
     8
 73
     4
 74
     0
 42
0.0000000001
 43
0.0000000001
 12
1.0
 22
0.0
 32
0.0
 13
1.0
 23
0.0
 33
0.0
 40
0.0
 40
0.0
 40
0.0
 40
0.0
 40
1.0
 40
1.0
 40
1.0
 40
1.0
 10
365.5000004425419
 20
451.5
 30
0.0
 10
365.5000004425419
 20
468.6208272447548
 30
0.0
 10
351.6208276872967
 20
482.5
 30
0.0
 10
334.5000004425419
 20
482.5
 30
0.0
  0
ENDBLK
  5
1C9
330
1C6
100
AcDbEntity
  8
0
100
AcDbBlockEnd
  0
BLOCK
  5
1CD
330
1CB
100
AcDbEntity
  8
0
100
AcDbBlockBegin
  2
block 61
 70
     0
 10
0.0
 20
0.0
 30
0.0
  3
block 61
  1

  0
POLYLINE
  5
1CF
330
1CB
100
AcDbEntity
  8
Default
 62
     7
420
 16777215
370
    25
100
AcDb2dPolyline
 66
     1
 10
0.0
 20
0.0
 30
0.0
  0
VERTEX
  5
1D0
330
1CF
100
AcDbEntity
  8
Default
 62
     7
420
 16777215
370
    25
100
AcDbVertex
100
AcDb2dVertex
 10
334.5000004425419
 20
482.5
 30
0.0
  0
VERTEX
  5
1D1
330
1CF
100
AcDbEntity
  8
Default
 62
     7
420
 16777215
370
    25
100
AcDbVertex
100
AcDb2dVertex
 10
315.5000004425419
 20
482.5
 30
0.0
  0
SEQEND
  5
1D2
330
1CF
100
AcDbEntity
  8
Default
 62
     7
420
 16777215
370
    25
  0
ENDBLK
  5
1CE
330
1CB
100
AcDbEntity
  8
0
100
AcDbBlockEnd
  0
BLOCK
  5
1D5
330
1D3
100
AcDbEntity
  8
0
100
AcDbBlockBegin
  2
block 62
 70
     0
 10
0.0
 20
0.0
 30
0.0
  3
block 62
  1

  0
SPLINE
  5
1D7
330
1D3
100
AcDbEntity
  8
Default
 62
     7
420
 16777215
370
    25
100
AcDbSpline
210
0.0
220
0.0
230
1.0
 70
     8
 71
     3
 72
     8
 73
     4
 74
     0
 42
0.0000000001
 43
0.0000000001
 12
1.0
 22
0.0
 32
0.0
 13
1.0
 23
0.0
 33
0.0
 40
0.0
 40
0.0
 40
0.0
 40
0.0
 40
1.0
 40
1.0
 40
1.0
 40
1.0
 10
315.5000004425419
 20
482.5
 30
0.0
 10
298.3791731977872
 20
482.5
 30
0.0
 10
284.5000004425419
 20
468.6208272447548
 30
0.0
 10
284.5000004425419
 20
451.5
 30
0.0
  0
ENDBLK
  5
1D6
330
1D3
100
AcDbEntity
  8
0
100
AcDbBlockEnd
  0
BLOCK
  5
1DA
330
1D8
100
AcDbEntity
  8
0
100
AcDbBlockBegin
  2
block 63
 70
     0
 10
0.0
 20
0.0
 30
0.0
  3
block 63
  1

  0
POLYLINE
  5
1DC
330
1D8
100
AcDbEntity
  8
Default
 62
     7
420
 16777215
370
    25
100
AcDb2dPolyline
 66
     1
 10
0.0
 20
0.0
 30
0.0
  0
VERTEX
  5
1DD
330
1DC
100
AcDbEntity
  8
Default
 62
     7
420
 16777215
370
    25
100
AcDbVertex
100
AcDb2dVertex
 10
284.5000004425419
 20
451.5
 30
0.0
  0
VERTEX
  5
1DE
330
1DC
100
AcDbEntity
  8
Default
 62
     7
420
 16777215
370
    25
100
AcDbVertex
100
AcDb2dVertex
 10
284.5000004425419
 20
341.5
 30
0.0
  0
SEQEND
  5
1DF
330
1DC
100
AcDbEntity
  8
Default
 62
     7
420
 16777215
370
    25
  0
ENDBLK
  5
1DB
330
1D8
100
AcDbEntity
  8
0
100
AcDbBlockEnd
  0
BLOCK
  5
1E2
330
1E0
100
AcDbEntity
  8
0
100
AcDbBlockBegin
  2
block 64
 70
     0
 10
0.0
 20
0.0
 30
0.0
  3
block 64
  1

  0
POLYLINE
  5
1E4
330
1E0
100
AcDbEntity
  8
Default
 62
     7
420
 16777215
370
    25
100
AcDb2dPolyline
 66
     1
 10
0.0
 20
0.0
 30
0.0
  0
VERTEX
  5
1E5
330
1E4
100
AcDbEntity
  8
Default
 62
     7
420
 16777215
370
    25
100
AcDbVertex
100
AcDb2dVertex
 10
284.5000004425419
 20
341.5
 30
0.0
  0
VERTEX
  5
1E6
330
1E4
100
AcDbEntity
  8
Default
 62
     7
420
 16777215
370
    25
100
AcDbVertex
100
AcDb2dVertex
 10
306.5000004425419
 20
341.5
 30
0.0
  0
SEQEND
  5
1E7
330
1E4
100
AcDbEntity
  8
Default
 62
     7
420
 16777215
370
    25
  0
ENDBLK
  5
1E3
330
1E0
100
AcDbEntity
  8
0
100
AcDbBlockEnd
  0
BLOCK
  5
1EA
330
1E8
100
AcDbEntity
  8
0
100
AcDbBlockBegin
  2
block 65
 70
     0
 10
0.0
 20
0.0
 30
0.0
  3
block 65
  1

  0
POLYLINE
  5
1EC
330
1E8
100
AcDbEntity
  8
Default
 62
     7
420
 16777215
370
    25
100
AcDb2dPolyline
 66
     1
 10
0.0
 20
0.0
 30
0.0
  0
VERTEX
  5
1ED
330
1EC
100
AcDbEntity
  8
Default
 62
     7
420
 16777215
370
    25
100
AcDbVertex
100
AcDb2dVertex
 10
306.5000004425419
 20
341.5
 30
0.0
  0
VERTEX
  5
1EE
330
1EC
100
AcDbEntity
  8
Default
 62
     7
420
 16777215
370
    25
100
AcDbVertex
100
AcDb2dVertex
 10
306.5000004425419
 20
451.5
 30
0.0
  0
SEQEND
  5
1EF
330
1EC
100
AcDbEntity
  8
Default
 62
     7
420
 16777215
370
    25
  0
ENDBLK
  5
1EB
330
1E8
100
AcDbEntity
  8
0
100
AcDbBlockEnd
  0
BLOCK
  5
1F2
330
1F0
100
AcDbEntity
  8
0
100
AcDbBlockBegin
  2
block 66
 70
     0
 10
0.0
 20
0.0
 30
0.0
  3
block 66
  1

  0
SPLINE
  5
1F4
330
1F0
100
AcDbEntity
  8
Default
 62
     7
420
 16777215
370
    25
100
AcDbSpline
210
0.0
220
0.0
230
1.0
 70
     8
 71
     3
 72
     8
 73
     4
 74
     0
 42
0.0000000001
 43
0.0000000001
 12
1.0
 22
0.0
 32
0.0
 13
1.0
 23
0.0
 33
0.0
 40
0.0
 40
0.0
 40
0.0
 40
0.0
 40
1.0
 40
1.0
 40
1.0
 40
1.0
 10
315.5000004425419
 20
460.5
 30
0.0
 10
310.5294376940656
 20
460.5
 30
0.0
 10
306.5000004425419
 20
456.4705627484773
 30
0.0
 10
306.5000004425419
 20
451.5
 30
0.0
  0
ENDBLK
  5
1F3
330
1F0
100
AcDbEntity
  8
0
100
AcDbBlockEnd
  0
BLOCK
  5
1F7
330
1F5
100
AcDbEntity
  8
0
100
AcDbBlockBegin
  2
block 67
 70
     0
 10
0.0
 20
0.0
 30
0.0
  3
block 67
  1

  0
POLYLINE
  5
1F9
330
1F5
100
AcDbEntity
  8
Default
 62
     7
420
 16777215
370
    25
100
AcDb2dPolyline
 66
     1
 10
0.0
 20
0.0
 30
0.0
  0
VERTEX
  5
1FA
330
1F9
100
AcDbEntity
  8
Default
 62
     7
420
 16777215
370
    25
100
AcDbVertex
100
AcDb2dVertex
 10
315.5000004425419
 20
460.5
 30
0.0
  0
VERTEX
  5
1FB
330
1F9
100
AcDbEntity
  8
Default
 62
     7
420
 16777215
370
    25
100
AcDbVertex
100
AcDb2dVertex
 10
334.5000004425419
 20
460.5
 30
0.0
  0
SEQEND
  5
1FC
330
1F9
100
AcDbEntity
  8
Default
 62
     7
420
 16777215
370
    25
  0
ENDBLK
  5
1F8
330
1F5
100
AcDbEntity
  8
0
100
AcDbBlockEnd
  0
BLOCK
  5
1FF
330
1FD
100
AcDbEntity
  8
0
100
AcDbBlockBegin
  2
block 68
 70
     0
 10
0.0
 20
0.0
 30
0.0
  3
block 68
  1

  0
SPLINE
  5
201
330
1FD
100
AcDbEntity
  8
Default
 62
     7
420
 16777215
370
    25
100
AcDbSpline
210
0.0
220
0.0
230
1.0
 70
     8
 71
     3
 72
     8
 73
     4
 74
     0
 42
0.0000000001
 43
0.0000000001
 12
1.0
 22
0.0
 32
0.0
 13
1.0
 23
0.0
 33
0.0
 40
0.0
 40
0.0
 40
0.0
 40
0.0
 40
1.0
 40
1.0
 40
1.0
 40
1.0
 10
343.5000004425419
 20
451.5
 30
0.0
 10
343.5000004425419
 20
456.4705627484773
 30
0.0
 10
339.4705631910183
 20
460.5
 30
0.0
 10
334.5000004425419
 20
460.5
 30
0.0
  0
ENDBLK
  5
200
330
1FD
100
AcDbEntity
  8
0
100
AcDbBlockEnd
  0
BLOCK
  5
204
330
202
100
AcDbEntity
  8
0
100
AcDbBlockBegin
  2
block 69
 70
     0
 10
0.0
 20
0.0
 30
0.0
  3
block 69
  1

  0
POLYLINE
  5
206
330
202
100
AcDbEntity
  8
Default
 62
     7
420
 16777215
370
    25
100
AcDb2dPolyline
 66
     1
 10
0.0
 20
0.0
 30
0.0
  0
VERTEX
  5
207
330
206
100
AcDbEntity
  8
Default
 62
     7
420
 16777215
370
    25
100
AcDbVertex
100
AcDb2dVertex
 10
343.5000004425419
 20
451.5
 30
0.0
  0
VERTEX
  5
208
330
206
100
AcDbEntity
  8
Default
 62
     7
420
 16777215
370
    25
100
AcDbVertex
100
AcDb2dVertex
 10
343.5000004425419
 20
442.5
 30
0.0
  0
SEQEND
  5
209
330
206
100
AcDbEntity
  8
Default
 62
     7
420
 16777215
370
    25
  0
ENDBLK
  5
205
330
202
100
AcDbEntity
  8
0
100
AcDbBlockEnd
  0
BLOCK
  5
20C
330
20A
100
AcDbEntity
  8
0
100
AcDbBlockBegin
  2
block 70
 70
     0
 10
0.0
 20
0.0
 30
0.0
  3
block 70
  1

  0
SPLINE
  5
20E
330
20A
100
AcDbEntity
  8
Default
 62
     7
420
 16777215
370
    25
100
AcDbSpline
210
0.0
220
0.0
230
1.0
 70
     8
 71
     3
 72
     8
 73
     4
 74
     0
 42
0.0000000001
 43
0.0000000001
 12
1.0
 22
0.0
 32
0.0
 13
1.0
 23
0.0
 33
0.0
 40
0.0
 40
0.0
 40
0.0
 40
0.0
 40
1.0
 40
1.0
 40
1.0
 40
1.0
 10
343.5000004425419
 20
442.5
 30
0.0
 10
343.5000004425419
 20
441.9477152501695
 30
0.0
 10
343.9477156927114
 20
441.5
 30
0.0
 10
344.5000004425419
 20
441.5
 30
0.0
  0
ENDBLK
  5
20D
330
20A
100
AcDbEntity
  8
0
100
AcDbBlockEnd
  0
BLOCK
  5
211
330
20F
100
AcDbEntity
  8
0
100
AcDbBlockBegin
  2
block 71
 70
     0
 10
0.0
 20
0.0
 30
0.0
  3
block 71
  1

  0
POLYLINE
  5
213
330
20F
100
AcDbEntity
  8
Default
 62
     7
420
 16777215
370
    25
100
AcDb2dPolyline
 66
     1
 10
0.0
 20
0.0
 30
0.0
  0
VERTEX
  5
214
330
213
100
AcDbEntity
  8
Default
 62
     7
420
 16777215
370
    25
100
AcDbVertex
100
AcDb2dVertex
 10
344.5000004425419
 20
441.5
 30
0.0
  0
VERTEX
  5
215
330
213
100
AcDbEntity
  8
Default
 62
     7
420
 16777215
370
    25
100
AcDbVertex
100
AcDb2dVertex
 10
364.5000004425419
 20
441.5
 30
0.0
  0
SEQEND
  5
216
330
213
100
AcDbEntity
  8
Default
 62
     7
420
 16777215
370
    25
  0
ENDBLK
  5
212
330
20F
100
AcDbEntity
  8
0
100
AcDbBlockEnd
  0
BLOCK
  5
219
330
217
100
AcDbEntity
  8
0
100
AcDbBlockBegin
  2
block 72
 70
     0
 10
0.0
 20
0.0
 30
0.0
  3
block 72
  1

  0
SPLINE
  5
21B
330
217
100
AcDbEntity
  8
Default
 62
     7
420
 16777215
370
    25
100
AcDbSpline
210
0.0
220
0.0
230
1.0
 70
     8
 71
     3
 72
     8
 73
     4
 74
     0
 42
0.0000000001
 43
0.0000000001
 12
1.0
 22
0.0
 32
0.0
 13
1.0
 23
0.0
 33
0.0
 40
0.0
 40
0.0
 40
0.0
 40
0.0
 40
1.0
 40
1.0
 40
1.0
 40
1.0
 10
248.4999997681925
 20
351.5000006954233
 30
0.0
 10
247.9477150183611
 20
351.5000007070612
 30
0.0
 10
247.4999997587574
 20
351.0522854663268
 30
0.0
 10
247.4999997471186
 20
350.5000007164963
 30
0.0
  0
ENDBLK
  5
21A
330
217
100
AcDbEntity
  8
0
100
AcDbBlockEnd
  0
BLOCK
  5
21E
330
21C
100
AcDbEntity
  8
0
100
AcDbBlockBegin
  2
block 73
 70
     0
 10
0.0
 20
0.0
 30
0.0
  3
block 73
  1

  0
POLYLINE
  5
220
330
21C
100
AcDbEntity
  8
Default
 62
     7
420
 16777215
370
    25
100
AcDb2dPolyline
 66
     1
 10
0.0
 20
0.0
 30
0.0
  0
VERTEX
  5
221
330
220
100
AcDbEntity
  8
Default
 62
     7
420
 16777215
370
    25
100
AcDbVertex
100
AcDb2dVertex
 10
247.4999997471186
 20
350.5000007164963
 30
0.0
  0
VERTEX
  5
222
330
220
100
AcDbEntity
  8
Default
 62
     7
420
 16777215
370
    25
100
AcDbVertex
100
AcDb2dVertex
 10
247.4999995574581
 20
341.5000007164963
 30
0.0
  0
SEQEND
  5
223
330
220
100
AcDbEntity
  8
Default
 62
     7
420
 16777215
370
    25
  0
ENDBLK
  5
21F
330
21C
100
AcDbEntity
  8
0
100
AcDbBlockEnd
  0
BLOCK
  5
226
330
224
100
AcDbEntity
  8
0
100
AcDbBlockBegin
  2
block 74
 70
     0
 10
0.0
 20
0.0
 30
0.0
  3
block 74
  1

  0
SPLINE
  5
228
330
224
100
AcDbEntity
  8
Default
 62
     7
420
 16777215
370
    25
100
AcDbSpline
210
0.0
220
0.0
230
1.0
 70
     8
 71
     3
 72
     8
 73
     4
 74
     0
 42
0.0000000001
 43
0.0000000001
 12
1.0
 22
0.0
 32
0.0
 13
1.0
 23
0.0
 33
0.0
 40
0.0
 40
0.0
 40
0.0
 40
0.0
 40
1.0
 40
1.0
 40
1.0
 40
1.0
 10
247.4999995574581
 20
341.5000007164963
 30
0.0
 10
247.4999991966633
 20
324.3791734717415
 30
0.0
 10
261.3791716594269
 20
310.5000004240155
 30
0.0
 10
278.4999989041817
 20
310.5000000632208
 30
0.0
  0
ENDBLK
  5
227
330
224
100
AcDbEntity
  8
0
100
AcDbBlockEnd
  0
BLOCK
  5
22B
330
229
100
AcDbEntity
  8
0
100
AcDbBlockBegin
  2
block 75
 70
     0
 10
0.0
 20
0.0
 30
0.0
  3
block 75
  1

  0
POLYLINE
  5
22D
330
229
100
AcDbEntity
  8
Default
 62
     7
420
 16777215
370
    25
100
AcDb2dPolyline
 66
     1
 10
0.0
 20
0.0
 30
0.0
  0
VERTEX
  5
22E
330
22D
100
AcDbEntity
  8
Default
 62
     7
420
 16777215
370
    25
100
AcDbVertex
100
AcDb2dVertex
 10
278.4999989041817
 20
310.5000000632208
 30
0.0
  0
VERTEX
  5
22F
330
22D
100
AcDbEntity
  8
Default
 62
     7
420
 16777215
370
    25
100
AcDbVertex
100
AcDb2dVertex
 10
297.4999989041817
 20
310.4999996628248
 30
0.0
  0
SEQEND
  5
230
330
22D
100
AcDbEntity
  8
Default
 62
     7
420
 16777215
370
    25
  0
ENDBLK
  5
22C
330
229
100
AcDbEntity
  8
0
100
AcDbBlockEnd
  0
BLOCK
  5
233
330
231
100
AcDbEntity
  8
0
100
AcDbBlockBegin
  2
block 76
 70
     0
 10
0.0
 20
0.0
 30
0.0
  3
block 76
  1

  0
SPLINE
  5
235
330
231
100
AcDbEntity
  8
Default
 62
     7
420
 16777215
370
    25
100
AcDbSpline
210
0.0
220
0.0
230
1.0
 70
     8
 71
     3
 72
     8
 73
     4
 74
     0
 42
0.0000000001
 43
0.0000000001
 12
1.0
 22
0.0
 32
0.0
 13
1.0
 23
0.0
 33
0.0
 40
0.0
 40
0.0
 40
0.0
 40
0.0
 40
1.0
 40
1.0
 40
1.0
 40
1.0
 10
297.4999989041817
 20
310.4999996628248
 30
0.0
 10
314.6208261489373
 20
310.4999993020301
 30
0.0
 10
328.4999991966633
 20
324.3791717647946
 30
0.0
 10
328.4999995574581
 20
341.4999990095494
 30
0.0
  0
ENDBLK
  5
234
330
231
100
AcDbEntity
  8
0
100
AcDbBlockEnd
  0
BLOCK
  5
238
330
236
100
AcDbEntity
  8
0
100
AcDbBlockBegin
  2
block 77
 70
     0
 10
0.0
 20
0.0
 30
0.0
  3
block 77
  1

  0
POLYLINE
  5
23A
330
236
100
AcDbEntity
  8
Default
 62
     7
420
 16777215
370
    25
100
AcDb2dPolyline
 66
     1
 10
0.0
 20
0.0
 30
0.0
  0
VERTEX
  5
23B
330
23A
100
AcDbEntity
  8
Default
 62
     7
420
 16777215
370
    25
100
AcDbVertex
100
AcDb2dVertex
 10
328.4999995574581
 20
341.4999990095494
 30
0.0
  0
VERTEX
  5
23C
330
23A
100
AcDbEntity
  8
Default
 62
     7
420
 16777215
370
    25
100
AcDbVertex
100
AcDb2dVertex
 10
328.5000018755345
 20
451.4999990095494
 30
0.0
  0
SEQEND
  5
23D
330
23A
100
AcDbEntity
  8
Default
 62
     7
420
 16777215
370
    25
  0
ENDBLK
  5
239
330
236
100
AcDbEntity
  8
0
100
AcDbBlockEnd
  0
BLOCK
  5
240
330
23E
100
AcDbEntity
  8
0
100
AcDbBlockBegin
  2
block 78
 70
     0
 10
0.0
 20
0.0
 30
0.0
  3
block 78
  1

  0
POLYLINE
  5
242
330
23E
100
AcDbEntity
  8
Default
 62
     7
420
 16777215
370
    25
100
AcDb2dPolyline
 66
     1
 10
0.0
 20
0.0
 30
0.0
  0
VERTEX
  5
243
330
242
100
AcDbEntity
  8
Default
 62
     7
420
 16777215
370
    25
100
AcDbVertex
100
AcDb2dVertex
 10
328.5000018755345
 20
451.4999990095494
 30
0.0
  0
VERTEX
  5
244
330
242
100
AcDbEntity
  8
Default
 62
     7
420
 16777215
370
    25
100
AcDbVertex
100
AcDb2dVertex
 10
306.5000018755345
 20
451.4999994731643
 30
0.0
  0
SEQEND
  5
245
330
242
100
AcDbEntity
  8
Default
 62
     7
420
 16777215
370
    25
  0
ENDBLK
  5
241
330
23E
100
AcDbEntity
  8
0
100
AcDbBlockEnd
  0
BLOCK
  5
248
330
246
100
AcDbEntity
  8
0
100
AcDbBlockBegin
  2
block 79
 70
     0
 10
0.0
 20
0.0
 30
0.0
  3
block 79
  1

  0
POLYLINE
  5
24A
330
246
100
AcDbEntity
  8
Default
 62
     7
420
 16777215
370
    25
100
AcDb2dPolyline
 66
     1
 10
0.0
 20
0.0
 30
0.0
  0
VERTEX
  5
24B
330
24A
100
AcDbEntity
  8
Default
 62
     7
420
 16777215
370
    25
100
AcDbVertex
100
AcDb2dVertex
 10
306.5000018755345
 20
451.4999994731643
 30
0.0
  0
VERTEX
  5
24C
330
24A
100
AcDbEntity
  8
Default
 62
     7
420
 16777215
370
    25
100
AcDbVertex
100
AcDb2dVertex
 10
306.4999995574581
 20
341.4999994731643
 30
0.0
  0
SEQEND
  5
24D
330
24A
100
AcDbEntity
  8
Default
 62
     7
420
 16777215
370
    25
  0
ENDBLK
  5
249
330
246
100
AcDbEntity
  8
0
100
AcDbBlockEnd
  0
BLOCK
  5
250
330
24E
100
AcDbEntity
  8
0
100
AcDbBlockBegin
  2
block 80
 70
     0
 10
0.0
 20
0.0
 30
0.0
  3
block 80
  1

  0
SPLINE
  5
252
330
24E
100
AcDbEntity
  8
Default
 62
     7
420
 16777215
370
    25
100
AcDbSpline
210
0.0
220
0.0
230
1.0
 70
     8
 71
     3
 72
     8
 73
     4
 74
     0
 42
0.0000000001
 43
0.0000000001
 12
1.0
 22
0.0
 32
0.0
 13
1.0
 23
0.0
 33
0.0
 40
0.0
 40
0.0
 40
0.0
 40
0.0
 40
1.0
 40
1.0
 40
1.0
 40
1.0
 10
297.4999993677975
 20
332.4999996628248
 30
0.0
 10
302.4705621162748
 20
332.4999995580783
 30
0.0
 10
306.4999994527116
 20
336.5294367246879
 30
0.0
 10
306.4999995574581
 20
341.4999994731643
 30
0.0
  0
ENDBLK
  5
251
330
24E
100
AcDbEntity
  8
0
100
AcDbBlockEnd
  0
BLOCK
  5
255
330
253
100
AcDbEntity
  8
0
100
AcDbBlockBegin
  2
block 81
 70
     0
 10
0.0
 20
0.0
 30
0.0
  3
block 81
  1

  0
POLYLINE
  5
257
330
253
100
AcDbEntity
  8
Default
 62
     7
420
 16777215
370
    25
100
AcDb2dPolyline
 66
     1
 10
0.0
 20
0.0
 30
0.0
  0
VERTEX
  5
258
330
257
100
AcDbEntity
  8
Default
 62
     7
420
 16777215
370
    25
100
AcDbVertex
100
AcDb2dVertex
 10
297.4999993677975
 20
332.4999996628248
 30
0.0
  0
VERTEX
  5
259
330
257
100
AcDbEntity
  8
Default
 62
     7
420
 16777215
370
    25
100
AcDbVertex
100
AcDb2dVertex
 10
278.4999993677975
 20
332.5000000632208
 30
0.0
  0
SEQEND
  5
25A
330
257
100
AcDbEntity
  8
Default
 62
     7
420
 16777215
370
    25
  0
ENDBLK
  5
256
330
253
100
AcDbEntity
  8
0
100
AcDbBlockEnd
  0
BLOCK
  5
25D
330
25B
100
AcDbEntity
  8
0
100
AcDbBlockBegin
  2
block 82
 70
     0
 10
0.0
 20
0.0
 30
0.0
  3
block 82
  1

  0
SPLINE
  5
25F
330
25B
100
AcDbEntity
  8
Default
 62
     7
420
 16777215
370
    25
100
AcDbSpline
210
0.0
220
0.0
230
1.0
 70
     8
 71
     3
 72
     8
 73
     4
 74
     0
 42
0.0000000001
 43
0.0000000001
 12
1.0
 22
0.0
 32
0.0
 13
1.0
 23
0.0
 33
0.0
 40
0.0
 40
0.0
 40
0.0
 40
0.0
 40
1.0
 40
1.0
 40
1.0
 40
1.0
 10
269.4999995574581
 20
341.5000002528814
 30
0.0
 10
269.4999994527116
 20
336.5294375044032
 30
0.0
 10
273.5294366193202
 20
332.5000001679673
 30
0.0
 10
278.4999993677975
 20
332.5000000632208
 30
0.0
  0
ENDBLK
  5
25E
330
25B
100
AcDbEntity
  8
0
100
AcDbBlockEnd
  0
BLOCK
  5
262
330
260
100
AcDbEntity
  8
0
100
AcDbBlockBegin
  2
block 83
 70
     0
 10
0.0
 20
0.0
 30
0.0
  3
block 83
  1

  0
POLYLINE
  5
264
330
260
100
AcDbEntity
  8
Default
 62
     7
420
 16777215
370
    25
100
AcDb2dPolyline
 66
     1
 10
0.0
 20
0.0
 30
0.0
  0
VERTEX
  5
265
330
264
100
AcDbEntity
  8
Default
 62
     7
420
 16777215
370
    25
100
AcDbVertex
100
AcDb2dVertex
 10
269.4999995574581
 20
341.5000002528814
 30
0.0
  0
VERTEX
  5
266
330
264
100
AcDbEntity
  8
Default
 62
     7
420
 16777215
370
    25
100
AcDbVertex
100
AcDb2dVertex
 10
269.4999997471186
 20
350.5000002528814
 30
0.0
  0
SEQEND
  5
267
330
264
100
AcDbEntity
  8
Default
 62
     7
420
 16777215
370
    25
  0
ENDBLK
  5
263
330
260
100
AcDbEntity
  8
0
100
AcDbBlockEnd
  0
BLOCK
  5
26A
330
268
100
AcDbEntity
  8
0
100
AcDbBlockBegin
  2
block 84
 70
     0
 10
0.0
 20
0.0
 30
0.0
  3
block 84
  1

  0
SPLINE
  5
26C
330
268
100
AcDbEntity
  8
Default
 62
     7
420
 16777215
370
    25
100
AcDbSpline
210
0.0
220
0.0
230
1.0
 70
     8
 71
     3
 72
     8
 73
     4
 74
     0
 42
0.0000000001
 43
0.0000000001
 12
1.0
 22
0.0
 32
0.0
 13
1.0
 23
0.0
 33
0.0
 40
0.0
 40
0.0
 40
0.0
 40
0.0
 40
1.0
 40
1.0
 40
1.0
 40
1.0
 10
269.4999997471186
 20
350.5000002528814
 30
0.0
 10
269.4999997587574
 20
351.0522850027119
 30
0.0
 10
269.052284518023
 20
351.5000002623165
 30
0.0
 10
268.4999997681925
 20
351.5000002739544
 30
0.0
  0
ENDBLK
  5
26B
330
268
100
AcDbEntity
  8
0
100
AcDbBlockEnd
  0
BLOCK
  5
26F
330
26D
100
AcDbEntity
  8
0
100
AcDbBlockBegin
  2
block 85
 70
     0
 10
0.0
 20
0.0
 30
0.0
  3
block 85
  1

  0
POLYLINE
  5
271
330
26D
100
AcDbEntity
  8
Default
 62
     7
420
 16777215
370
    25
100
AcDb2dPolyline
 66
     1
 10
0.0
 20
0.0
 30
0.0
  0
VERTEX
  5
272
330
271
100
AcDbEntity
  8
Default
 62
     7
420
 16777215
370
    25
100
AcDbVertex
100
AcDb2dVertex
 10
268.4999997681925
 20
351.5000002739544
 30
0.0
  0
VERTEX
  5
273
330
271
100
AcDbEntity
  8
Default
 62
     7
420
 16777215
370
    25
100
AcDbVertex
100
AcDb2dVertex
 10
248.4999997681925
 20
351.5000006954233
 30
0.0
  0
SEQEND
  5
274
330
271
100
AcDbEntity
  8
Default
 62
     7
420
 16777215
370
    25
  0
ENDBLK
  5
270
330
26D
100
AcDbEntity
  8
0
100
AcDbBlockEnd
  0
BLOCK
  5
277
330
275
100
AcDbEntity
  8
0
100
AcDbBlockBegin
  2
block 86
 70
     0
 10
0.0
 20
0.0
 30
0.0
  3
block 86
  1

  0
SPLINE
  5
279
330
275
100
AcDbEntity
  8
Default
 62
     7
420
 16777215
370
    25
100
AcDbSpline
210
0.0
220
0.0
230
1.0
 70
     8
 71
     3
 72
     8
 73
     4
 74
     0
 42
0.0000000001
 43
0.0000000001
 12
1.0
 22
0.0
 32
0.0
 13
1.0
 23
0.0
 33
0.0
 40
0.0
 40
0.0
 40
0.0
 40
0.0
 40
1.0
 40
1.0
 40
1.0
 40
1.0
 10
484.235533735553
 20
438.6476111014008
 30
0.0
 10
484.7878184853835
 20
438.6476111014008
 30
0.0
 10
485.235533735553
 20
439.0953263515703
 30
0.0
 10
485.235533735553
 20
439.6476111014008
 30
0.0
  0
ENDBLK
  5
278
330
275
100
AcDbEntity
  8
0
100
AcDbBlockEnd
  0
BLOCK
  5
27C
330
27A
100
AcDbEntity
  8
0
100
AcDbBlockBegin
  2
block 87
 70
     0
 10
0.0
 20
0.0
 30
0.0
  3
block 87
  1

  0
POLYLINE
  5
27E
330
27A
100
AcDbEntity
  8
Default
 62
     7
420
 16777215
370
    25
100
AcDb2dPolyline
 66
     1
 10
0.0
 20
0.0
 30
0.0
  0
VERTEX
  5
27F
330
27E
100
AcDbEntity
  8
Default
 62
     7
420
 16777215
370
    25
100
AcDbVertex
100
AcDb2dVertex
 10
484.235533735553
 20
438.6476111014008
 30
0.0
  0
VERTEX
  5
280
330
27E
100
AcDbEntity
  8
Default
 62
     7
420
 16777215
370
    25
100
AcDbVertex
100
AcDb2dVertex
 10
464.235533735553
 20
438.6476111014008
 30
0.0
  0
SEQEND
  5
281
330
27E
100
AcDbEntity
  8
Default
 62
     7
420
 16777215
370
    25
  0
ENDBLK
  5
27D
330
27A
100
AcDbEntity
  8
0
100
AcDbBlockEnd
  0
BLOCK
  5
284
330
282
100
AcDbEntity
  8
0
100
AcDbBlockBegin
  2
block 88
 70
     0
 10
0.0
 20
0.0
 30
0.0
  3
block 88
  1

  0
SPLINE
  5
286
330
282
100
AcDbEntity
  8
Default
 62
     7
420
 16777215
370
    25
100
AcDbSpline
210
0.0
220
0.0
230
1.0
 70
     8
 71
     3
 72
     8
 73
     4
 74
     0
 42
0.0000000001
 43
0.0000000001
 12
1.0
 22
0.0
 32
0.0
 13
1.0
 23
0.0
 33
0.0
 40
0.0
 40
0.0
 40
0.0
 40
0.0
 40
1.0
 40
1.0
 40
1.0
 40
1.0
 10
463.235533735553
 20
439.6476111014008
 30
0.0
 10
463.235533735553
 20
439.0953263515703
 30
0.0
 10
463.6832489857225
 20
438.6476111014008
 30
0.0
 10
464.235533735553
 20
438.6476111014008
 30
0.0
  0
ENDBLK
  5
285
330
282
100
AcDbEntity
  8
0
100
AcDbBlockEnd
  0
BLOCK
  5
289
330
287
100
AcDbEntity
  8
0
100
AcDbBlockBegin
  2
block 89
 70
     0
 10
0.0
 20
0.0
 30
0.0
  3
block 89
  1

  0
POLYLINE
  5
28B
330
287
100
AcDbEntity
  8
Default
 62
     7
420
 16777215
370
    25
100
AcDb2dPolyline
 66
     1
 10
0.0
 20
0.0
 30
0.0
  0
VERTEX
  5
28C
330
28B
100
AcDbEntity
  8
Default
 62
     7
420
 16777215
370
    25
100
AcDbVertex
100
AcDb2dVertex
 10
463.235533735553
 20
439.6476111014008
 30
0.0
  0
VERTEX
  5
28D
330
28B
100
AcDbEntity
  8
Default
 62
     7
420
 16777215
370
    25
100
AcDbVertex
100
AcDb2dVertex
 10
463.235533735553
 20
448.6476111014008
 30
0.0
  0
SEQEND
  5
28E
330
28B
100
AcDbEntity
  8
Default
 62
     7
420
 16777215
370
    25
  0
ENDBLK
  5
28A
330
287
100
AcDbEntity
  8
0
100
AcDbBlockEnd
  0
BLOCK
  5
291
330
28F
100
AcDbEntity
  8
0
100
AcDbBlockBegin
  2
block 90
 70
     0
 10
0.0
 20
0.0
 30
0.0
  3
block 90
  1

  0
SPLINE
  5
293
330
28F
100
AcDbEntity
  8
Default
 62
     7
420
 16777215
370
    25
100
AcDbSpline
210
0.0
220
0.0
230
1.0
 70
     8
 71
     3
 72
     8
 73
     4
 74
     0
 42
0.0000000001
 43
0.0000000001
 12
1.0
 22
0.0
 32
0.0
 13
1.0
 23
0.0
 33
0.0
 40
0.0
 40
0.0
 40
0.0
 40
0.0
 40
1.0
 40
1.0
 40
1.0
 40
1.0
 10
463.235533735553
 20
448.6476111014008
 30
0.0
 10
463.235533735553
 20
453.6181738498772
 30
0.0
 10
459.2060964840293
 20
457.6476111014008
 30
0.0
 10
454.235533735553
 20
457.6476111014008
 30
0.0
  0
ENDBLK
  5
292
330
28F
100
AcDbEntity
  8
0
100
AcDbBlockEnd
  0
BLOCK
  5
296
330
294
100
AcDbEntity
  8
0
100
AcDbBlockBegin
  2
block 91
 70
     0
 10
0.0
 20
0.0
 30
0.0
  3
block 91
  1

  0
POLYLINE
  5
298
330
294
100
AcDbEntity
  8
Default
 62
     7
420
 16777215
370
    25
100
AcDb2dPolyline
 66
     1
 10
0.0
 20
0.0
 30
0.0
  0
VERTEX
  5
299
330
298
100
AcDbEntity
  8
Default
 62
     7
420
 16777215
370
    25
100
AcDbVertex
100
AcDb2dVertex
 10
454.235533735553
 20
457.6476111014008
 30
0.0
  0
VERTEX
  5
29A
330
298
100
AcDbEntity
  8
Default
 62
     7
420
 16777215
370
    25
100
AcDbVertex
100
AcDb2dVertex
 10
435.235533735553
 20
457.6476111014008
 30
0.0
  0
SEQEND
  5
29B
330
298
100
AcDbEntity
  8
Default
 62
     7
420
 16777215
370
    25
  0
ENDBLK
  5
297
330
294
100
AcDbEntity
  8
0
100
AcDbBlockEnd
  0
BLOCK
  5
29E
330
29C
100
AcDbEntity
  8
0
100
AcDbBlockBegin
  2
block 92
 70
     0
 10
0.0
 20
0.0
 30
0.0
  3
block 92
  1

  0
SPLINE
  5
2A0
330
29C
100
AcDbEntity
  8
Default
 62
     7
420
 16777215
370
    25
100
AcDbSpline
210
0.0
220
0.0
230
1.0
 70
     8
 71
     3
 72
     8
 73
     4
 74
     0
 42
0.0000000001
 43
0.0000000001
 12
1.0
 22
0.0
 32
0.0
 13
1.0
 23
0.0
 33
0.0
 40
0.0
 40
0.0
 40
0.0
 40
0.0
 40
1.0
 40
1.0
 40
1.0
 40
1.0
 10
435.235533735553
 20
457.6476111014008
 30
0.0
 10
430.2649709870766
 20
457.6476111014008
 30
0.0
 10
426.235533735553
 20
453.6181738498772
 30
0.0
 10
426.235533735553
 20
448.6476111014008
 30
0.0
  0
ENDBLK
  5
29F
330
29C
100
AcDbEntity
  8
0
100
AcDbBlockEnd
  0
BLOCK
  5
2A3
330
2A1
100
AcDbEntity
  8
0
100
AcDbBlockBegin
  2
block 93
 70
     0
 10
0.0
 20
0.0
 30
0.0
  3
block 93
  1

  0
POLYLINE
  5
2A5
330
2A1
100
AcDbEntity
  8
Default
 62
     7
420
 16777215
370
    25
100
AcDb2dPolyline
 66
     1
 10
0.0
 20
0.0
 30
0.0
  0
VERTEX
  5
2A6
330
2A5
100
AcDbEntity
  8
Default
 62
     7
420
 16777215
370
    25
100
AcDbVertex
100
AcDb2dVertex
 10
426.235533735553
 20
448.6476111014008
 30
0.0
  0
VERTEX
  5
2A7
330
2A5
100
AcDbEntity
  8
Default
 62
     7
420
 16777215
370
    25
100
AcDbVertex
100
AcDb2dVertex
 10
426.235533735553
 20
338.6476111014017
 30
0.0
  0
SEQEND
  5
2A8
330
2A5
100
AcDbEntity
  8
Default
 62
     7
420
 16777215
370
    25
  0
ENDBLK
  5
2A4
330
2A1
100
AcDbEntity
  8
0
100
AcDbBlockEnd
  0
BLOCK
  5
2AB
330
2A9
100
AcDbEntity
  8
0
100
AcDbBlockBegin
  2
block 94
 70
     0
 10
0.0
 20
0.0
 30
0.0
  3
block 94
  1

  0
POLYLINE
  5
2AD
330
2A9
100
AcDbEntity
  8
Default
 62
     7
420
 16777215
370
    25
100
AcDb2dPolyline
 66
     1
 10
0.0
 20
0.0
 30
0.0
  0
VERTEX
  5
2AE
330
2AD
100
AcDbEntity
  8
Default
 62
     7
420
 16777215
370
    25
100
AcDbVertex
100
AcDb2dVertex
 10
426.235533735553
 20
338.6476111014017
 30
0.0
  0
VERTEX
  5
2AF
330
2AD
100
AcDbEntity
  8
Default
 62
     7
420
 16777215
370
    25
100
AcDbVertex
100
AcDb2dVertex
 10
422.235533735553
 20
338.6476111014017
 30
0.0
  0
SEQEND
  5
2B0
330
2AD
100
AcDbEntity
  8
Default
 62
     7
420
 16777215
370
    25
  0
ENDBLK
  5
2AC
330
2A9
100
AcDbEntity
  8
0
100
AcDbBlockEnd
  0
BLOCK
  5
2B3
330
2B1
100
AcDbEntity
  8
0
100
AcDbBlockBegin
  2
block 95
 70
     0
 10
0.0
 20
0.0
 30
0.0
  3
block 95
  1

  0
POLYLINE
  5
2B5
330
2B1
100
AcDbEntity
  8
Default
 62
     7
420
 16777215
370
    25
100
AcDb2dPolyline
 66
     1
 10
0.0
 20
0.0
 30
0.0
  0
VERTEX
  5
2B6
330
2B5
100
AcDbEntity
  8
Default
 62
     7
420
 16777215
370
    25
100
AcDbVertex
100
AcDb2dVertex
 10
422.235533735553
 20
338.6476111014017
 30
0.0
  0
VERTEX
  5
2B7
330
2B5
100
AcDbEntity
  8
Default
 62
     7
420
 16777215
370
    25
100
AcDbVertex
100
AcDb2dVertex
 10
422.235533735553
 20
448.6476111014008
 30
0.0
  0
SEQEND
  5
2B8
330
2B5
100
AcDbEntity
  8
Default
 62
     7
420
 16777215
370
    25
  0
ENDBLK
  5
2B4
330
2B1
100
AcDbEntity
  8
0
100
AcDbBlockEnd
  0
BLOCK
  5
2BB
330
2B9
100
AcDbEntity
  8
0
100
AcDbBlockBegin
  2
block 96
 70
     0
 10
0.0
 20
0.0
 30
0.0
  3
block 96
  1

  0
SPLINE
  5
2BD
330
2B9
100
AcDbEntity
  8
Default
 62
     7
420
 16777215
370
    25
100
AcDbSpline
210
0.0
220
0.0
230
1.0
 70
     8
 71
     3
 72
     8
 73
     4
 74
     0
 42
0.0000000001
 43
0.0000000001
 12
1.0
 22
0.0
 32
0.0
 13
1.0
 23
0.0
 33
0.0
 40
0.0
 40
0.0
 40
0.0
 40
0.0
 40
1.0
 40
1.0
 40
1.0
 40
1.0
 10
435.235533735553
 20
461.6476111014008
 30
0.0
 10
428.0558319877528
 20
461.6476111014008
 30
0.0
 10
422.235533735553
 20
455.827312849201
 30
0.0
 10
422.235533735553
 20
448.6476111014008
 30
0.0
  0
ENDBLK
  5
2BC
330
2B9
100
AcDbEntity
  8
0
100
AcDbBlockEnd
  0
BLOCK
  5
2C0
330
2BE
100
AcDbEntity
  8
0
100
AcDbBlockBegin
  2
block 97
 70
     0
 10
0.0
 20
0.0
 30
0.0
  3
block 97
  1

  0
POLYLINE
  5
2C2
330
2BE
100
AcDbEntity
  8
Default
 62
     7
420
 16777215
370
    25
100
AcDb2dPolyline
 66
     1
 10
0.0
 20
0.0
 30
0.0
  0
VERTEX
  5
2C3
330
2C2
100
AcDbEntity
  8
Default
 62
     7
420
 16777215
370
    25
100
AcDbVertex
100
AcDb2dVertex
 10
435.235533735553
 20
461.6476111014008
 30
0.0
  0
VERTEX
  5
2C4
330
2C2
100
AcDbEntity
  8
Default
 62
     7
420
 16777215
370
    25
100
AcDbVertex
100
AcDb2dVertex
 10
454.235533735553
 20
461.6476111014008
 30
0.0
  0
SEQEND
  5
2C5
330
2C2
100
AcDbEntity
  8
Default
 62
     7
420
 16777215
370
    25
  0
ENDBLK
  5
2C1
330
2BE
100
AcDbEntity
  8
0
100
AcDbBlockEnd
  0
BLOCK
  5
2C8
330
2C6
100
AcDbEntity
  8
0
100
AcDbBlockBegin
  2
block 98
 70
     0
 10
0.0
 20
0.0
 30
0.0
  3
block 98
  1

  0
SPLINE
  5
2CA
330
2C6
100
AcDbEntity
  8
Default
 62
     7
420
 16777215
370
    25
100
AcDbSpline
210
0.0
220
0.0
230
1.0
 70
     8
 71
     3
 72
     8
 73
     4
 74
     0
 42
0.0000000001
 43
0.0000000001
 12
1.0
 22
0.0
 32
0.0
 13
1.0
 23
0.0
 33
0.0
 40
0.0
 40
0.0
 40
0.0
 40
0.0
 40
1.0
 40
1.0
 40
1.0
 40
1.0
 10
467.235533735553
 20
448.6476111014008
 30
0.0
 10
467.235533735553
 20
455.827312849201
 30
0.0
 10
461.4152354833532
 20
461.6476111014008
 30
0.0
 10
454.235533735553
 20
461.6476111014008
 30
0.0
  0
ENDBLK
  5
2C9
330
2C6
100
AcDbEntity
  8
0
100
AcDbBlockEnd
  0
BLOCK
  5
2CD
330
2CB
100
AcDbEntity
  8
0
100
AcDbBlockBegin
  2
block 99
 70
     0
 10
0.0
 20
0.0
 30
0.0
  3
block 99
  1

  0
POLYLINE
  5
2CF
330
2CB
100
AcDbEntity
  8
Default
 62
     7
420
 16777215
370
    25
100
AcDb2dPolyline
 66
     1
 10
0.0
 20
0.0
 30
0.0
  0
VERTEX
  5
2D0
330
2CF
100
AcDbEntity
  8
Default
 62
     7
420
 16777215
370
    25
100
AcDbVertex
100
AcDb2dVertex
 10
467.235533735553
 20
448.6476111014008
 30
0.0
  0
VERTEX
  5
2D1
330
2CF
100
AcDbEntity
  8
Default
 62
     7
420
 16777215
370
    25
100
AcDbVertex
100
AcDb2dVertex
 10
467.235533735553
 20
443.6476111014008
 30
0.0
  0
SEQEND
  5
2D2
330
2CF
100
AcDbEntity
  8
Default
 62
     7
420
 16777215
370
    25
  0
ENDBLK
  5
2CE
330
2CB
100
AcDbEntity
  8
0
100
AcDbBlockEnd
  0
BLOCK
  5
2D5
330
2D3
100
AcDbEntity
  8
0
100
AcDbBlockBegin
  2
block 100
 70
     0
 10
0.0
 20
0.0
 30
0.0
  3
block 100
  1

  0
SPLINE
  5
2D7
330
2D3
100
AcDbEntity
  8
Default
 62
     7
420
 16777215
370
    25
100
AcDbSpline
210
0.0
220
0.0
230
1.0
 70
     8
 71
     3
 72
     8
 73
     4
 74
     0
 42
0.0000000001
 43
0.0000000001
 12
1.0
 22
0.0
 32
0.0
 13
1.0
 23
0.0
 33
0.0
 40
0.0
 40
0.0
 40
0.0
 40
0.0
 40
1.0
 40
1.0
 40
1.0
 40
1.0
 10
467.235533735553
 20
443.6476111014008
 30
0.0
 10
467.235533735553
 20
443.0953263515703
 30
0.0
 10
467.6832489857225
 20
442.6476111014008
 30
0.0
 10
468.235533735553
 20
442.6476111014008
 30
0.0
  0
ENDBLK
  5
2D6
330
2D3
100
AcDbEntity
  8
0
100
AcDbBlockEnd
  0
BLOCK
  5
2DA
330
2D8
100
AcDbEntity
  8
0
100
AcDbBlockBegin
  2
block 101
 70
     0
 10
0.0
 20
0.0
 30
0.0
  3
block 101
  1

  0
POLYLINE
  5
2DC
330
2D8
100
AcDbEntity
  8
Default
 62
     7
420
 16777215
370
    25
100
AcDb2dPolyline
 66
     1
 10
0.0
 20
0.0
 30
0.0
  0
VERTEX
  5
2DD
330
2DC
100
AcDbEntity
  8
Default
 62
     7
420
 16777215
370
    25
100
AcDbVertex
100
AcDb2dVertex
 10
468.235533735553
 20
442.6476111014008
 30
0.0
  0
VERTEX
  5
2DE
330
2DC
100
AcDbEntity
  8
Default
 62
     7
420
 16777215
370
    25
100
AcDbVertex
100
AcDb2dVertex
 10
480.235533735553
 20
442.6476111014008
 30
0.0
  0
SEQEND
  5
2DF
330
2DC
100
AcDbEntity
  8
Default
 62
     7
420
 16777215
370
    25
  0
ENDBLK
  5
2DB
330
2D8
100
AcDbEntity
  8
0
100
AcDbBlockEnd
  0
BLOCK
  5
2E2
330
2E0
100
AcDbEntity
  8
0
100
AcDbBlockBegin
  2
block 102
 70
     0
 10
0.0
 20
0.0
 30
0.0
  3
block 102
  1

  0
SPLINE
  5
2E4
330
2E0
100
AcDbEntity
  8
Default
 62
     7
420
 16777215
370
    25
100
AcDbSpline
210
0.0
220
0.0
230
1.0
 70
     8
 71
     3
 72
     8
 73
     4
 74
     0
 42
0.0000000001
 43
0.0000000001
 12
1.0
 22
0.0
 32
0.0
 13
1.0
 23
0.0
 33
0.0
 40
0.0
 40
0.0
 40
0.0
 40
0.0
 40
1.0
 40
1.0
 40
1.0
 40
1.0
 10
480.235533735553
 20
442.6476111014008
 30
0.0
 10
480.7878184853835
 20
442.6476111014008
 30
0.0
 10
481.235533735553
 20
443.0953263515703
 30
0.0
 10
481.235533735553
 20
443.6476111014008
 30
0.0
  0
ENDBLK
  5
2E3
330
2E0
100
AcDbEntity
  8
0
100
AcDbBlockEnd
  0
BLOCK
  5
2E7
330
2E5
100
AcDbEntity
  8
0
100
AcDbBlockBegin
  2
block 103
 70
     0
 10
0.0
 20
0.0
 30
0.0
  3
block 103
  1

  0
POLYLINE
  5
2E9
330
2E5
100
AcDbEntity
  8
Default
 62
     7
420
 16777215
370
    25
100
AcDb2dPolyline
 66
     1
 10
0.0
 20
0.0
 30
0.0
  0
VERTEX
  5
2EA
330
2E9
100
AcDbEntity
  8
Default
 62
     7
420
 16777215
370
    25
100
AcDbVertex
100
AcDb2dVertex
 10
481.235533735553
 20
443.6476111014008
 30
0.0
  0
VERTEX
  5
2EB
330
2E9
100
AcDbEntity
  8
Default
 62
     7
420
 16777215
370
    25
100
AcDbVertex
100
AcDb2dVertex
 10
481.235533735553
 20
448.6476111014008
 30
0.0
  0
SEQEND
  5
2EC
330
2E9
100
AcDbEntity
  8
Default
 62
     7
420
 16777215
370
    25
  0
ENDBLK
  5
2E8
330
2E5
100
AcDbEntity
  8
0
100
AcDbBlockEnd
  0
BLOCK
  5
2EF
330
2ED
100
AcDbEntity
  8
0
100
AcDbBlockBegin
  2
block 104
 70
     0
 10
0.0
 20
0.0
 30
0.0
  3
block 104
  1

  0
SPLINE
  5
2F1
330
2ED
100
AcDbEntity
  8
Default
 62
     7
420
 16777215
370
    25
100
AcDbSpline
210
0.0
220
0.0
230
1.0
 70
     8
 71
     3
 72
     8
 73
     4
 74
     0
 42
0.0000000001
 43
0.0000000001
 12
1.0
 22
0.0
 32
0.0
 13
1.0
 23
0.0
 33
0.0
 40
0.0
 40
0.0
 40
0.0
 40
0.0
 40
1.0
 40
1.0
 40
1.0
 40
1.0
 10
481.235533735553
 20
448.6476111014008
 30
0.0
 10
481.235533735553
 20
463.5592993468335
 30
0.0
 10
469.1472219809839
 20
475.6476111014008
 30
0.0
 10
454.235533735553
 20
475.6476111014008
 30
0.0
  0
ENDBLK
  5
2F0
330
2ED
100
AcDbEntity
  8
0
100
AcDbBlockEnd
  0
BLOCK
  5
2F4
330
2F2
100
AcDbEntity
  8
0
100
AcDbBlockBegin
  2
block 105
 70
     0
 10
0.0
 20
0.0
 30
0.0
  3
block 105
  1

  0
POLYLINE
  5
2F6
330
2F2
100
AcDbEntity
  8
Default
 62
     7
420
 16777215
370
    25
100
AcDb2dPolyline
 66
     1
 10
0.0
 20
0.0
 30
0.0
  0
VERTEX
  5
2F7
330
2F6
100
AcDbEntity
  8
Default
 62
     7
420
 16777215
370
    25
100
AcDbVertex
100
AcDb2dVertex
 10
454.235533735553
 20
475.6476111014008
 30
0.0
  0
VERTEX
  5
2F8
330
2F6
100
AcDbEntity
  8
Default
 62
     7
420
 16777215
370
    25
100
AcDbVertex
100
AcDb2dVertex
 10
435.235533735553
 20
475.6476111014008
 30
0.0
  0
SEQEND
  5
2F9
330
2F6
100
AcDbEntity
  8
Default
 62
     7
420
 16777215
370
    25
  0
ENDBLK
  5
2F5
330
2F2
100
AcDbEntity
  8
0
100
AcDbBlockEnd
  0
BLOCK
  5
2FC
330
2FA
100
AcDbEntity
  8
0
100
AcDbBlockBegin
  2
block 106
 70
     0
 10
0.0
 20
0.0
 30
0.0
  3
block 106
  1

  0
SPLINE
  5
2FE
330
2FA
100
AcDbEntity
  8
Default
 62
     7
420
 16777215
370
    25
100
AcDbSpline
210
0.0
220
0.0
230
1.0
 70
     8
 71
     3
 72
     8
 73
     4
 74
     0
 42
0.0000000001
 43
0.0000000001
 12
1.0
 22
0.0
 32
0.0
 13
1.0
 23
0.0
 33
0.0
 40
0.0
 40
0.0
 40
0.0
 40
0.0
 40
1.0
 40
1.0
 40
1.0
 40
1.0
 10
435.235533735553
 20
475.6476111014008
 30
0.0
 10
420.3238454901202
 20
475.6476111014008
 30
0.0
 10
408.235533735553
 20
463.5592993468335
 30
0.0
 10
408.235533735553
 20
448.6476111014008
 30
0.0
  0
ENDBLK
  5
2FD
330
2FA
100
AcDbEntity
  8
0
100
AcDbBlockEnd
  0
BLOCK
  5
301
330
2FF
100
AcDbEntity
  8
0
100
AcDbBlockBegin
  2
block 107
 70
     0
 10
0.0
 20
0.0
 30
0.0
  3
block 107
  1

  0
POLYLINE
  5
303
330
2FF
100
AcDbEntity
  8
Default
 62
     7
420
 16777215
370
    25
100
AcDb2dPolyline
 66
     1
 10
0.0
 20
0.0
 30
0.0
  0
VERTEX
  5
304
330
303
100
AcDbEntity
  8
Default
 62
     7
420
 16777215
370
    25
100
AcDbVertex
100
AcDb2dVertex
 10
408.235533735553
 20
448.6476111014008
 30
0.0
  0
VERTEX
  5
305
330
303
100
AcDbEntity
  8
Default
 62
     7
420
 16777215
370
    25
100
AcDbVertex
100
AcDb2dVertex
 10
408.235533735553
 20
338.6476111014017
 30
0.0
  0
SEQEND
  5
306
330
303
100
AcDbEntity
  8
Default
 62
     7
420
 16777215
370
    25
  0
ENDBLK
  5
302
330
2FF
100
AcDbEntity
  8
0
100
AcDbBlockEnd
  0
BLOCK
  5
309
330
307
100
AcDbEntity
  8
0
100
AcDbBlockBegin
  2
block 108
 70
     0
 10
0.0
 20
0.0
 30
0.0
  3
block 108
  1

  0
POLYLINE
  5
30B
330
307
100
AcDbEntity
  8
Default
 62
     7
420
 16777215
370
    25
100
AcDb2dPolyline
 66
     1
 10
0.0
 20
0.0
 30
0.0
  0
VERTEX
  5
30C
330
30B
100
AcDbEntity
  8
Default
 62
     7
420
 16777215
370
    25
100
AcDbVertex
100
AcDb2dVertex
 10
408.235533735553
 20
338.6476111014017
 30
0.0
  0
VERTEX
  5
30D
330
30B
100
AcDbEntity
  8
Default
 62
     7
420
 16777215
370
    25
100
AcDbVertex
100
AcDb2dVertex
 10
404.235533735553
 20
338.6476111014017
 30
0.0
  0
SEQEND
  5
30E
330
30B
100
AcDbEntity
  8
Default
 62
     7
420
 16777215
370
    25
  0
ENDBLK
  5
30A
330
307
100
AcDbEntity
  8
0
100
AcDbBlockEnd
  0
BLOCK
  5
311
330
30F
100
AcDbEntity
  8
0
100
AcDbBlockBegin
  2
block 109
 70
     0
 10
0.0
 20
0.0
 30
0.0
  3
block 109
  1

  0
POLYLINE
  5
313
330
30F
100
AcDbEntity
  8
Default
 62
     7
420
 16777215
370
    25
100
AcDb2dPolyline
 66
     1
 10
0.0
 20
0.0
 30
0.0
  0
VERTEX
  5
314
330
313
100
AcDbEntity
  8
Default
 62
     7
420
 16777215
370
    25
100
AcDbVertex
100
AcDb2dVertex
 10
404.235533735553
 20
338.6476111014017
 30
0.0
  0
VERTEX
  5
315
330
313
100
AcDbEntity
  8
Default
 62
     7
420
 16777215
370
    25
100
AcDbVertex
100
AcDb2dVertex
 10
404.235533735553
 20
448.6476111014008
 30
0.0
  0
SEQEND
  5
316
330
313
100
AcDbEntity
  8
Default
 62
     7
420
 16777215
370
    25
  0
ENDBLK
  5
312
330
30F
100
AcDbEntity
  8
0
100
AcDbBlockEnd
  0
BLOCK
  5
319
330
317
100
AcDbEntity
  8
0
100
AcDbBlockBegin
  2
block 110
 70
     0
 10
0.0
 20
0.0
 30
0.0
  3
block 110
  1

  0
SPLINE
  5
31B
330
317
100
AcDbEntity
  8
Default
 62
     7
420
 16777215
370
    25
100
AcDbSpline
210
0.0
220
0.0
230
1.0
 70
     8
 71
     3
 72
     8
 73
     4
 74
     0
 42
0.0000000001
 43
0.0000000001
 12
1.0
 22
0.0
 32
0.0
 13
1.0
 23
0.0
 33
0.0
 40
0.0
 40
0.0
 40
0.0
 40
0.0
 40
1.0
 40
1.0
 40
1.0
 40
1.0
 10
435.235533735553
 20
479.6476111014008
 30
0.0
 10
418.1147064907982
 20
479.6476111014008
 30
0.0
 10
404.235533735553
 20
465.7684383461556
 30
0.0
 10
404.235533735553
 20
448.6476111014008
 30
0.0
  0
ENDBLK
  5
31A
330
317
100
AcDbEntity
  8
0
100
AcDbBlockEnd
  0
BLOCK
  5
31E
330
31C
100
AcDbEntity
  8
0
100
AcDbBlockBegin
  2
block 111
 70
     0
 10
0.0
 20
0.0
 30
0.0
  3
block 111
  1

  0
POLYLINE
  5
320
330
31C
100
AcDbEntity
  8
Default
 62
     7
420
 16777215
370
    25
100
AcDb2dPolyline
 66
     1
 10
0.0
 20
0.0
 30
0.0
  0
VERTEX
  5
321
330
320
100
AcDbEntity
  8
Default
 62
     7
420
 16777215
370
    25
100
AcDbVertex
100
AcDb2dVertex
 10
435.235533735553
 20
479.6476111014008
 30
0.0
  0
VERTEX
  5
322
330
320
100
AcDbEntity
  8
Default
 62
     7
420
 16777215
370
    25
100
AcDbVertex
100
AcDb2dVertex
 10
454.235533735553
 20
479.6476111014008
 30
0.0
  0
SEQEND
  5
323
330
320
100
AcDbEntity
  8
Default
 62
     7
420
 16777215
370
    25
  0
ENDBLK
  5
31F
330
31C
100
AcDbEntity
  8
0
100
AcDbBlockEnd
  0
BLOCK
  5
326
330
324
100
AcDbEntity
  8
0
100
AcDbBlockBegin
  2
block 112
 70
     0
 10
0.0
 20
0.0
 30
0.0
  3
block 112
  1

  0
SPLINE
  5
328
330
324
100
AcDbEntity
  8
Default
 62
     7
420
 16777215
370
    25
100
AcDbSpline
210
0.0
220
0.0
230
1.0
 70
     8
 71
     3
 72
     8
 73
     4
 74
     0
 42
0.0000000001
 43
0.0000000001
 12
1.0
 22
0.0
 32
0.0
 13
1.0
 23
0.0
 33
0.0
 40
0.0
 40
0.0
 40
0.0
 40
0.0
 40
1.0
 40
1.0
 40
1.0
 40
1.0
 10
485.235533735553
 20
448.6476111014008
 30
0.0
 10
485.235533735553
 20
465.7684383461556
 30
0.0
 10
471.3563609803077
 20
479.6476111014008
 30
0.0
 10
454.235533735553
 20
479.6476111014008
 30
0.0
  0
ENDBLK
  5
327
330
324
100
AcDbEntity
  8
0
100
AcDbBlockEnd
  0
BLOCK
  5
32B
330
329
100
AcDbEntity
  8
0
100
AcDbBlockBegin
  2
block 113
 70
     0
 10
0.0
 20
0.0
 30
0.0
  3
block 113
  1

  0
POLYLINE
  5
32D
330
329
100
AcDbEntity
  8
Default
 62
     7
420
 16777215
370
    25
100
AcDb2dPolyline
 66
     1
 10
0.0
 20
0.0
 30
0.0
  0
VERTEX
  5
32E
330
32D
100
AcDbEntity
  8
Default
 62
     7
420
 16777215
370
    25
100
AcDbVertex
100
AcDb2dVertex
 10
485.235533735553
 20
448.6476111014008
 30
0.0
  0
VERTEX
  5
32F
330
32D
100
AcDbEntity
  8
Default
 62
     7
420
 16777215
370
    25
100
AcDbVertex
100
AcDb2dVertex
 10
485.235533735553
 20
439.6476111014008
 30
0.0
  0
SEQEND
  5
330
330
32D
100
AcDbEntity
  8
Default
 62
     7
420
 16777215
370
    25
  0
ENDBLK
  5
32C
330
329
100
AcDbEntity
  8
0
100
AcDbBlockEnd
  0
BLOCK
  5
333
330
331
100
AcDbEntity
  8
0
100
AcDbBlockBegin
  2
block 114
 70
     0
 10
0.0
 20
0.0
 30
0.0
  3
block 114
  1

  0
SPLINE
  5
335
330
331
100
AcDbEntity
  8
Default
 62
     7
420
 16777215
370
    25
100
AcDbSpline
210
0.0
220
0.0
230
1.0
 70
     8
 71
     3
 72
     8
 73
     4
 74
     0
 42
0.0000000001
 43
0.0000000001
 12
1.0
 22
0.0
 32
0.0
 13
1.0
 23
0.0
 33
0.0
 40
0.0
 40
0.0
 40
0.0
 40
0.0
 40
1.0
 40
1.0
 40
1.0
 40
1.0
 10
354.7581395360085
 20
354.162360699389
 30
0.0
 10
354.2058658441692
 20
354.1588658179789
 30
0.0
 10
353.7609927194371
 20
353.7083263709137
 30
0.0
 10
353.7644876008508
 20
353.1560526790745
 30
0.0
  0
ENDBLK
  5
334
330
331
100
AcDbEntity
  8
0
100
AcDbBlockEnd
  0
BLOCK
  5
338
330
336
100
AcDbEntity
  8
0
100
AcDbBlockBegin
  2
block 115
 70
     0
 10
0.0
 20
0.0
 30
0.0
  3
block 115
  1

  0
POLYLINE
  5
33A
330
336
100
AcDbEntity
  8
Default
 62
     7
420
 16777215
370
    25
100
AcDb2dPolyline
 66
     1
 10
0.0
 20
0.0
 30
0.0
  0
VERTEX
  5
33B
330
33A
100
AcDbEntity
  8
Default
 62
     7
420
 16777215
370
    25
100
AcDbVertex
100
AcDb2dVertex
 10
354.7581395360085
 20
354.162360699389
 30
0.0
  0
VERTEX
  5
33C
330
33A
100
AcDbEntity
  8
Default
 62
     7
420
 16777215
370
    25
100
AcDbVertex
100
AcDb2dVertex
 10
374.7577390907718
 20
354.2889215509713
 30
0.0
  0
SEQEND
  5
33D
330
33A
100
AcDbEntity
  8
Default
 62
     7
420
 16777215
370
    25
  0
ENDBLK
  5
339
330
336
100
AcDbEntity
  8
0
100
AcDbBlockEnd
  0
BLOCK
  5
340
330
33E
100
AcDbEntity
  8
0
100
AcDbBlockBegin
  2
block 116
 70
     0
 10
0.0
 20
0.0
 30
0.0
  3
block 116
  1

  0
SPLINE
  5
342
330
33E
100
AcDbEntity
  8
Default
 62
     7
420
 16777215
370
    25
100
AcDbSpline
210
0.0
220
0.0
230
1.0
 70
     8
 71
     3
 72
     8
 73
     4
 74
     0
 42
0.0000000001
 43
0.0000000001
 12
1.0
 22
0.0
 32
0.0
 13
1.0
 23
0.0
 33
0.0
 40
0.0
 40
0.0
 40
0.0
 40
0.0
 40
1.0
 40
1.0
 40
1.0
 40
1.0
 10
375.7640471110881
 20
353.2952696158136
 30
0.0
 10
375.7605522296763
 20
353.8475433076528
 30
0.0
 10
375.3100127826128
 20
354.2924164323849
 30
0.0
 10
374.7577390907718
 20
354.2889215509713
 30
0.0
  0
ENDBLK
  5
341
330
33E
100
AcDbEntity
  8
0
100
AcDbBlockEnd
  0
BLOCK
  5
345
330
343
100
AcDbEntity
  8
0
100
AcDbBlockBegin
  2
block 117
 70
     0
 10
0.0
 20
0.0
 30
0.0
  3
block 117
  1

  0
POLYLINE
  5
347
330
343
100
AcDbEntity
  8
Default
 62
     7
420
 16777215
370
    25
100
AcDb2dPolyline
 66
     1
 10
0.0
 20
0.0
 30
0.0
  0
VERTEX
  5
348
330
347
100
AcDbEntity
  8
Default
 62
     7
420
 16777215
370
    25
100
AcDbVertex
100
AcDb2dVertex
 10
375.7640471110881
 20
353.2952696158136
 30
0.0
  0
VERTEX
  5
349
330
347
100
AcDbEntity
  8
Default
 62
     7
420
 16777215
370
    25
100
AcDbVertex
100
AcDb2dVertex
 10
375.8209994943008
 20
344.2954498161707
 30
0.0
  0
SEQEND
  5
34A
330
347
100
AcDbEntity
  8
Default
 62
     7
420
 16777215
370
    25
  0
ENDBLK
  5
346
330
343
100
AcDbEntity
  8
0
100
AcDbBlockEnd
  0
BLOCK
  5
34D
330
34B
100
AcDbEntity
  8
0
100
AcDbBlockBegin
  2
block 118
 70
     0
 10
0.0
 20
0.0
 30
0.0
  3
block 118
  1

  0
SPLINE
  5
34F
330
34B
100
AcDbEntity
  8
Default
 62
     7
420
 16777215
370
    25
100
AcDbSpline
210
0.0
220
0.0
230
1.0
 70
     8
 71
     3
 72
     8
 73
     4
 74
     0
 42
0.0000000001
 43
0.0000000001
 12
1.0
 22
0.0
 32
0.0
 13
1.0
 23
0.0
 33
0.0
 40
0.0
 40
0.0
 40
0.0
 40
0.0
 40
1.0
 40
1.0
 40
1.0
 40
1.0
 10
375.8209994943008
 20
344.2954498161707
 30
0.0
 10
375.8524534270146
 20
339.3249865896032
 30
0.0
 10
379.907308450589
 20
335.3211284670251
 30
0.0
 10
384.8777716771547
 20
335.3525823997406
 30
0.0
  0
ENDBLK
  5
34E
330
34B
100
AcDbEntity
  8
0
100
AcDbBlockEnd
  0
BLOCK
  5
352
330
350
100
AcDbEntity
  8
0
100
AcDbBlockBegin
  2
block 119
 70
     0
 10
0.0
 20
0.0
 30
0.0
  3
block 119
  1

  0
POLYLINE
  5
354
330
350
100
AcDbEntity
  8
Default
 62
     7
420
 16777215
370
    25
100
AcDb2dPolyline
 66
     1
 10
0.0
 20
0.0
 30
0.0
  0
VERTEX
  5
355
330
354
100
AcDbEntity
  8
Default
 62
     7
420
 16777215
370
    25
100
AcDbVertex
100
AcDb2dVertex
 10
384.8777716771547
 20
335.3525823997406
 30
0.0
  0
VERTEX
  5
356
330
354
100
AcDbEntity
  8
Default
 62
     7
420
 16777215
370
    25
100
AcDbVertex
100
AcDb2dVertex
 10
403.8773912541801
 20
335.4728152087409
 30
0.0
  0
SEQEND
  5
357
330
354
100
AcDbEntity
  8
Default
 62
     7
420
 16777215
370
    25
  0
ENDBLK
  5
353
330
350
100
AcDbEntity
  8
0
100
AcDbBlockEnd
  0
BLOCK
  5
35A
330
358
100
AcDbEntity
  8
0
100
AcDbBlockBegin
  2
block 120
 70
     0
 10
0.0
 20
0.0
 30
0.0
  3
block 120
  1

  0
SPLINE
  5
35C
330
358
100
AcDbEntity
  8
Default
 62
     7
420
 16777215
370
    25
100
AcDbSpline
210
0.0
220
0.0
230
1.0
 70
     8
 71
     3
 72
     8
 73
     4
 74
     0
 42
0.0000000001
 43
0.0000000001
 12
1.0
 22
0.0
 32
0.0
 13
1.0
 23
0.0
 33
0.0
 40
0.0
 40
0.0
 40
0.0
 40
0.0
 40
1.0
 40
1.0
 40
1.0
 40
1.0
 10
403.8773912541801
 20
335.4728152087409
 30
0.0
 10
408.8478544807476
 20
335.5042691414565
 30
0.0
 10
412.8517126033257
 20
339.5591241650291
 30
0.0
 10
412.8202586706102
 20
344.5295873915966
 30
0.0
  0
ENDBLK
  5
35B
330
358
100
AcDbEntity
  8
0
100
AcDbBlockEnd
  0
BLOCK
  5
35F
330
35D
100
AcDbEntity
  8
0
100
AcDbBlockBegin
  2
block 121
 70
     0
 10
0.0
 20
0.0
 30
0.0
  3
block 121
  1

  0
POLYLINE
  5
361
330
35D
100
AcDbEntity
  8
Default
 62
     7
420
 16777215
370
    25
100
AcDb2dPolyline
 66
     1
 10
0.0
 20
0.0
 30
0.0
  0
VERTEX
  5
362
330
361
100
AcDbEntity
  8
Default
 62
     7
420
 16777215
370
    25
100
AcDbVertex
100
AcDb2dVertex
 10
412.8202586706102
 20
344.5295873915966
 30
0.0
  0
VERTEX
  5
363
330
361
100
AcDbEntity
  8
Default
 62
     7
420
 16777215
370
    25
100
AcDbVertex
100
AcDb2dVertex
 10
412.1241739869092
 20
454.5273849427913
 30
0.0
  0
SEQEND
  5
364
330
361
100
AcDbEntity
  8
Default
 62
     7
420
 16777215
370
    25
  0
ENDBLK
  5
360
330
35D
100
AcDbEntity
  8
0
100
AcDbBlockEnd
  0
BLOCK
  5
367
330
365
100
AcDbEntity
  8
0
100
AcDbBlockBegin
  2
block 122
 70
     0
 10
0.0
 20
0.0
 30
0.0
  3
block 122
  1

  0
POLYLINE
  5
369
330
365
100
AcDbEntity
  8
Default
 62
     7
420
 16777215
370
    25
100
AcDb2dPolyline
 66
     1
 10
0.0
 20
0.0
 30
0.0
  0
VERTEX
  5
36A
330
369
100
AcDbEntity
  8
Default
 62
     7
420
 16777215
370
    25
100
AcDbVertex
100
AcDb2dVertex
 10
412.1241739869092
 20
454.5273849427913
 30
0.0
  0
VERTEX
  5
36B
330
369
100
AcDbEntity
  8
Default
 62
     7
420
 16777215
370
    25
100
AcDbVertex
100
AcDb2dVertex
 10
416.1240938978626
 20
454.5526971131067
 30
0.0
  0
SEQEND
  5
36C
330
369
100
AcDbEntity
  8
Default
 62
     7
420
 16777215
370
    25
  0
ENDBLK
  5
368
330
365
100
AcDbEntity
  8
0
100
AcDbBlockEnd
  0
BLOCK
  5
36F
330
36D
100
AcDbEntity
  8
0
100
AcDbBlockBegin
  2
block 123
 70
     0
 10
0.0
 20
0.0
 30
0.0
  3
block 123
  1

  0
POLYLINE
  5
371
330
36D
100
AcDbEntity
  8
Default
 62
     7
420
 16777215
370
    25
100
AcDb2dPolyline
 66
     1
 10
0.0
 20
0.0
 30
0.0
  0
VERTEX
  5
372
330
371
100
AcDbEntity
  8
Default
 62
     7
420
 16777215
370
    25
100
AcDbVertex
100
AcDb2dVertex
 10
416.1240938978626
 20
454.5526971131067
 30
0.0
  0
VERTEX
  5
373
330
371
100
AcDbEntity
  8
Default
 62
     7
420
 16777215
370
    25
100
AcDbVertex
100
AcDb2dVertex
 10
416.8201785815636
 20
344.5548995619138
 30
0.0
  0
SEQEND
  5
374
330
371
100
AcDbEntity
  8
Default
 62
     7
420
 16777215
370
    25
  0
ENDBLK
  5
370
330
36D
100
AcDbEntity
  8
0
100
AcDbBlockEnd
  0
BLOCK
  5
377
330
375
100
AcDbEntity
  8
0
100
AcDbBlockBegin
  2
block 124
 70
     0
 10
0.0
 20
0.0
 30
0.0
  3
block 124
  1

  0
SPLINE
  5
379
330
375
100
AcDbEntity
  8
Default
 62
     7
420
 16777215
370
    25
100
AcDbSpline
210
0.0
220
0.0
230
1.0
 70
     8
 71
     3
 72
     8
 73
     4
 74
     0
 42
0.0000000001
 43
0.0000000001
 12
1.0
 22
0.0
 32
0.0
 13
1.0
 23
0.0
 33
0.0
 40
0.0
 40
0.0
 40
0.0
 40
0.0
 40
1.0
 40
1.0
 40
1.0
 40
1.0
 10
403.9027034244955
 20
331.4728952977894
 30
0.0
 10
411.0822614184272
 20
331.5183287561558
 30
0.0
 10
416.8656120399282
 20
337.3753415679821
 30
0.0
 10
416.8201785815636
 20
344.5548995619138
 30
0.0
  0
ENDBLK
  5
378
330
375
100
AcDbEntity
  8
0
100
AcDbBlockEnd
  0
BLOCK
  5
37C
330
37A
100
AcDbEntity
  8
0
100
AcDbBlockBegin
  2
block 125
 70
     0
 10
0.0
 20
0.0
 30
0.0
  3
block 125
  1

  0
POLYLINE
  5
37E
330
37A
100
AcDbEntity
  8
Default
 62
     7
420
 16777215
370
    25
100
AcDb2dPolyline
 66
     1
 10
0.0
 20
0.0
 30
0.0
  0
VERTEX
  5
37F
330
37E
100
AcDbEntity
  8
Default
 62
     7
420
 16777215
370
    25
100
AcDbVertex
100
AcDb2dVertex
 10
403.9027034244955
 20
331.4728952977894
 30
0.0
  0
VERTEX
  5
380
330
37E
100
AcDbEntity
  8
Default
 62
     7
420
 16777215
370
    25
100
AcDbVertex
100
AcDb2dVertex
 10
384.9030838474719
 20
331.3526624887854
 30
0.0
  0
SEQEND
  5
381
330
37E
100
AcDbEntity
  8
Default
 62
     7
420
 16777215
370
    25
  0
ENDBLK
  5
37D
330
37A
100
AcDbEntity
  8
0
100
AcDbBlockEnd
  0
BLOCK
  5
384
330
382
100
AcDbEntity
  8
0
100
AcDbBlockBegin
  2
block 126
 70
     0
 10
0.0
 20
0.0
 30
0.0
  3
block 126
  1

  0
SPLINE
  5
386
330
382
100
AcDbEntity
  8
Default
 62
     7
420
 16777215
370
    25
100
AcDbSpline
210
0.0
220
0.0
230
1.0
 70
     8
 71
     3
 72
     8
 73
     4
 74
     0
 42
0.0000000001
 43
0.0000000001
 12
1.0
 22
0.0
 32
0.0
 13
1.0
 23
0.0
 33
0.0
 40
0.0
 40
0.0
 40
0.0
 40
0.0
 40
1.0
 40
1.0
 40
1.0
 40
1.0
 10
371.8210795833475
 20
344.2701376458535
 30
0.0
 10
371.8665130417139
 20
337.0905796519219
 30
0.0
 10
377.7235258535402
 20
331.3072290304226
 30
0.0
 10
384.9030838474719
 20
331.3526624887854
 30
0.0
  0
ENDBLK
  5
385
330
382
100
AcDbEntity
  8
0
100
AcDbBlockEnd
  0
BLOCK
  5
389
330
387
100
AcDbEntity
  8
0
100
AcDbBlockBegin
  2
block 127
 70
     0
 10
0.0
 20
0.0
 30
0.0
  3
block 127
  1

  0
POLYLINE
  5
38B
330
387
100
AcDbEntity
  8
Default
 62
     7
420
 16777215
370
    25
100
AcDb2dPolyline
 66
     1
 10
0.0
 20
0.0
 30
0.0
  0
VERTEX
  5
38C
330
38B
100
AcDbEntity
  8
Default
 62
     7
420
 16777215
370
    25
100
AcDbVertex
100
AcDb2dVertex
 10
371.8210795833475
 20
344.2701376458535
 30
0.0
  0
VERTEX
  5
38D
330
38B
100
AcDbEntity
  8
Default
 62
     7
420
 16777215
370
    25
100
AcDbVertex
100
AcDb2dVertex
 10
371.7894393704519
 20
349.2700375345448
 30
0.0
  0
SEQEND
  5
38E
330
38B
100
AcDbEntity
  8
Default
 62
     7
420
 16777215
370
    25
  0
ENDBLK
  5
38A
330
387
100
AcDbEntity
  8
0
100
AcDbBlockEnd
  0
BLOCK
  5
391
330
38F
100
AcDbEntity
  8
0
100
AcDbBlockBegin
  2
block 128
 70
     0
 10
0.0
 20
0.0
 30
0.0
  3
block 128
  1

  0
SPLINE
  5
393
330
38F
100
AcDbEntity
  8
Default
 62
     7
420
 16777215
370
    25
100
AcDbSpline
210
0.0
220
0.0
230
1.0
 70
     8
 71
     3
 72
     8
 73
     4
 74
     0
 42
0.0000000001
 43
0.0000000001
 12
1.0
 22
0.0
 32
0.0
 13
1.0
 23
0.0
 33
0.0
 40
0.0
 40
0.0
 40
0.0
 40
0.0
 40
1.0
 40
1.0
 40
1.0
 40
1.0
 10
371.7894393704519
 20
349.2700375345448
 30
0.0
 10
371.78594448904
 20
349.822311226384
 30
0.0
 10
371.3354050419766
 20
350.2671843511162
 30
0.0
 10
370.7831313501356
 20
350.2636894697025
 30
0.0
  0
ENDBLK
  5
392
330
38F
100
AcDbEntity
  8
0
100
AcDbBlockEnd
  0
BLOCK
  5
396
330
394
100
AcDbEntity
  8
0
100
AcDbBlockBegin
  2
block 129
 70
     0
 10
0.0
 20
0.0
 30
0.0
  3
block 129
  1

  0
POLYLINE
  5
398
330
394
100
AcDbEntity
  8
Default
 62
     7
420
 16777215
370
    25
100
AcDb2dPolyline
 66
     1
 10
0.0
 20
0.0
 30
0.0
  0
VERTEX
  5
399
330
398
100
AcDbEntity
  8
Default
 62
     7
420
 16777215
370
    25
100
AcDbVertex
100
AcDb2dVertex
 10
370.7831313501356
 20
350.2636894697025
 30
0.0
  0
VERTEX
  5
39A
330
398
100
AcDbEntity
  8
Default
 62
     7
420
 16777215
370
    25
100
AcDbVertex
100
AcDb2dVertex
 10
358.7833716172772
 20
350.1877529587546
 30
0.0
  0
SEQEND
  5
39B
330
398
100
AcDbEntity
  8
Default
 62
     7
420
 16777215
370
    25
  0
ENDBLK
  5
397
330
394
100
AcDbEntity
  8
0
100
AcDbBlockEnd
  0
BLOCK
  5
39E
330
39C
100
AcDbEntity
  8
0
100
AcDbBlockBegin
  2
block 130
 70
     0
 10
0.0
 20
0.0
 30
0.0
  3
block 130
  1

  0
SPLINE
  5
3A0
330
39C
100
AcDbEntity
  8
Default
 62
     7
420
 16777215
370
    25
100
AcDbSpline
210
0.0
220
0.0
230
1.0
 70
     8
 71
     3
 72
     8
 73
     4
 74
     0
 42
0.0000000001
 43
0.0000000001
 12
1.0
 22
0.0
 32
0.0
 13
1.0
 23
0.0
 33
0.0
 40
0.0
 40
0.0
 40
0.0
 40
0.0
 40
1.0
 40
1.0
 40
1.0
 40
1.0
 10
358.7833716172772
 20
350.1877529587546
 30
0.0
 10
358.231097925438
 20
350.1842580773409
 30
0.0
 10
357.7862248007059
 20
349.7337186302793
 30
0.0
 10
357.7897196821195
 20
349.1814449384365
 30
0.0
  0
ENDBLK
  5
39F
330
39C
100
AcDbEntity
  8
0
100
AcDbBlockEnd
  0
BLOCK
  5
3A3
330
3A1
100
AcDbEntity
  8
0
100
AcDbBlockBegin
  2
block 131
 70
     0
 10
0.0
 20
0.0
 30
0.0
  3
block 131
  1

  0
POLYLINE
  5
3A5
330
3A1
100
AcDbEntity
  8
Default
 62
     7
420
 16777215
370
    25
100
AcDb2dPolyline
 66
     1
 10
0.0
 20
0.0
 30
0.0
  0
VERTEX
  5
3A6
330
3A5
100
AcDbEntity
  8
Default
 62
     7
420
 16777215
370
    25
100
AcDbVertex
100
AcDb2dVertex
 10
357.7897196821195
 20
349.1814449384365
 30
0.0
  0
VERTEX
  5
3A7
330
3A5
100
AcDbEntity
  8
Default
 62
     7
420
 16777215
370
    25
100
AcDbVertex
100
AcDb2dVertex
 10
357.8213598950151
 20
344.1815450497452
 30
0.0
  0
SEQEND
  5
3A8
330
3A5
100
AcDbEntity
  8
Default
 62
     7
420
 16777215
370
    25
  0
ENDBLK
  5
3A4
330
3A1
100
AcDbEntity
  8
0
100
AcDbBlockEnd
  0
BLOCK
  5
3AB
330
3A9
100
AcDbEntity
  8
0
100
AcDbBlockBegin
  2
block 132
 70
     0
 10
0.0
 20
0.0
 30
0.0
  3
block 132
  1

  0
SPLINE
  5
3AD
330
3A9
100
AcDbEntity
  8
Default
 62
     7
420
 16777215
370
    25
100
AcDbSpline
210
0.0
220
0.0
230
1.0
 70
     8
 71
     3
 72
     8
 73
     4
 74
     0
 42
0.0000000001
 43
0.0000000001
 12
1.0
 22
0.0
 32
0.0
 13
1.0
 23
0.0
 33
0.0
 40
0.0
 40
0.0
 40
0.0
 40
0.0
 40
1.0
 40
1.0
 40
1.0
 40
1.0
 10
357.8213598950151
 20
344.1815450497452
 30
0.0
 10
357.915721693158
 20
329.2701553700426
 30
0.0
 10
370.0802867638758
 20
317.258581002312
 30
0.0
 10
384.9916764435784
 20
317.3529428004549
 30
0.0
  0
ENDBLK
  5
3AC
330
3A9
100
AcDbEntity
  8
0
100
AcDbBlockEnd
  0
BLOCK
  5
3B0
330
3AE
100
AcDbEntity
  8
0
100
AcDbBlockBegin
  2
block 133
 70
     0
 10
0.0
 20
0.0
 30
0.0
  3
block 133
  1

  0
POLYLINE
  5
3B2
330
3AE
100
AcDbEntity
  8
Default
 62
     7
420
 16777215
370
    25
100
AcDb2dPolyline
 66
     1
 10
0.0
 20
0.0
 30
0.0
  0
VERTEX
  5
3B3
330
3B2
100
AcDbEntity
  8
Default
 62
     7
420
 16777215
370
    25
100
AcDbVertex
100
AcDb2dVertex
 10
384.9916764435784
 20
317.3529428004549
 30
0.0
  0
VERTEX
  5
3B4
330
3B2
100
AcDbEntity
  8
Default
 62
     7
420
 16777215
370
    25
100
AcDbVertex
100
AcDb2dVertex
 10
403.9912960206038
 20
317.4731756094552
 30
0.0
  0
SEQEND
  5
3B5
330
3B2
100
AcDbEntity
  8
Default
 62
     7
420
 16777215
370
    25
  0
ENDBLK
  5
3B1
330
3AE
100
AcDbEntity
  8
0
100
AcDbBlockEnd
  0
BLOCK
  5
3B8
330
3B6
100
AcDbEntity
  8
0
100
AcDbBlockBegin
  2
block 134
 70
     0
 10
0.0
 20
0.0
 30
0.0
  3
block 134
  1

  0
SPLINE
  5
3BA
330
3B6
100
AcDbEntity
  8
Default
 62
     7
420
 16777215
370
    25
100
AcDbSpline
210
0.0
220
0.0
230
1.0
 70
     8
 71
     3
 72
     8
 73
     4
 74
     0
 42
0.0000000001
 43
0.0000000001
 12
1.0
 22
0.0
 32
0.0
 13
1.0
 23
0.0
 33
0.0
 40
0.0
 40
0.0
 40
0.0
 40
0.0
 40
1.0
 40
1.0
 40
1.0
 40
1.0
 10
403.9912960206038
 20
317.4731756094552
 30
0.0
 10
418.9026857003082
 20
317.5675374075981
 30
0.0
 10
430.9142600680407
 20
329.7321024783159
 30
0.0
 10
430.8198982698959
 20
344.6434921580221
 30
0.0
  0
ENDBLK
  5
3B9
330
3B6
100
AcDbEntity
  8
0
100
AcDbBlockEnd
  0
BLOCK
  5
3BD
330
3BB
100
AcDbEntity
  8
0
100
AcDbBlockBegin
  2
block 135
 70
     0
 10
0.0
 20
0.0
 30
0.0
  3
block 135
  1

  0
POLYLINE
  5
3BF
330
3BB
100
AcDbEntity
  8
Default
 62
     7
420
 16777215
370
    25
100
AcDb2dPolyline
 66
     1
 10
0.0
 20
0.0
 30
0.0
  0
VERTEX
  5
3C0
330
3BF
100
AcDbEntity
  8
Default
 62
     7
420
 16777215
370
    25
100
AcDbVertex
100
AcDb2dVertex
 10
430.8198982698959
 20
344.6434921580221
 30
0.0
  0
VERTEX
  5
3C1
330
3BF
100
AcDbEntity
  8
Default
 62
     7
420
 16777215
370
    25
100
AcDbVertex
100
AcDb2dVertex
 10
430.123813586195
 20
454.6412897092132
 30
0.0
  0
SEQEND
  5
3C2
330
3BF
100
AcDbEntity
  8
Default
 62
     7
420
 16777215
370
    25
  0
ENDBLK
  5
3BE
330
3BB
100
AcDbEntity
  8
0
100
AcDbBlockEnd
  0
BLOCK
  5
3C5
330
3C3
100
AcDbEntity
  8
0
100
AcDbBlockBegin
  2
block 136
 70
     0
 10
0.0
 20
0.0
 30
0.0
  3
block 136
  1

  0
POLYLINE
  5
3C7
330
3C3
100
AcDbEntity
  8
Default
 62
     7
420
 16777215
370
    25
100
AcDb2dPolyline
 66
     1
 10
0.0
 20
0.0
 30
0.0
  0
VERTEX
  5
3C8
330
3C7
100
AcDbEntity
  8
Default
 62
     7
420
 16777215
370
    25
100
AcDbVertex
100
AcDb2dVertex
 10
430.123813586195
 20
454.6412897092132
 30
0.0
  0
VERTEX
  5
3C9
330
3C7
100
AcDbEntity
  8
Default
 62
     7
420
 16777215
370
    25
100
AcDbVertex
100
AcDb2dVertex
 10
434.1237334971484
 20
454.6666018795304
 30
0.0
  0
SEQEND
  5
3CA
330
3C7
100
AcDbEntity
  8
Default
 62
     7
420
 16777215
370
    25
  0
ENDBLK
  5
3C6
330
3C3
100
AcDbEntity
  8
0
100
AcDbBlockEnd
  0
BLOCK
  5
3CD
330
3CB
100
AcDbEntity
  8
0
100
AcDbBlockBegin
  2
block 137
 70
     0
 10
0.0
 20
0.0
 30
0.0
  3
block 137
  1

  0
POLYLINE
  5
3CF
330
3CB
100
AcDbEntity
  8
Default
 62
     7
420
 16777215
370
    25
100
AcDb2dPolyline
 66
     1
 10
0.0
 20
0.0
 30
0.0
  0
VERTEX
  5
3D0
330
3CF
100
AcDbEntity
  8
Default
 62
     7
420
 16777215
370
    25
100
AcDbVertex
100
AcDb2dVertex
 10
434.1237334971484
 20
454.6666018795304
 30
0.0
  0
VERTEX
  5
3D1
330
3CF
100
AcDbEntity
  8
Default
 62
     7
420
 16777215
370
    25
100
AcDbVertex
100
AcDb2dVertex
 10
434.8198181808493
 20
344.6688043283393
 30
0.0
  0
SEQEND
  5
3D2
330
3CF
100
AcDbEntity
  8
Default
 62
     7
420
 16777215
370
    25
  0
ENDBLK
  5
3CE
330
3CB
100
AcDbEntity
  8
0
100
AcDbBlockEnd
  0
BLOCK
  5
3D5
330
3D3
100
AcDbEntity
  8
0
100
AcDbBlockBegin
  2
block 138
 70
     0
 10
0.0
 20
0.0
 30
0.0
  3
block 138
  1

  0
SPLINE
  5
3D7
330
3D3
100
AcDbEntity
  8
Default
 62
     7
420
 16777215
370
    25
100
AcDbSpline
210
0.0
220
0.0
230
1.0
 70
     8
 71
     3
 72
     8
 73
     4
 74
     0
 42
0.0000000001
 43
0.0000000001
 12
1.0
 22
0.0
 32
0.0
 13
1.0
 23
0.0
 33
0.0
 40
0.0
 40
0.0
 40
0.0
 40
0.0
 40
1.0
 40
1.0
 40
1.0
 40
1.0
 10
404.0166081909192
 20
313.4732556985036
 30
0.0
 10
421.1370926379877
 20
313.5815970222975
 30
0.0
 10
434.9281595046432
 20
327.548319881269
 30
0.0
 10
434.8198181808493
 20
344.6688043283393
 30
0.0
  0
ENDBLK
  5
3D6
330
3D3
100
AcDbEntity
  8
0
100
AcDbBlockEnd
  0
BLOCK
  5
3DA
330
3D8
100
AcDbEntity
  8
0
100
AcDbBlockBegin
  2
block 139
 70
     0
 10
0.0
 20
0.0
 30
0.0
  3
block 139
  1

  0
POLYLINE
  5
3DC
330
3D8
100
AcDbEntity
  8
Default
 62
     7
420
 16777215
370
    25
100
AcDb2dPolyline
 66
     1
 10
0.0
 20
0.0
 30
0.0
  0
VERTEX
  5
3DD
330
3DC
100
AcDbEntity
  8
Default
 62
     7
420
 16777215
370
    25
100
AcDbVertex
100
AcDb2dVertex
 10
404.0166081909192
 20
313.4732556985036
 30
0.0
  0
VERTEX
  5
3DE
330
3DC
100
AcDbEntity
  8
Default
 62
     7
420
 16777215
370
    25
100
AcDbVertex
100
AcDb2dVertex
 10
385.0169886138956
 20
313.3530228894997
 30
0.0
  0
SEQEND
  5
3DF
330
3DC
100
AcDbEntity
  8
Default
 62
     7
420
 16777215
370
    25
  0
ENDBLK
  5
3DB
330
3D8
100
AcDbEntity
  8
0
100
AcDbBlockEnd
  0
BLOCK
  5
3E2
330
3E0
100
AcDbEntity
  8
0
100
AcDbBlockBegin
  2
block 140
 70
     0
 10
0.0
 20
0.0
 30
0.0
  3
block 140
  1

  0
SPLINE
  5
3E4
330
3E0
100
AcDbEntity
  8
Default
 62
     7
420
 16777215
370
    25
100
AcDbSpline
210
0.0
220
0.0
230
1.0
 70
     8
 71
     3
 72
     8
 73
     4
 74
     0
 42
0.0000000001
 43
0.0000000001
 12
1.0
 22
0.0
 32
0.0
 13
1.0
 23
0.0
 33
0.0
 40
0.0
 40
0.0
 40
0.0
 40
0.0
 40
1.0
 40
1.0
 40
1.0
 40
1.0
 10
353.8214399840617
 20
344.1562328794316
 30
0.0
 10
353.9297813078556
 20
327.0357484323613
 30
0.0
 10
367.8965041668271
 20
313.2446815657058
 30
0.0
 10
385.0169886138956
 20
313.3530228894997
 30
0.0
  0
ENDBLK
  5
3E3
330
3E0
100
AcDbEntity
  8
0
100
AcDbBlockEnd
  0
BLOCK
  5
3E7
330
3E5
100
AcDbEntity
  8
0
100
AcDbBlockBegin
  2
block 141
 70
     0
 10
0.0
 20
0.0
 30
0.0
  3
block 141
  1

  0
POLYLINE
  5
3E9
330
3E5
100
AcDbEntity
  8
Default
 62
     7
420
 16777215
370
    25
100
AcDb2dPolyline
 66
     1
 10
0.0
 20
0.0
 30
0.0
  0
VERTEX
  5
3EA
330
3E9
100
AcDbEntity
  8
Default
 62
     7
420
 16777215
370
    25
100
AcDbVertex
100
AcDb2dVertex
 10
353.8214399840617
 20
344.1562328794316
 30
0.0
  0
VERTEX
  5
3EB
330
3E9
100
AcDbEntity
  8
Default
 62
     7
420
 16777215
370
    25
100
AcDbVertex
100
AcDb2dVertex
 10
353.7644876008508
 20
353.1560526790745
 30
0.0
  0
SEQEND
  5
3EC
330
3E9
100
AcDbEntity
  8
Default
 62
     7
420
 16777215
370
    25
  0
ENDBLK
  5
3E8
330
3E5
100
AcDbEntity
  8
0
100
AcDbBlockEnd
  0
ENDSEC
  0
SECTION
  2
ENTITIES
  0
INSERT
  5
42
330
1F
100
AcDbEntity
  8
Default
100
AcDbBlockReference
  2
block 2
 10
0.0
 20
0.0
 30
0.0
  0
INSERT
  5
47
330
1F
100
AcDbEntity
  8
Default
100
AcDbBlockReference
  2
block 3
 10
0.0
 20
0.0
 30
0.0
  0
INSERT
  5
4F
330
1F
100
AcDbEntity
  8
Default
100
AcDbBlockReference
  2
block 4
 10
0.0
 20
0.0
 30
0.0
  0
INSERT
  5
54
330
1F
100
AcDbEntity
  8
Default
100
AcDbBlockReference
  2
block 5
 10
0.0
 20
0.0
 30
0.0
  0
INSERT
  5
5C
330
1F
100
AcDbEntity
  8
Default
100
AcDbBlockReference
  2
block 6
 10
0.0
 20
0.0
 30
0.0
  0
INSERT
  5
61
330
1F
100
AcDbEntity
  8
Default
100
AcDbBlockReference
  2
block 7
 10
0.0
 20
0.0
 30
0.0
  0
INSERT
  5
69
330
1F
100
AcDbEntity
  8
Default
100
AcDbBlockReference
  2
block 8
 10
0.0
 20
0.0
 30
0.0
  0
INSERT
  5
6E
330
1F
100
AcDbEntity
  8
Default
100
AcDbBlockReference
  2
block 9
 10
0.0
 20
0.0
 30
0.0
  0
INSERT
  5
76
330
1F
100
AcDbEntity
  8
Default
100
AcDbBlockReference
  2
block 10
 10
0.0
 20
0.0
 30
0.0
  0
INSERT
  5
7E
330
1F
100
AcDbEntity
  8
Default
100
AcDbBlockReference
  2
block 11
 10
0.0
 20
0.0
 30
0.0
  0
INSERT
  5
86
330
1F
100
AcDbEntity
  8
Default
100
AcDbBlockReference
  2
block 12
 10
0.0
 20
0.0
 30
0.0
  0
INSERT
  5
8B
330
1F
100
AcDbEntity
  8
Default
100
AcDbBlockReference
  2
block 13
 10
0.0
 20
0.0
 30
0.0
  0
INSERT
  5
93
330
1F
100
AcDbEntity
  8
Default
100
AcDbBlockReference
  2
block 14
 10
0.0
 20
0.0
 30
0.0
  0
INSERT
  5
98
330
1F
100
AcDbEntity
  8
Default
100
AcDbBlockReference
  2
block 15
 10
0.0
 20
0.0
 30
0.0
  0
INSERT
  5
A0
330
1F
100
AcDbEntity
  8
Default
100
AcDbBlockReference
  2
block 16
 10
0.0
 20
0.0
 30
0.0
  0
INSERT
  5
A5
330
1F
100
AcDbEntity
  8
Default
100
AcDbBlockReference
  2
block 17
 10
0.0
 20
0.0
 30
0.0
  0
INSERT
  5
AD
330
1F
100
AcDbEntity
  8
Default
100
AcDbBlockReference
  2
block 18
 10
0.0
 20
0.0
 30
0.0
  0
INSERT
  5
B2
330
1F
100
AcDbEntity
  8
Default
100
AcDbBlockReference
  2
block 19
 10
0.0
 20
0.0
 30
0.0
  0
INSERT
  5
BA
330
1F
100
AcDbEntity
  8
Default
100
AcDbBlockReference
  2
block 20
 10
0.0
 20
0.0
 30
0.0
  0
INSERT
  5
BF
330
1F
100
AcDbEntity
  8
Default
100
AcDbBlockReference
  2
block 21
 10
0.0
 20
0.0
 30
0.0
  0
INSERT
  5
C7
330
1F
100
AcDbEntity
  8
Default
100
AcDbBlockReference
  2
block 22
 10
0.0
 20
0.0
 30
0.0
  0
INSERT
  5
CC
330
1F
100
AcDbEntity
  8
Default
100
AcDbBlockReference
  2
block 23
 10
0.0
 20
0.0
 30
0.0
  0
INSERT
  5
D4
330
1F
100
AcDbEntity
  8
Default
100
AcDbBlockReference
  2
block 24
 10
0.0
 20
0.0
 30
0.0
  0
INSERT
  5
DC
330
1F
100
AcDbEntity
  8
Default
100
AcDbBlockReference
  2
block 25
 10
0.0
 20
0.0
 30
0.0
  0
INSERT
  5
E4
330
1F
100
AcDbEntity
  8
Default
100
AcDbBlockReference
  2
block 26
 10
0.0
 20
0.0
 30
0.0
  0
INSERT
  5
E9
330
1F
100
AcDbEntity
  8
Default
100
AcDbBlockReference
  2
block 27
 10
0.0
 20
0.0
 30
0.0
  0
INSERT
  5
F1
330
1F
100
AcDbEntity
  8
Default
100
AcDbBlockReference
  2
block 28
 10
0.0
 20
0.0
 30
0.0
  0
INSERT
  5
F6
330
1F
100
AcDbEntity
  8
Default
100
AcDbBlockReference
  2
block 29
 10
0.0
 20
0.0
 30
0.0
  0
INSERT
  5
FE
330
1F
100
AcDbEntity
  8
Default
100
AcDbBlockReference
  2
block 30
 10
0.0
 20
0.0
 30
0.0
  0
INSERT
  5
103
330
1F
100
AcDbEntity
  8
Default
100
AcDbBlockReference
  2
block 31
 10
0.0
 20
0.0
 30
0.0
  0
INSERT
  5
10B
330
1F
100
AcDbEntity
  8
Default
100
AcDbBlockReference
  2
block 32
 10
0.0
 20
0.0
 30
0.0
  0
INSERT
  5
110
330
1F
100
AcDbEntity
  8
Default
100
AcDbBlockReference
  2
block 33
 10
0.0
 20
0.0
 30
0.0
  0
INSERT
  5
118
330
1F
100
AcDbEntity
  8
Default
100
AcDbBlockReference
  2
block 34
 10
0.0
 20
0.0
 30
0.0
  0
INSERT
  5
11D
330
1F
100
AcDbEntity
  8
Default
100
AcDbBlockReference
  2
block 35
 10
0.0
 20
0.0
 30
0.0
  0
INSERT
  5
125
330
1F
100
AcDbEntity
  8
Default
100
AcDbBlockReference
  2
block 36
 10
0.0
 20
0.0
 30
0.0
  0
INSERT
  5
12A
330
1F
100
AcDbEntity
  8
Default
100
AcDbBlockReference
  2
block 37
 10
0.0
 20
0.0
 30
0.0
  0
INSERT
  5
132
330
1F
100
AcDbEntity
  8
Default
100
AcDbBlockReference
  2
block 38
 10
0.0
 20
0.0
 30
0.0
  0
INSERT
  5
13A
330
1F
100
AcDbEntity
  8
Default
100
AcDbBlockReference
  2
block 39
 10
0.0
 20
0.0
 30
0.0
  0
INSERT
  5
142
330
1F
100
AcDbEntity
  8
Default
100
AcDbBlockReference
  2
block 40
 10
0.0
 20
0.0
 30
0.0
  0
INSERT
  5
147
330
1F
100
AcDbEntity
  8
Default
100
AcDbBlockReference
  2
block 41
 10
0.0
 20
0.0
 30
0.0
  0
INSERT
  5
14F
330
1F
100
AcDbEntity
  8
Default
100
AcDbBlockReference
  2
block 42
 10
0.0
 20
0.0
 30
0.0
  0
INSERT
  5
154
330
1F
100
AcDbEntity
  8
Default
100
AcDbBlockReference
  2
block 43
 10
0.0
 20
0.0
 30
0.0
  0
INSERT
  5
15C
330
1F
100
AcDbEntity
  8
Default
100
AcDbBlockReference
  2
block 44
 10
0.0
 20
0.0
 30
0.0
  0
INSERT
  5
161
330
1F
100
AcDbEntity
  8
Default
100
AcDbBlockReference
  2
block 45
 10
0.0
 20
0.0
 30
0.0
  0
INSERT
  5
169
330
1F
100
AcDbEntity
  8
Default
100
AcDbBlockReference
  2
block 46
 10
0.0
 20
0.0
 30
0.0
  0
INSERT
  5
16E
330
1F
100
AcDbEntity
  8
Default
100
AcDbBlockReference
  2
block 47
 10
0.0
 20
0.0
 30
0.0
  0
INSERT
  5
176
330
1F
100
AcDbEntity
  8
Default
100
AcDbBlockReference
  2
block 48
 10
0.0
 20
0.0
 30
0.0
  0
INSERT
  5
17B
330
1F
100
AcDbEntity
  8
Default
100
AcDbBlockReference
  2
block 49
 10
0.0
 20
0.0
 30
0.0
  0
INSERT
  5
183
330
1F
100
AcDbEntity
  8
Default
100
AcDbBlockReference
  2
block 50
 10
0.0
 20
0.0
 30
0.0
  0
INSERT
  5
188
330
1F
100
AcDbEntity
  8
Default
100
AcDbBlockReference
  2
block 51
 10
0.0
 20
0.0
 30
0.0
  0
INSERT
  5
190
330
1F
100
AcDbEntity
  8
Default
100
AcDbBlockReference
  2
block 52
 10
0.0
 20
0.0
 30
0.0
  0
INSERT
  5
198
330
1F
100
AcDbEntity
  8
Default
100
AcDbBlockReference
  2
block 53
 10
0.0
 20
0.0
 30
0.0
  0
INSERT
  5
1A0
330
1F
100
AcDbEntity
  8
Default
100
AcDbBlockReference
  2
block 54
 10
0.0
 20
0.0
 30
0.0
  0
INSERT
  5
1A5
330
1F
100
AcDbEntity
  8
Default
100
AcDbBlockReference
  2
block 55
 10
0.0
 20
0.0
 30
0.0
  0
INSERT
  5
1AD
330
1F
100
AcDbEntity
  8
Default
100
AcDbBlockReference
  2
block 56
 10
0.0
 20
0.0
 30
0.0
  0
INSERT
  5
1B2
330
1F
100
AcDbEntity
  8
Default
100
AcDbBlockReference
  2
block 57
 10
0.0
 20
0.0
 30
0.0
  0
INSERT
  5
1BA
330
1F
100
AcDbEntity
  8
Default
100
AcDbBlockReference
  2
block 58
 10
0.0
 20
0.0
 30
0.0
  0
INSERT
  5
1BF
330
1F
100
AcDbEntity
  8
Default
100
AcDbBlockReference
  2
block 59
 10
0.0
 20
0.0
 30
0.0
  0
INSERT
  5
1C7
330
1F
100
AcDbEntity
  8
Default
100
AcDbBlockReference
  2
block 60
 10
0.0
 20
0.0
 30
0.0
  0
INSERT
  5
1CC
330
1F
100
AcDbEntity
  8
Default
100
AcDbBlockReference
  2
block 61
 10
0.0
 20
0.0
 30
0.0
  0
INSERT
  5
1D4
330
1F
100
AcDbEntity
  8
Default
100
AcDbBlockReference
  2
block 62
 10
0.0
 20
0.0
 30
0.0
  0
INSERT
  5
1D9
330
1F
100
AcDbEntity
  8
Default
100
AcDbBlockReference
  2
block 63
 10
0.0
 20
0.0
 30
0.0
  0
INSERT
  5
1E1
330
1F
100
AcDbEntity
  8
Default
100
AcDbBlockReference
  2
block 64
 10
0.0
 20
0.0
 30
0.0
  0
INSERT
  5
1E9
330
1F
100
AcDbEntity
  8
Default
100
AcDbBlockReference
  2
block 65
 10
0.0
 20
0.0
 30
0.0
  0
INSERT
  5
1F1
330
1F
100
AcDbEntity
  8
Default
100
AcDbBlockReference
  2
block 66
 10
0.0
 20
0.0
 30
0.0
  0
INSERT
  5
1F6
330
1F
100
AcDbEntity
  8
Default
100
AcDbBlockReference
  2
block 67
 10
0.0
 20
0.0
 30
0.0
  0
INSERT
  5
1FE
330
1F
100
AcDbEntity
  8
Default
100
AcDbBlockReference
  2
block 68
 10
0.0
 20
0.0
 30
0.0
  0
INSERT
  5
203
330
1F
100
AcDbEntity
  8
Default
100
AcDbBlockReference
  2
block 69
 10
0.0
 20
0.0
 30
0.0
  0
INSERT
  5
20B
330
1F
100
AcDbEntity
  8
Default
100
AcDbBlockReference
  2
block 70
 10
0.0
 20
0.0
 30
0.0
  0
INSERT
  5
210
330
1F
100
AcDbEntity
  8
Default
100
AcDbBlockReference
  2
block 71
 10
0.0
 20
0.0
 30
0.0
  0
INSERT
  5
218
330
1F
100
AcDbEntity
  8
Default
100
AcDbBlockReference
  2
block 72
 10
0.0
 20
0.0
 30
0.0
  0
INSERT
  5
21D
330
1F
100
AcDbEntity
  8
Default
100
AcDbBlockReference
  2
block 73
 10
0.0
 20
0.0
 30
0.0
  0
INSERT
  5
225
330
1F
100
AcDbEntity
  8
Default
100
AcDbBlockReference
  2
block 74
 10
0.0
 20
0.0
 30
0.0
  0
INSERT
  5
22A
330
1F
100
AcDbEntity
  8
Default
100
AcDbBlockReference
  2
block 75
 10
0.0
 20
0.0
 30
0.0
  0
INSERT
  5
232
330
1F
100
AcDbEntity
  8
Default
100
AcDbBlockReference
  2
block 76
 10
0.0
 20
0.0
 30
0.0
  0
INSERT
  5
237
330
1F
100
AcDbEntity
  8
Default
100
AcDbBlockReference
  2
block 77
 10
0.0
 20
0.0
 30
0.0
  0
INSERT
  5
23F
330
1F
100
AcDbEntity
  8
Default
100
AcDbBlockReference
  2
block 78
 10
0.0
 20
0.0
 30
0.0
  0
INSERT
  5
247
330
1F
100
AcDbEntity
  8
Default
100
AcDbBlockReference
  2
block 79
 10
0.0
 20
0.0
 30
0.0
  0
INSERT
  5
24F
330
1F
100
AcDbEntity
  8
Default
100
AcDbBlockReference
  2
block 80
 10
0.0
 20
0.0
 30
0.0
  0
INSERT
  5
254
330
1F
100
AcDbEntity
  8
Default
100
AcDbBlockReference
  2
block 81
 10
0.0
 20
0.0
 30
0.0
  0
INSERT
  5
25C
330
1F
100
AcDbEntity
  8
Default
100
AcDbBlockReference
  2
block 82
 10
0.0
 20
0.0
 30
0.0
  0
INSERT
  5
261
330
1F
100
AcDbEntity
  8
Default
100
AcDbBlockReference
  2
block 83
 10
0.0
 20
0.0
 30
0.0
  0
INSERT
  5
269
330
1F
100
AcDbEntity
  8
Default
100
AcDbBlockReference
  2
block 84
 10
0.0
 20
0.0
 30
0.0
  0
INSERT
  5
26E
330
1F
100
AcDbEntity
  8
Default
100
AcDbBlockReference
  2
block 85
 10
0.0
 20
0.0
 30
0.0
  0
INSERT
  5
276
330
1F
100
AcDbEntity
  8
Default
100
AcDbBlockReference
  2
block 86
 10
0.0
 20
0.0
 30
0.0
  0
INSERT
  5
27B
330
1F
100
AcDbEntity
  8
Default
100
AcDbBlockReference
  2
block 87
 10
0.0
 20
0.0
 30
0.0
  0
INSERT
  5
283
330
1F
100
AcDbEntity
  8
Default
100
AcDbBlockReference
  2
block 88
 10
0.0
 20
0.0
 30
0.0
  0
INSERT
  5
288
330
1F
100
AcDbEntity
  8
Default
100
AcDbBlockReference
  2
block 89
 10
0.0
 20
0.0
 30
0.0
  0
INSERT
  5
290
330
1F
100
AcDbEntity
  8
Default
100
AcDbBlockReference
  2
block 90
 10
0.0
 20
0.0
 30
0.0
  0
INSERT
  5
295
330
1F
100
AcDbEntity
  8
Default
100
AcDbBlockReference
  2
block 91
 10
0.0
 20
0.0
 30
0.0
  0
INSERT
  5
29D
330
1F
100
AcDbEntity
  8
Default
100
AcDbBlockReference
  2
block 92
 10
0.0
 20
0.0
 30
0.0
  0
INSERT
  5
2A2
330
1F
100
AcDbEntity
  8
Default
100
AcDbBlockReference
  2
block 93
 10
0.0
 20
0.0
 30
0.0
  0
INSERT
  5
2AA
330
1F
100
AcDbEntity
  8
Default
100
AcDbBlockReference
  2
block 94
 10
0.0
 20
0.0
 30
0.0
  0
INSERT
  5
2B2
330
1F
100
AcDbEntity
  8
Default
100
AcDbBlockReference
  2
block 95
 10
0.0
 20
0.0
 30
0.0
  0
INSERT
  5
2BA
330
1F
100
AcDbEntity
  8
Default
100
AcDbBlockReference
  2
block 96
 10
0.0
 20
0.0
 30
0.0
  0
INSERT
  5
2BF
330
1F
100
AcDbEntity
  8
Default
100
AcDbBlockReference
  2
block 97
 10
0.0
 20
0.0
 30
0.0
  0
INSERT
  5
2C7
330
1F
100
AcDbEntity
  8
Default
100
AcDbBlockReference
  2
block 98
 10
0.0
 20
0.0
 30
0.0
  0
INSERT
  5
2CC
330
1F
100
AcDbEntity
  8
Default
100
AcDbBlockReference
  2
block 99
 10
0.0
 20
0.0
 30
0.0
  0
INSERT
  5
2D4
330
1F
100
AcDbEntity
  8
Default
100
AcDbBlockReference
  2
block 100
 10
0.0
 20
0.0
 30
0.0
  0
INSERT
  5
2D9
330
1F
100
AcDbEntity
  8
Default
100
AcDbBlockReference
  2
block 101
 10
0.0
 20
0.0
 30
0.0
  0
INSERT
  5
2E1
330
1F
100
AcDbEntity
  8
Default
100
AcDbBlockReference
  2
block 102
 10
0.0
 20
0.0
 30
0.0
  0
INSERT
  5
2E6
330
1F
100
AcDbEntity
  8
Default
100
AcDbBlockReference
  2
block 103
 10
0.0
 20
0.0
 30
0.0
  0
INSERT
  5
2EE
330
1F
100
AcDbEntity
  8
Default
100
AcDbBlockReference
  2
block 104
 10
0.0
 20
0.0
 30
0.0
  0
INSERT
  5
2F3
330
1F
100
AcDbEntity
  8
Default
100
AcDbBlockReference
  2
block 105
 10
0.0
 20
0.0
 30
0.0
  0
INSERT
  5
2FB
330
1F
100
AcDbEntity
  8
Default
100
AcDbBlockReference
  2
block 106
 10
0.0
 20
0.0
 30
0.0
  0
INSERT
  5
300
330
1F
100
AcDbEntity
  8
Default
100
AcDbBlockReference
  2
block 107
 10
0.0
 20
0.0
 30
0.0
  0
INSERT
  5
308
330
1F
100
AcDbEntity
  8
Default
100
AcDbBlockReference
  2
block 108
 10
0.0
 20
0.0
 30
0.0
  0
INSERT
  5
310
330
1F
100
AcDbEntity
  8
Default
100
AcDbBlockReference
  2
block 109
 10
0.0
 20
0.0
 30
0.0
  0
INSERT
  5
318
330
1F
100
AcDbEntity
  8
Default
100
AcDbBlockReference
  2
block 110
 10
0.0
 20
0.0
 30
0.0
  0
INSERT
  5
31D
330
1F
100
AcDbEntity
  8
Default
100
AcDbBlockReference
  2
block 111
 10
0.0
 20
0.0
 30
0.0
  0
INSERT
  5
325
330
1F
100
AcDbEntity
  8
Default
100
AcDbBlockReference
  2
block 112
 10
0.0
 20
0.0
 30
0.0
  0
INSERT
  5
32A
330
1F
100
AcDbEntity
  8
Default
100
AcDbBlockReference
  2
block 113
 10
0.0
 20
0.0
 30
0.0
  0
INSERT
  5
332
330
1F
100
AcDbEntity
  8
Default
100
AcDbBlockReference
  2
block 114
 10
0.0
 20
0.0
 30
0.0
  0
INSERT
  5
337
330
1F
100
AcDbEntity
  8
Default
100
AcDbBlockReference
  2
block 115
 10
0.0
 20
0.0
 30
0.0
  0
INSERT
  5
33F
330
1F
100
AcDbEntity
  8
Default
100
AcDbBlockReference
  2
block 116
 10
0.0
 20
0.0
 30
0.0
  0
INSERT
  5
344
330
1F
100
AcDbEntity
  8
Default
100
AcDbBlockReference
  2
block 117
 10
0.0
 20
0.0
 30
0.0
  0
INSERT
  5
34C
330
1F
100
AcDbEntity
  8
Default
100
AcDbBlockReference
  2
block 118
 10
0.0
 20
0.0
 30
0.0
  0
INSERT
  5
351
330
1F
100
AcDbEntity
  8
Default
100
AcDbBlockReference
  2
block 119
 10
0.0
 20
0.0
 30
0.0
  0
INSERT
  5
359
330
1F
100
AcDbEntity
  8
Default
100
AcDbBlockReference
  2
block 120
 10
0.0
 20
0.0
 30
0.0
  0
INSERT
  5
35E
330
1F
100
AcDbEntity
  8
Default
100
AcDbBlockReference
  2
block 121
 10
0.0
 20
0.0
 30
0.0
  0
INSERT
  5
366
330
1F
100
AcDbEntity
  8
Default
100
AcDbBlockReference
  2
block 122
 10
0.0
 20
0.0
 30
0.0
  0
INSERT
  5
36E
330
1F
100
AcDbEntity
  8
Default
100
AcDbBlockReference
  2
block 123
 10
0.0
 20
0.0
 30
0.0
  0
INSERT
  5
376
330
1F
100
AcDbEntity
  8
Default
100
AcDbBlockReference
  2
block 124
 10
0.0
 20
0.0
 30
0.0
  0
INSERT
  5
37B
330
1F
100
AcDbEntity
  8
Default
100
AcDbBlockReference
  2
block 125
 10
0.0
 20
0.0
 30
0.0
  0
INSERT
  5
383
330
1F
100
AcDbEntity
  8
Default
100
AcDbBlockReference
  2
block 126
 10
0.0
 20
0.0
 30
0.0
  0
INSERT
  5
388
330
1F
100
AcDbEntity
  8
Default
100
AcDbBlockReference
  2
block 127
 10
0.0
 20
0.0
 30
0.0
  0
INSERT
  5
390
330
1F
100
AcDbEntity
  8
Default
100
AcDbBlockReference
  2
block 128
 10
0.0
 20
0.0
 30
0.0
  0
INSERT
  5
395
330
1F
100
AcDbEntity
  8
Default
100
AcDbBlockReference
  2
block 129
 10
0.0
 20
0.0
 30
0.0
  0
INSERT
  5
39D
330
1F
100
AcDbEntity
  8
Default
100
AcDbBlockReference
  2
block 130
 10
0.0
 20
0.0
 30
0.0
  0
INSERT
  5
3A2
330
1F
100
AcDbEntity
  8
Default
100
AcDbBlockReference
  2
block 131
 10
0.0
 20
0.0
 30
0.0
  0
INSERT
  5
3AA
330
1F
100
AcDbEntity
  8
Default
100
AcDbBlockReference
  2
block 132
 10
0.0
 20
0.0
 30
0.0
  0
INSERT
  5
3AF
330
1F
100
AcDbEntity
  8
Default
100
AcDbBlockReference
  2
block 133
 10
0.0
 20
0.0
 30
0.0
  0
INSERT
  5
3B7
330
1F
100
AcDbEntity
  8
Default
100
AcDbBlockReference
  2
block 134
 10
0.0
 20
0.0
 30
0.0
  0
INSERT
  5
3BC
330
1F
100
AcDbEntity
  8
Default
100
AcDbBlockReference
  2
block 135
 10
0.0
 20
0.0
 30
0.0
  0
INSERT
  5
3C4
330
1F
100
AcDbEntity
  8
Default
100
AcDbBlockReference
  2
block 136
 10
0.0
 20
0.0
 30
0.0
  0
INSERT
  5
3CC
330
1F
100
AcDbEntity
  8
Default
100
AcDbBlockReference
  2
block 137
 10
0.0
 20
0.0
 30
0.0
  0
INSERT
  5
3D4
330
1F
100
AcDbEntity
  8
Default
100
AcDbBlockReference
  2
block 138
 10
0.0
 20
0.0
 30
0.0
  0
INSERT
  5
3D9
330
1F
100
AcDbEntity
  8
Default
100
AcDbBlockReference
  2
block 139
 10
0.0
 20
0.0
 30
0.0
  0
INSERT
  5
3E1
330
1F
100
AcDbEntity
  8
Default
100
AcDbBlockReference
  2
block 140
 10
0.0
 20
0.0
 30
0.0
  0
INSERT
  5
3E6
330
1F
100
AcDbEntity
  8
Default
100
AcDbBlockReference
  2
block 141
 10
0.0
 20
0.0
 30
0.0
  0
ENDSEC
  0
SECTION
  2
OBJECTS
  0
DICTIONARY
  5
C
330
0
100
AcDbDictionary
281
     1
  3
ACAD_GROUP
350
D
  3
ACAD_LAYOUT
350
1A
  3
ACAD_MATERIAL
350
3B
  3
ACAD_MLEADERSTYLE
350
3EE
  3
ACAD_MLINESTYLE
350
17
  3
ACAD_PLOTSETTINGS
350
19
  3
ACAD_PLOTSTYLENAME
350
E
  3
ACAD_TABLESTYLE
350
3ED
  3
ACAD_VISUALSTYLE
350
2A
  0
SUN
  5
3F
330
29
100
AcDbSun
 90
        1
290
     0
 63
     7
421
 16777215
 40
1.0
291
     1
 91
  2455826
 92
 54000000
292
     0
 70
     2
 71
   256
280
     1
  0
DICTIONARY
  5
D
102
{ACAD_REACTORS
330
C
102
}
330
C
100
AcDbDictionary
281
     1
  0
DICTIONARY
  5
1A
102
{ACAD_REACTORS
330
C
102
}
330
C
100
AcDbDictionary
281
     1
  3
Layout1
350
1E
  3
Layout2
350
26
  3
Model
350
22
  0
DICTIONARY
  5
3B
102
{ACAD_REACTORS
330
C
102
}
330
C
100
AcDbDictionary
281
     1
  3
ByBlock
350
3D
  3
ByLayer
350
3C
  3
Global
350
3E
  0
DICTIONARY
  5
3EE
102
{ACAD_REACTORS
330
C
102
}
330
C
100
AcDbDictionary
281
     1
  0
DICTIONARY
  5
17
102
{ACAD_REACTORS
330
C
102
}
330
C
100
AcDbDictionary
281
     1
  3
Standard
350
18
  0
DICTIONARY
  5
19
102
{ACAD_REACTORS
330
C
102
}
330
C
100
AcDbDictionary
281
     1
  0
ACDBDICTIONARYWDFLT
  5
E
102
{ACAD_REACTORS
330
C
102
}
330
C
100
AcDbDictionary
281
     1
  3
Normal
350
F
100
AcDbDictionaryWithDefault
340
F
  0
DICTIONARY
  5
3ED
102
{ACAD_REACTORS
330
C
102
}
330
C
100
AcDbDictionary
281
     1
  0
DICTIONARY
  5
2A
102
{ACAD_REACTORS
330
C
102
}
330
C
100
AcDbDictionary
281
     1
  3
2dWireframe
350
2F
  3
3D Hidden
350
31
  3
3dWireframe
350
30
  3
Basic
350
32
  3
Brighten
350
36
  3
ColorChange
350
3A
  3
Conceptual
350
34
  3
Dim
350
35
  3
Facepattern
350
39
  3
Flat
350
2B
  3
FlatWithEdges
350
2C
  3
Gouraud
350
2D
  3
GouraudWithEdges
350
2E
  3
Linepattern
350
38
  3
Realistic
350
33
  3
Thicken
350
37
  0
LAYOUT
  5
1E
102
{ACAD_REACTORS
330
1A
102
}
330
1A
100
AcDbPlotSettings
  1

  2
none_device
  4

  6

 40
0.0
 41
0.0
 42
0.0
 43
0.0
 44
0.0
 45
0.0
 46
0.0
 47
0.0
 48
0.0
 49
0.0
140
0.0
141
0.0
142
1.0
143
1.0
 70
   688
 72
     0
 73
     0
 74
     5
  7

 75
    16
 76
     0
 77
     2
 78
   300
147
1.0
148
0.0
149
0.0
100
AcDbLayout
  1
Layout1
 70
     1
 71
     1
 10
0.0
 20
0.0
 11
12.0
 21
9.0
 12
0.0
 22
0.0
 32
0.0
 14
1.000000000000000E+20
 24
1.000000000000000E+20
 34
1.000000000000000E+20
 15
-1.000000000000000E+20
 25
-1.000000000000000E+20
 35
-1.000000000000000E+20
146
0.0
 13
0.0
 23
0.0
 33
0.0
 16
1.0
 26
0.0
 36
0.0
 17
0.0
 27
1.0
 37
0.0
 76
     0
330
1B
  0
LAYOUT
  5
26
102
{ACAD_REACTORS
330
1A
102
}
330
1A
100
AcDbPlotSettings
  1

  2
none_device
  4

  6

 40
0.0
 41
0.0
 42
0.0
 43
0.0
 44
0.0
 45
0.0
 46
0.0
 47
0.0
 48
0.0
 49
0.0
140
0.0
141
0.0
142
1.0
143
1.0
 70
   688
 72
     0
 73
     0
 74
     5
  7

 75
    16
 76
     0
 77
     2
 78
   300
147
1.0
148
0.0
149
0.0
100
AcDbLayout
  1
Layout2
 70
     1
 71
     2
 10
0.0
 20
0.0
 11
0.0
 21
0.0
 12
0.0
 22
0.0
 32
0.0
 14
0.0
 24
0.0
 34
0.0
 15
0.0
 25
0.0
 35
0.0
146
0.0
 13
0.0
 23
0.0
 33
0.0
 16
1.0
 26
0.0
 36
0.0
 17
0.0
 27
1.0
 37
0.0
 76
     0
330
23
  0
LAYOUT
  5
22
102
{ACAD_REACTORS
330
1A
102
}
330
1A
100
AcDbPlotSettings
  1

  2
none_device
  4

  6

 40
0.0
 41
0.0
 42
0.0
 43
0.0
 44
0.0
 45
0.0
 46
0.0
 47
0.0
 48
0.0
 49
0.0
140
0.0
141
0.0
142
1.0
143
1.0
 70
  1712
 72
     0
 73
     0
 74
     0
  7

 75
     0
 76
     0
 77
     2
 78
   300
147
1.0
148
0.0
149
0.0
100
AcDbLayout
  1
Model
 70
     1
 71
     0
 10
0.0
 20
0.0
 11
12.0
 21
9.0
 12
0.0
 22
0.0
 32
0.0
 14
1.000000000000000E+20
 24
1.000000000000000E+20
 34
1.000000000000000E+20
 15
-1.000000000000000E+20
 25
-1.000000000000000E+20
 35
-1.000000000000000E+20
146
0.0
 13
0.0
 23
0.0
 33
0.0
 16
1.0
 26
0.0
 36
0.0
 17
0.0
 27
1.0
 37
0.0
 76
     0
330
1F
331
29
  0
MATERIAL
  5
3D
102
{ACAD_REACTORS
330
3B
102
}
330
3B
100
AcDbMaterial
  1
ByBlock
 72
     1
 94
      127
  0
MATERIAL
  5
3C
102
{ACAD_REACTORS
330
3B
102
}
330
3B
100
AcDbMaterial
  1
ByLayer
 72
     1
 94
      127
  0
MATERIAL
  5
3E
102
{ACAD_REACTORS
330
3B
102
}
330
3B
100
AcDbMaterial
  1
Global
 72
     1
 94
      127
  0
MLINESTYLE
  5
18
102
{ACAD_REACTORS
330
17
102
}
330
17
100
AcDbMlineStyle
  2
Standard
 70
     0
  3

 62
   256
 51
90.0
 52
90.0
 71
     2
 49
0.5
 62
   256
  6
BYLAYER
 49
-0.5
 62
   256
  6
BYLAYER
  0
ACDBPLACEHOLDER
  5
F
102
{ACAD_REACTORS
330
E
102
}
330
E
  0
VISUALSTYLE
  5
2F
102
{ACAD_REACTORS
330
2A
102
}
330
2A
100
AcDbVisualStyle
  2
2dWireframe
 70
     4
177
     2
291
     0
 71
     0
176
     1
 72
     2
176
     1
 73
     0
176
     1
 90
        0
176
     1
 40
-0.6
176
     1
 41
-30.0
176
     1
 62
     5
 63
     7
421
 16777215
176
     1
 74
     1
176
     1
 91
        4
176
     1
 64
     7
176
     1
 65
   257
176
     1
 75
     1
176
     1
175
     1
176
     1
 42
1.0
176
     1
 92
        0
176
     1
 66
   257
176
     1
 43
1.0
176
     1
 76
     1
176
     1
 77
     6
176
     1
 78
     2
176
     1
 67
     7
176
     1
 79
     5
176
     1
170
     0
176
     1
171
     0
176
     1
290
     0
176
     1
 93
        1
176
     1
 44
0.0
176
     1
173
     0
176
     1
  0
VISUALSTYLE
  5
31
102
{ACAD_REACTORS
330
2A
102
}
330
2A
100
AcDbVisualStyle
  2
3D Hidden
 70
     6
177
     2
291
     0
 71
     1
176
     1
 72
     2
176
     1
 73
     2
176
     1
 90
        0
176
     1
 40
-0.6
176
     1
 41
-30.0
176
     1
 62
     5
 63
     7
421
 16777215
176
     1
 74
     2
176
     1
 91
        2
176
     1
 64
     7
176
     1
 65
   257
176
     1
 75
     2
176
     1
175
     1
176
     1
 42
40.0
176
     1
 92
        0
176
     1
 66
   257
176
     1
 43
1.0
176
     1
 76
     1
176
     1
 77
     6
176
     1
 78
     2
176
     1
 67
     7
176
     1
 79
     3
176
     1
170
     0
176
     1
171
     0
176
     1
290
     0
176
     1
 93
        1
176
     1
 44
0.0
176
     1
173
     0
176
     1
  0
VISUALSTYLE
  5
30
102
{ACAD_REACTORS
330
2A
102
}
330
2A
100
AcDbVisualStyle
  2
3dWireframe
 70
     5
177
     2
291
     0
 71
     0
176
     1
 72
     2
176
     1
 73
     0
176
     1
 90
        0
176
     1
 40
-0.6
176
     1
 41
-30.0
176
     1
 62
     5
 63
     7
421
 16777215
176
     1
 74
     1
176
     1
 91
        4
176
     1
 64
     7
176
     1
 65
   257
176
     1
 75
     1
176
     1
175
     1
176
     1
 42
1.0
176
     1
 92
        0
176
     1
 66
   257
176
     1
 43
1.0
176
     1
 76
     1
176
     1
 77
     6
176
     1
 78
     2
176
     1
 67
     7
176
     1
 79
     5
176
     1
170
     0
176
     1
171
     0
176
     1
290
     0
176
     1
 93
        1
176
     1
 44
0.0
176
     1
173
     0
176
     1
  0
VISUALSTYLE
  5
32
102
{ACAD_REACTORS
330
2A
102
}
330
2A
100
AcDbVisualStyle
  2
Basic
 70
     7
177
     2
291
     1
 71
     1
176
     1
 72
     0
176
     1
 73
     1
176
     1
 90
        0
176
     1
 40
-0.6
176
     1
 41
-30.0
176
     1
 62
     5
 63
     7
421
 16777215
176
     1
 74
     0
176
     1
 91
        4
176
     1
 64
     7
176
     1
 65
   257
176
     1
 75
     1
176
     1
175
     1
176
     1
 42
1.0
176
     1
 92
        8
176
     1
 66
     7
176
     1
 43
1.0
176
     1
 76
     1
176
     1
 77
     6
176
     1
 78
     2
176
     1
 67
     7
176
     1
 79
     5
176
     1
170
     0
176
     1
171
     0
176
     1
290
     0
176
     1
 93
        1
176
     1
 44
0.0
176
     1
173
     0
176
     1
  0
VISUALSTYLE
  5
36
102
{ACAD_REACTORS
330
2A
102
}
330
2A
100
AcDbVisualStyle
  2
Brighten
 70
    12
177
     2
291
     1
 71
     2
176
     1
 72
     2
176
     1
 73
     0
176
     1
 90
        0
176
     1
 40
-0.6
176
     1
 41
-30.0
176
     1
 62
     5
 63
     7
421
 16777215
176
     1
 74
     1
176
     1
 91
        4
176
     1
 64
     7
176
     1
 65
   257
176
     1
 75
     1
176
     1
175
     1
176
     1
 42
1.0
176
     1
 92
        8
176
     1
 66
     7
176
     1
 43
1.0
176
     1
 76
     1
176
     1
 77
     6
176
     1
 78
     2
176
     1
 67
     7
176
     1
 79
     5
176
     1
170
     0
176
     1
171
     0
176
     1
290
     0
176
     1
 93
        1
176
     1
 44
50.0
176
     1
173
     0
176
     1
  0
VISUALSTYLE
  5
3A
102
{ACAD_REACTORS
330
2A
102
}
330
2A
100
AcDbVisualStyle
  2
ColorChange
 70
    16
177
     2
291
     1
 71
     2
176
     1
 72
     2
176
     1
 73
     3
176
     1
 90
        0
176
     1
 40
-0.6
176
     1
 41
-30.0
176
     1
 62
     5
 63
     8
421
  8421504
176
     1
 74
     1
176
     1
 91
        4
176
     1
 64
     7
176
     1
 65
   257
176
     1
 75
     1
176
     1
175
     1
176
     1
 42
1.0
176
     1
 92
        8
176
     1
 66
     8
424
  8421504
176
     1
 43
1.0
176
     1
 76
     1
176
     1
 77
     6
176
     1
 78
     2
176
     1
 67
     7
176
     1
 79
     5
176
     1
170
     0
176
     1
171
     0
176
     1
290
     0
176
     1
 93
        1
176
     1
 44
0.0
176
     1
173
     0
176
     1
  0
VISUALSTYLE
  5
34
102
{ACAD_REACTORS
330
2A
102
}
330
2A
100
AcDbVisualStyle
  2
Conceptual
 70
     9
177
     2
291
     0
 71
     3
176
     1
 72
     2
176
     1
 73
     0
176
     1
 90
        0
176
     1
 40
-0.6
176
     1
 41
-30.0
176
     1
 62
     5
 63
     7
421
 16777215
176
     1
 74
     2
176
     1
 91
        2
176
     1
 64
     7
176
     1
 65
   257
176
     1
 75
     1
176
     1
175
     1
176
     1
 42
40.0
176
     1
 92
        8
176
     1
 66
     7
176
     1
 43
1.0
176
     1
 76
     1
176
     1
 77
     6
176
     1
 78
     2
176
     1
 67
     7
176
     1
 79
     3
176
     1
170
     0
176
     1
171
     0
176
     1
290
     0
176
     1
 93
        1
176
     1
 44
0.0
176
     1
173
     0
176
     1
  0
VISUALSTYLE
  5
35
102
{ACAD_REACTORS
330
2A
102
}
330
2A
100
AcDbVisualStyle
  2
Dim
 70
    11
177
     2
291
     1
 71
     2
176
     1
 72
     2
176
     1
 73
     0
176
     1
 90
        0
176
     1
 40
-0.6
176
     1
 41
-30.0
176
     1
 62
     5
 63
     7
421
 16777215
176
     1
 74
     1
176
     1
 91
        4
176
     1
 64
     7
176
     1
 65
   257
176
     1
 75
     1
176
     1
175
     1
176
     1
 42
1.0
176
     1
 92
        8
176
     1
 66
     7
176
     1
 43
1.0
176
     1
 76
     1
176
     1
 77
     6
176
     1
 78
     2
176
     1
 67
     7
176
     1
 79
     5
176
     1
170
     0
176
     1
171
     0
176
     1
290
     0
176
     1
 93
        1
176
     1
 44
-50.0
176
     1
173
     0
176
     1
  0
VISUALSTYLE
  5
39
102
{ACAD_REACTORS
330
2A
102
}
330
2A
100
AcDbVisualStyle
  2
Facepattern
 70
    15
177
     2
291
     1
 71
     2
176
     1
 72
     2
176
     1
 73
     0
176
     1
 90
        0
176
     1
 40
-0.6
176
     1
 41
-30.0
176
     1
 62
     5
 63
     7
421
 16777215
176
     1
 74
     1
176
     1
 91
        4
176
     1
 64
     7
176
     1
 65
   257
176
     1
 75
     1
176
     1
175
     1
176
     1
 42
1.0
176
     1
 92
        8
176
     1
 66
     7
176
     1
 43
1.0
176
     1
 76
     1
176
     1
 77
     6
176
     1
 78
     2
176
     1
 67
     7
176
     1
 79
     5
176
     1
170
     0
176
     1
171
     0
176
     1
290
     0
176
     1
 93
        1
176
     1
 44
0.0
176
     1
173
     0
176
     1
  0
VISUALSTYLE
  5
2B
102
{ACAD_REACTORS
330
2A
102
}
330
2A
100
AcDbVisualStyle
  2
Flat
 70
     0
177
     2
291
     1
 71
     2
176
     1
 72
     1
176
     1
 73
     1
176
     1
 90
        2
176
     1
 40
-0.6
176
     1
 41
30.0
176
     1
 62
     5
 63
     7
421
 16777215
176
     1
 74
     0
176
     1
 91
        4
176
     1
 64
     7
176
     1
 65
   257
176
     1
 75
     1
176
     1
175
     1
176
     1
 42
1.0
176
     1
 92
        8
176
     1
 66
     7
176
     1
 43
1.0
176
     1
 76
     1
176
     1
 77
     6
176
     1
 78
     2
176
     1
 67
     7
176
     1
 79
     5
176
     1
170
     0
176
     1
171
     0
176
     1
290
     0
176
     1
 93
       13
176
     1
 44
0.0
176
     1
173
     0
176
     1
  0
VISUALSTYLE
  5
2C
102
{ACAD_REACTORS
330
2A
102
}
330
2A
100
AcDbVisualStyle
  2
FlatWithEdges
 70
     1
177
     2
291
     1
 71
     2
176
     1
 72
     1
176
     1
 73
     1
176
     1
 90
        2
176
     1
 40
-0.6
176
     1
 41
30.0
176
     1
 62
     5
 63
     7
421
 16777215
176
     1
 74
     1
176
     1
 91
        4
176
     1
 64
     7
176
     1
 65
   257
176
     1
 75
     1
176
     1
175
     1
176
     1
 42
1.0
176
     1
 92
        0
176
     1
 66
   257
176
     1
 43
1.0
176
     1
 76
     1
176
     1
 77
     6
176
     1
 78
     2
176
     1
 67
     7
176
     1
 79
     5
176
     1
170
     0
176
     1
171
     0
176
     1
290
     0
176
     1
 93
       13
176
     1
 44
0.0
176
     1
173
     0
176
     1
  0
VISUALSTYLE
  5
2D
102
{ACAD_REACTORS
330
2A
102
}
330
2A
100
AcDbVisualStyle
  2
Gouraud
 70
     2
177
     2
291
     1
 71
     2
176
     1
 72
     2
176
     1
 73
     1
176
     1
 90
        2
176
     1
 40
-0.6
176
     1
 41
30.0
176
     1
 62
     5
 63
     7
421
 16777215
176
     1
 74
     0
176
     1
 91
        4
176
     1
 64
     7
176
     1
 65
   257
176
     1
 75
     1
176
     1
175
     1
176
     1
 42
1.0
176
     1
 92
        0
176
     1
 66
     7
176
     1
 43
1.0
176
     1
 76
     1
176
     1
 77
     6
176
     1
 78
     2
176
     1
 67
     7
176
     1
 79
     5
176
     1
170
     0
176
     1
171
     0
176
     1
290
     0
176
     1
 93
       13
176
     1
 44
0.0
176
     1
173
     0
176
     1
  0
VISUALSTYLE
  5
2E
102
{ACAD_REACTORS
330
2A
102
}
330
2A
100
AcDbVisualStyle
  2
GouraudWithEdges
 70
     3
177
     2
291
     1
 71
     2
176
     1
 72
     2
176
     1
 73
     1
176
     1
 90
        2
176
     1
 40
-0.6
176
     1
 41
30.0
176
     1
 62
     5
 63
     7
421
 16777215
176
     1
 74
     1
176
     1
 91
        4
176
     1
 64
     7
176
     1
 65
   257
176
     1
 75
     1
176
     1
175
     1
176
     1
 42
1.0
176
     1
 92
        0
176
     1
 66
   257
176
     1
 43
1.0
176
     1
 76
     1
176
     1
 77
     6
176
     1
 78
     2
176
     1
 67
     7
176
     1
 79
     5
176
     1
170
     0
176
     1
171
     0
176
     1
290
     0
176
     1
 93
       13
176
     1
 44
0.0
176
     1
173
     0
176
     1
  0
VISUALSTYLE
  5
38
102
{ACAD_REACTORS
330
2A
102
}
330
2A
100
AcDbVisualStyle
  2
Linepattern
 70
    14
177
     2
291
     1
 71
     2
176
     1
 72
     2
176
     1
 73
     0
176
     1
 90
        0
176
     1
 40
-0.6
176
     1
 41
-30.0
176
     1
 62
     5
 63
     7
421
 16777215
176
     1
 74
     1
176
     1
 91
        4
176
     1
 64
     7
176
     1
 65
   257
176
     1
 75
     7
176
     1
175
     7
176
     1
 42
1.0
176
     1
 92
        8
176
     1
 66
     7
176
     1
 43
1.0
176
     1
 76
     1
176
     1
 77
     6
176
     1
 78
     2
176
     1
 67
     7
176
     1
 79
     5
176
     1
170
     0
176
     1
171
     0
176
     1
290
     0
176
     1
 93
        1
176
     1
 44
0.0
176
     1
173
     0
176
     1
  0
VISUALSTYLE
  5
33
102
{ACAD_REACTORS
330
2A
102
}
330
2A
100
AcDbVisualStyle
  2
Realistic
 70
     8
177
     2
291
     0
 71
     2
176
     1
 72
     2
176
     1
 73
     0
176
     1
 90
        0
176
     1
 40
-0.6
176
     1
 41
-30.0
176
     1
 62
     5
 63
     7
421
 16777215
176
     1
 74
     1
176
     1
 91
        0
176
     1
 64
     7
176
     1
 65
   257
176
     1
 75
     1
176
     1
175
     1
176
     1
 42
1.0
176
     1
 92
        8
176
     1
 66
     8
424
  7895160
176
     1
 43
1.0
176
     1
 76
     1
176
     1
 77
     6
176
     1
 78
     2
176
     1
 67
     7
176
     1
 79
     5
176
     1
170
     0
176
     1
171
     0
176
     1
290
     0
176
     1
 93
       13
176
     1
 44
0.0
176
     1
173
     0
176
     1
  0
VISUALSTYLE
  5
37
102
{ACAD_REACTORS
330
2A
102
}
330
2A
100
AcDbVisualStyle
  2
Thicken
 70
    13
177
     2
291
     1
 71
     2
176
     1
 72
     2
176
     1
 73
     0
176
     1
 90
        0
176
     1
 40
-0.6
176
     1
 41
-30.0
176
     1
 62
     5
 63
     7
421
 16777215
176
     1
 74
     1
176
     1
 91
        4
176
     1
 64
     7
176
     1
 65
   257
176
     1
 75
     1
176
     1
175
     1
176
     1
 42
1.0
176
     1
 92
       12
176
     1
 66
     7
176
     1
 43
1.0
176
     1
 76
     1
176
     1
 77
     6
176
     1
 78
     2
176
     1
 67
     7
176
     1
 79
     5
176
     1
170
     0
176
     1
171
     0
176
     1
290
     0
176
     1
 93
        1
176
     1
 44
0.0
176
     1
173
     0
176
     1
  0
ENDSEC
  0
EOF
